<mxfile host="app.diagrams.net" modified="2023-08-27T20:52:02.723Z" agent="Mozilla/5.0 (Macintosh; Intel Mac OS X 10_15_7) AppleWebKit/605.1.15 (KHTML, like Gecko) Version/16.6 Safari/605.1.15" etag="d9LuhtUw11O8rE1PNEkK" version="21.6.9" type="github">
  <diagram id="C5RBs43oDa-KdzZeNtuy" name="Page-1">
    <mxGraphModel dx="1848" dy="691" grid="1" gridSize="10" guides="1" tooltips="1" connect="1" arrows="1" fold="1" page="1" pageScale="1" pageWidth="827" pageHeight="1169" math="0" shadow="0">
      <root>
        <mxCell id="WIyWlLk6GJQsqaUBKTNV-0" />
        <mxCell id="WIyWlLk6GJQsqaUBKTNV-1" parent="WIyWlLk6GJQsqaUBKTNV-0" />
        <mxCell id="pzX8ORRPkJJLvDyIY_AX-0" value="" style="shape=image;verticalLabelPosition=bottom;labelBackgroundColor=default;verticalAlign=top;aspect=fixed;imageAspect=0;image=data:image/svg+xml,PHN2ZyB4bWxucz0iaHR0cDovL3d3dy53My5vcmcvMjAwMC9zdmciIHZlcnNpb249IjEuMCIgaWQ9InN2ZzIiIGhlaWdodD0iMTA0NyIgd2lkdGg9IjIxNTQuNzIiIHZpZXdCb3g9IjAgMCAyMTU0LjcyIDEwNDciPiYjeGE7ICA8ZGVmcyBpZD0iZGVmczQiLz4mI3hhOyAgJiN4YTsgIDxtZXRhZGF0YSBpZD0ibWV0YWRhdGE3Ij4mI3hhOyAgICAmI3hhOyAgICAgICYjeGE7ICAgICAgICBpbWFnZS9zdmcreG1sJiN4YTsgICAgICAgICYjeGE7ICAgICAgJiN4YTsgICAgJiN4YTsgIDwvbWV0YWRhdGE+JiN4YTsgIDxnIGlkPSJsYXllcjEiPiYjeGE7ICAgIDxnIHRyYW5zZm9ybT0idHJhbnNsYXRlKDI0LC03OCkiIGlkPSJnMzUyNTQiPiYjeGE7ICAgICAgPHJlY3Qgc3R5bGU9Im9wYWNpdHk6MTtmaWxsOiMwMGZmZmY7ZmlsbC1vcGFjaXR5OjE7ZmlsbC1ydWxlOm5vbnplcm87c3Ryb2tlOiMwMDAwMDA7c3Ryb2tlLXdpZHRoOjEuODkyNTQ0OTg7c3Ryb2tlLWxpbmVjYXA6c3F1YXJlO3N0cm9rZS1saW5lam9pbjptaXRlcjtzdHJva2UtbWl0ZXJsaW1pdDo0O3N0cm9rZS1kYXNoYXJyYXk6MTEuMzU1MjcwMDEsIDEuODkyNTQ1O3N0cm9rZS1kYXNob2Zmc2V0OjA7c3Ryb2tlLW9wYWNpdHk6MSIgaWQ9InJlY3QzMTQ2IiB3aWR0aD0iMTQxLjU4ODg4IiBoZWlnaHQ9IjEzNi4wMTk3IiB4PSIxNTYzLjQ0NTIiIHk9IjQ1MS4yMjI5OSIvPiYjeGE7ICAgICAgPGcgaWQ9ImcyMzA3NCIgdHJhbnNmb3JtPSJ0cmFuc2xhdGUoMjcxLjY2NzM3LC03ODkuNzA5OSkiPiYjeGE7ICAgICAgICA8cGF0aCBpZD0icGF0aDU2MDYiIGQ9Ik0gMTMyNC40OCwxMjg4LjIwNDkgQyAxMzQzLjMxMDYsMTMwNS42NDIzIDEzNDMuMzEwNiwxMzA1LjY0MjMgMTM0My4zMTA2LDEzMDUuNjQyMyBMIDEzNDguMDMyOSwxMjgxLjY1NjMgTCAxMzI0LjQ4LDEyODguMjA0OSB6IiBzdHlsZT0iZmlsbDpub25lO2ZpbGwtcnVsZTpldmVub2RkO3N0cm9rZTojMDAwMDAwO3N0cm9rZS13aWR0aDoyLjQ3Mjk0NTIxO3N0cm9rZS1saW5lY2FwOmJ1dHQ7c3Ryb2tlLWxpbmVqb2luOm1pdGVyO3N0cm9rZS1taXRlcmxpbWl0OjQ7c3Ryb2tlLWRhc2hhcnJheTpub25lO3N0cm9rZS1vcGFjaXR5OjEiLz4mI3hhOyAgICAgICAgPHBhdGggaWQ9InBhdGg1NjA4IiBkPSJNIDEzMzkuMzM2LDEyNzEuOTgwNCBDIDEzNTguNzM1NywxMjg5Ljk0NDYgMTM1OC43MzU3LDEyODkuOTQ0NiAxMzU4LjczNTcsMTI4OS45NDQ2IEwgMTM1OC43MzU3LDEyODkuOTQ0NiBMIDEzNTguNzM1NywxMjg5Ljk0NDYgTCAxMzU4LjczNTcsMTI4OS45NDQ2IiBzdHlsZT0iZmlsbDpub25lO2ZpbGwtcnVsZTpldmVub2RkO3N0cm9rZTojMDAwMDAwO3N0cm9rZS13aWR0aDoyLjQ3Mjk0NTIxO3N0cm9rZS1saW5lY2FwOmJ1dHQ7c3Ryb2tlLWxpbmVqb2luOm1pdGVyO3N0cm9rZS1taXRlcmxpbWl0OjQ7c3Ryb2tlLWRhc2hhcnJheTpub25lO3N0cm9rZS1vcGFjaXR5OjEiLz4mI3hhOyAgICAgICAgPHBhdGggaWQ9InBhdGg1NjEwIiBkPSJNIDEzMjEuNTY5MSwxMzEwLjc5MTEgQyAxMzUxLjYzNzcsMTI3OC4zMiAxMzYyLjM4MDYsMTI2Ni42MDA0IDEzNjIuMzgwNiwxMjY2LjYwMDQiIHN0eWxlPSJmaWxsOm5vbmU7ZmlsbC1ydWxlOmV2ZW5vZGQ7c3Ryb2tlOiMwMDAwMDA7c3Ryb2tlLXdpZHRoOjIuNDcyOTQ1OTM7c3Ryb2tlLWxpbmVjYXA6YnV0dDtzdHJva2UtbGluZWpvaW46bWl0ZXI7c3Ryb2tlLW1pdGVybGltaXQ6NDtzdHJva2UtZGFzaGFycmF5Om5vbmU7c3Ryb2tlLW9wYWNpdHk6MSIvPiYjeGE7ICAgICAgICA8cGF0aCBpZD0icGF0aDIyMjkyIiBkPSJNIDE0MDAuNDkyMiwxMzI3LjcyOCBDIDEzODEuNjYxNiwxMzEwLjI5MDYgMTM4MS42NjE2LDEzMTAuMjkwNiAxMzgxLjY2MTYsMTMxMC4yOTA2IEwgMTM3Ni45MzkzLDEzMzQuMjc2NiBMIDE0MDAuNDkyMiwxMzI3LjcyOCB6IiBzdHlsZT0iZmlsbDpub25lO2ZpbGwtcnVsZTpldmVub2RkO3N0cm9rZTojMDAwMDAwO3N0cm9rZS13aWR0aDoyLjQ3Mjk0NTIxO3N0cm9rZS1saW5lY2FwOmJ1dHQ7c3Ryb2tlLWxpbmVqb2luOm1pdGVyO3N0cm9rZS1taXRlcmxpbWl0OjQ7c3Ryb2tlLWRhc2hhcnJheTpub25lO3N0cm9rZS1vcGFjaXR5OjEiLz4mI3hhOyAgICAgICAgPHBhdGggaWQ9InBhdGgyMjI5NCIgZD0iTSAxMzg1LjYzNjIsMTM0My45NTI1IEMgMTM2Ni4yMzY1LDEzMjUuOTg4MyAxMzY2LjIzNjUsMTMyNS45ODgzIDEzNjYuMjM2NSwxMzI1Ljk4ODMgTCAxMzY2LjIzNjUsMTMyNS45ODgzIEwgMTM2Ni4yMzY1LDEzMjUuOTg4MyBMIDEzNjYuMjM2NSwxMzI1Ljk4ODMiIHN0eWxlPSJmaWxsOm5vbmU7ZmlsbC1ydWxlOmV2ZW5vZGQ7c3Ryb2tlOiMwMDAwMDA7c3Ryb2tlLXdpZHRoOjIuNDcyOTQ1MjE7c3Ryb2tlLWxpbmVjYXA6YnV0dDtzdHJva2UtbGluZWpvaW46bWl0ZXI7c3Ryb2tlLW1pdGVybGltaXQ6NDtzdHJva2UtZGFzaGFycmF5Om5vbmU7c3Ryb2tlLW9wYWNpdHk6MSIvPiYjeGE7ICAgICAgICA8cGF0aCBpZD0icGF0aDIyMjk2IiBkPSJNIDE0MDMuNTY1OSwxMzA0LjQ5MDggQyAxMzczLjQ5NzMsMTMzNi45NjE5IDEzNjQuMjE5MywxMzQ4LjE5MzEgMTM2NC4yMTkzLDEzNDguMTkzMSIgc3R5bGU9ImZpbGw6bm9uZTtmaWxsLXJ1bGU6ZXZlbm9kZDtzdHJva2U6IzAwMDAwMDtzdHJva2Utd2lkdGg6Mi40NzI5NDU5MztzdHJva2UtbGluZWNhcDpidXR0O3N0cm9rZS1saW5lam9pbjptaXRlcjtzdHJva2UtbWl0ZXJsaW1pdDo0O3N0cm9rZS1kYXNoYXJyYXk6bm9uZTtzdHJva2Utb3BhY2l0eToxIi8+JiN4YTsgICAgICAgIDxwYXRoIGlkPSJwYXRoMjIyOTgiIGQ9Ik0gMTM4Mi41MzksMTI2OS40MjU0IEMgMTM2NS4xMDE1LDEyODguMjU2IDEzNjUuMTAxNSwxMjg4LjI1NiAxMzY1LjEwMTUsMTI4OC4yNTYgTCAxMzg5LjA4NzUsMTI5Mi45NzgzIEwgMTM4Mi41MzksMTI2OS40MjU0IHoiIHN0eWxlPSJmaWxsOm5vbmU7ZmlsbC1ydWxlOmV2ZW5vZGQ7c3Ryb2tlOiMwMDAwMDA7c3Ryb2tlLXdpZHRoOjIuNDcyOTQ1MjE7c3Ryb2tlLWxpbmVjYXA6YnV0dDtzdHJva2UtbGluZWpvaW46bWl0ZXI7c3Ryb2tlLW1pdGVybGltaXQ6NDtzdHJva2UtZGFzaGFycmF5Om5vbmU7c3Ryb2tlLW9wYWNpdHk6MSIvPiYjeGE7ICAgICAgICA8cGF0aCBpZD0icGF0aDIyMzAwIiBkPSJNIDEzOTguNzYzNSwxMjg0LjI4MTMgQyAxMzgwLjc5OTIsMTMwMy42ODEgMTM4MC43OTkyLDEzMDMuNjgxIDEzODAuNzk5MiwxMzAzLjY4MSBMIDEzODAuNzk5MiwxMzAzLjY4MSBMIDEzODAuNzk5MiwxMzAzLjY4MSBMIDEzODAuNzk5MiwxMzAzLjY4MSIgc3R5bGU9ImZpbGw6bm9uZTtmaWxsLXJ1bGU6ZXZlbm9kZDtzdHJva2U6IzAwMDAwMDtzdHJva2Utd2lkdGg6Mi40NzI5NDUyMTtzdHJva2UtbGluZWNhcDpidXR0O3N0cm9rZS1saW5lam9pbjptaXRlcjtzdHJva2UtbWl0ZXJsaW1pdDo0O3N0cm9rZS1kYXNoYXJyYXk6bm9uZTtzdHJva2Utb3BhY2l0eToxIi8+JiN4YTsgICAgICAgIDxwYXRoIGlkPSJwYXRoMjIzMDIiIGQ9Ik0gMTM2Mi4yMzE3LDEyNjguMTQyMiBDIDEzOTQuNzAyNywxMjk4LjIxMDcgMTQwMi4xOTAxLDEzMDQuODg0MyAxNDAyLjE5MDEsMTMwNC44ODQzIiBzdHlsZT0iZmlsbDpub25lO2ZpbGwtcnVsZTpldmVub2RkO3N0cm9rZTojMDAwMDAwO3N0cm9rZS13aWR0aDoyLjQ3Mjk0NTkzO3N0cm9rZS1saW5lY2FwOmJ1dHQ7c3Ryb2tlLWxpbmVqb2luOm1pdGVyO3N0cm9rZS1taXRlcmxpbWl0OjQ7c3Ryb2tlLWRhc2hhcnJheTpub25lO3N0cm9rZS1vcGFjaXR5OjEiLz4mI3hhOyAgICAgICAgPHBhdGggaWQ9InBhdGgyMjMwNCIgZD0iTSAxMzQyLjQ2MSwxMzQ2Ljk1MjUgQyAxMzU5Ljg5ODQsMTMyOC4xMjE5IDEzNTkuODk4NCwxMzI4LjEyMTkgMTM1OS44OTg0LDEzMjguMTIxOSBMIDEzMzUuOTEyNCwxMzIzLjM5OTYgTCAxMzQyLjQ2MSwxMzQ2Ljk1MjUgeiIgc3R5bGU9ImZpbGw6bm9uZTtmaWxsLXJ1bGU6ZXZlbm9kZDtzdHJva2U6IzAwMDAwMDtzdHJva2Utd2lkdGg6Mi40NzI5NDUyMTtzdHJva2UtbGluZWNhcDpidXR0O3N0cm9rZS1saW5lam9pbjptaXRlcjtzdHJva2UtbWl0ZXJsaW1pdDo0O3N0cm9rZS1kYXNoYXJyYXk6bm9uZTtzdHJva2Utb3BhY2l0eToxIi8+JiN4YTsgICAgICAgIDxwYXRoIGlkPSJwYXRoMjIzMDYiIGQ9Ik0gMTMyNi4yMzY1LDEzMzIuMDk2NSBDIDEzNDQuMjAwNywxMzEyLjY5NjggMTM0NC4yMDA3LDEzMTIuNjk2OCAxMzQ0LjIwMDcsMTMxMi42OTY4IEwgMTM0NC4yMDA3LDEzMTIuNjk2OCBMIDEzNDQuMjAwNywxMzEyLjY5NjggTCAxMzQ0LjIwMDcsMTMxMi42OTY4IiBzdHlsZT0iZmlsbDpub25lO2ZpbGwtcnVsZTpldmVub2RkO3N0cm9rZTojMDAwMDAwO3N0cm9rZS13aWR0aDoyLjQ3Mjk0NTIxO3N0cm9rZS1saW5lY2FwOmJ1dHQ7c3Ryb2tlLWxpbmVqb2luOm1pdGVyO3N0cm9rZS1taXRlcmxpbWl0OjQ7c3Ryb2tlLWRhc2hhcnJheTpub25lO3N0cm9rZS1vcGFjaXR5OjEiLz4mI3hhOyAgICAgICAgPHBhdGggaWQ9InBhdGgyMjMwOCIgZD0iTSAxMzY0LjU1ODgsMTM0OS43MDA2IEMgMTMzMi4wODc3LDEzMTkuNjMyIDEzMjIuOTcyNSwxMzEwLjM1NDEgMTMyMi45NzI1LDEzMTAuMzU0MSIgc3R5bGU9ImZpbGw6bm9uZTtmaWxsLXJ1bGU6ZXZlbm9kZDtzdHJva2U6IzAwMDAwMDtzdHJva2Utd2lkdGg6Mi40NzI5NDU5MztzdHJva2UtbGluZWNhcDpidXR0O3N0cm9rZS1saW5lam9pbjptaXRlcjtzdHJva2UtbWl0ZXJsaW1pdDo0O3N0cm9rZS1kYXNoYXJyYXk6bm9uZTtzdHJva2Utb3BhY2l0eToxIi8+JiN4YTsgICAgICA8L2c+JiN4YTsgICAgICA8ZyBpZD0iZzIzNzUiIHRyYW5zZm9ybT0idHJhbnNsYXRlKDEwNiwwKSIgc3R5bGU9ImZpbGw6IzAwZmZmZiI+JiN4YTsgICAgICAgIDxyZWN0IHk9IjY5OS4zNDM4NyIgeD0iMTQ1Ny40NDUyIiBoZWlnaHQ9IjEzNi4wMTk3IiB3aWR0aD0iMTQxLjU4ODg4IiBpZD0icmVjdDMxNDQiIHN0eWxlPSJvcGFjaXR5OjE7ZmlsbDojMDBmZmZmO2ZpbGwtb3BhY2l0eToxO2ZpbGwtcnVsZTpub256ZXJvO3N0cm9rZTojMDAwMDAwO3N0cm9rZS13aWR0aDoxLjg5MjU0NDk4O3N0cm9rZS1saW5lY2FwOnNxdWFyZTtzdHJva2UtbGluZWpvaW46bWl0ZXI7c3Ryb2tlLW1pdGVybGltaXQ6NDtzdHJva2UtZGFzaGFycmF5OjExLjM1NTI3MDAxLCAxLjg5MjU0NTtzdHJva2UtZGFzaG9mZnNldDowO3N0cm9rZS1vcGFjaXR5OjEiLz4mI3hhOyAgICAgICAgPGcgdHJhbnNmb3JtPSJ0cmFuc2xhdGUoMjg5LjI1LC0zMTEuODEyODIpIiBpZD0iZzI2MDIzIiBzdHlsZT0iZmlsbDojMDBmZmZmIj4mI3hhOyAgICAgICAgICA8cGF0aCBzdHlsZT0iZmlsbDojMDBmZmZmO2ZpbGwtcnVsZTpldmVub2RkO3N0cm9rZTojMDAwMDAwO3N0cm9rZS13aWR0aDoyLjU7c3Ryb2tlLWxpbmVjYXA6YnV0dDtzdHJva2UtbGluZWpvaW46bWl0ZXI7c3Ryb2tlLW1pdGVybGltaXQ6NDtzdHJva2UtZGFzaGFycmF5Om5vbmU7c3Ryb2tlLW9wYWNpdHk6MSIgZD0iTSAxMjAwLDEwODAuNjg5IEwgMTI4MCwxMDgwLjY4OSIgaWQ9InBhdGgyMzExMCIvPiYjeGE7ICAgICAgICAgIDxwYXRoIHN0eWxlPSJmaWxsOiMwMGZmZmY7ZmlsbC1ydWxlOmV2ZW5vZGQ7c3Ryb2tlOiMwMDAwMDA7c3Ryb2tlLXdpZHRoOjIuNTtzdHJva2UtbGluZWNhcDpidXR0O3N0cm9rZS1saW5lam9pbjptaXRlcjtzdHJva2UtbWl0ZXJsaW1pdDo0O3N0cm9rZS1kYXNoYXJyYXk6bm9uZTtzdHJva2Utb3BhY2l0eToxIiBkPSJNIDEyMzAsMTA4MC42ODkgTCAxMjMwLDEwNjAuNjg5IEwgMTI2MCwxMDgwLjY4OSIgaWQ9InBhdGgyNDA4MSIvPiYjeGE7ICAgICAgICAgIDxwYXRoIHN0eWxlPSJmaWxsOiMwMGZmZmY7ZmlsbC1ydWxlOmV2ZW5vZGQ7c3Ryb2tlOiMwMDAwMDA7c3Ryb2tlLXdpZHRoOjIuNDYyOTU5Nzc7c3Ryb2tlLWxpbmVjYXA6YnV0dDtzdHJva2UtbGluZWpvaW46bWl0ZXI7c3Ryb2tlLW1pdGVybGltaXQ6NDtzdHJva2UtZGFzaGFycmF5Om5vbmU7c3Ryb2tlLW9wYWNpdHk6MSIgZD0iTSAxMjU5LjUwMDUsMTA1OC40NTIxIEwgMTI1OS41MDA1LDExMDIuNzcwMyIgaWQ9InBhdGgyNTA1MiIvPiYjeGE7ICAgICAgICA8L2c+JiN4YTsgICAgICA8L2c+JiN4YTsgICAgICA8cmVjdCBzdHlsZT0iZmlsbDojZmY1NTU1O2ZpbGwtb3BhY2l0eToxO2ZpbGwtcnVsZTpub256ZXJvO3N0cm9rZTojMDAwMDAwO3N0cm9rZS13aWR0aDoxLjg5MjU0NDk4O3N0cm9rZS1saW5lY2FwOnNxdWFyZTtzdHJva2UtbGluZWpvaW46bWl0ZXI7c3Ryb2tlLW1pdGVybGltaXQ6NDtzdHJva2UtZGFzaGFycmF5OjExLjM1NTI3MDAxLCAxLjg5MjU0NTtzdHJva2UtZGFzaG9mZnNldDowO3N0cm9rZS1vcGFjaXR5OjEiIGlkPSJyZWN0MjEzMDYiIHdpZHRoPSIxNDEuNTg4ODgiIGhlaWdodD0iMTM2LjAxOTciIHg9IjE1NjMuNDQ1MiIgeT0iMjAxLjY3MjkzIi8+JiN4YTsgICAgICA8ZyBpZD0iZzIzMTA1IiB0cmFuc2Zvcm09InRyYW5zbGF0ZSgzOTcuOTk5OTcsLTkyOCkiPiYjeGE7ICAgICAgICA8cGF0aCBpZD0icGF0aDIzMDkwIiBkPSJNIDEyNzMuMTM5MywxMjM5LjMyMjUgTCAxMjcxLjY2OTQsMTI0MC4yOTkzIEwgMTI3MC4xOTk1LDEyNDEuMjMxNyBMIDEyNjguOTM5NiwxMjQyLjExOTcgTCAxMjY3LjQ2OTcsMTI0Mi45NjM0IEwgMTI2NS45OTk4LDEyNDMuNzYyNiBMIDEyNjQuNzM5OSwxMjQ0LjQ3MyBMIDEyNjMuMjcsMTI0NS4wOTQ2IEwgMTI2MS44MDAxLDEyNDUuNjI3NCBMIDEyNjAuNTQwMiwxMjQ2LjAyNyBMIDEyNTkuMDcwMywxMjQ2LjMzNzggTCAxMjU3LjYwMDQsMTI0Ni41NTk4IEwgMTI1Ni4zNDA1LDEyNDYuNjA0MiBMIDEyNTQuODcwNiwxMjQ2LjU1OTggTCAxMjUzLjQwMDcsMTI0Ni40MjY2IEwgMTI1Mi4xNDA4LDEyNDYuMTE1OCBMIDEyNTAuNjcwOSwxMjQ1LjcxNjIgTCAxMjQ5LjIwMSwxMjQ1LjIyNzggTCAxMjQ3LjczMTEsMTI0NC42MDYyIEwgMTI0Ni40NzEyLDEyNDMuOTQwMiBMIDEyNDUuMDAxMywxMjQzLjE4NTQgTCAxMjQzLjUzMTQsMTI0Mi4zNDE4IEwgMTI0Mi4yNzE1LDEyNDEuNDUzNyBMIDEyNDAuODAxNiwxMjQwLjUyMTMgTCAxMjM5LjMzMTcsMTIzOS41ODg5IEwgMTIzOC4wNzE4LDEyMzguNjEyMSBMIDEyMzYuNjAxOSwxMjM3LjY3OTcgTCAxMjM1LjEzMjEsMTIzNi43NDczIEwgMTIzMy44NzIxLDEyMzUuODU5MyBMIDEyMzIuNDAyMiwxMjM1LjAxNTcgTCAxMjMwLjkzMjQsMTIzNC4yNjA5IEwgMTIyOS42NzI0LDEyMzMuNTUwNSBMIDEyMjguMjAyNSwxMjMyLjk3MzMgTCAxMjI2LjczMjYsMTIzMi40ODQ5IEwgMTIyNS4yNjI4LDEyMzIuMDg1MyBMIDEyMjQuMDAyOCwxMjMxLjc3NDUgTCAxMjIyLjUzMjksMTIzMS42NDEzIEwgMTIyMS4wNjMxLDEyMzEuNTk2OCBMIDEyMTkuODAzMSwxMjMxLjY0MTMgTCAxMjE4LjMzMzIsMTIzMS44NjMzIEwgMTIxNi44NjMzLDEyMzIuMTc0MSBMIDEyMTUuNjAzNCwxMjMyLjU3MzcgTCAxMjE0LjEzMzUsMTIzMy4xMDY1IEwgMTIxMi42NjM2LDEyMzMuNzI4MSBMIDEyMTEuNDAzNywxMjM0LjQzODUgTCAxMjA5LjkzMzgsMTIzNS4yMzc3IEwgMTIwOC40NjM5LDEyMzYuMDgxMyBMIDEyMDcuMjA0LDEyMzYuOTY5MyBMIDEyMDUuNzM0MSwxMjM3LjkwMTcgTCAxMjAzLjY0OTgsMTIzOS4zMDA4IiBzdHlsZT0iY29sb3I6IzAwODAwMDtmaWxsOm5vbmU7c3Ryb2tlOiMwMDAwMDA7c3Ryb2tlLXdpZHRoOjMuMTY5NTM1NDtzdHJva2UtbWl0ZXJsaW1pdDo0O3N0cm9rZS1kYXNoYXJyYXk6bm9uZTtzdHJva2Utb3BhY2l0eToxIi8+JiN4YTsgICAgICAgIDxwYXRoIGlkPSJwYXRoMjMwOTIiIGQ9Ik0gMTI3MS4wNzQ0LDEyMDcuMzcyOCBMIDEyNjkuNjA0NSwxMjA4LjM0OTYgTCAxMjY4LjEzNDUsMTIwOS4yODIgTCAxMjY2Ljg3NDYsMTIxMC4xNyBMIDEyNjUuNDA0OCwxMjExLjAxMzYgTCAxMjYzLjkzNDksMTIxMS44MTI5IEwgMTI2Mi42NzQ5LDEyMTIuNTIzMyBMIDEyNjEuMjA1LDEyMTMuMTQ0OSBMIDEyNTkuNzM1MSwxMjEzLjY3NzcgTCAxMjU4LjQ3NTMsMTIxNC4wNzczIEwgMTI1Ny4wMDU0LDEyMTQuMzg4MSBMIDEyNTUuNTM1NCwxMjE0LjYxMDEgTCAxMjU0LjI3NTUsMTIxNC42NTQ1IEwgMTI1Mi44MDU3LDEyMTQuNjEwMSBMIDEyNTEuMzM1OCwxMjE0LjQ3NjkgTCAxMjUwLjA3NTgsMTIxNC4xNjYxIEwgMTI0OC42MDU5LDEyMTMuNzY2NSBMIDEyNDcuMTM2MSwxMjEzLjI3ODEgTCAxMjQ1LjY2NjIsMTIxMi42NTY1IEwgMTI0NC40MDYyLDEyMTEuOTkwNSBMIDEyNDIuOTM2MywxMjExLjIzNTcgTCAxMjQxLjQ2NjQsMTIxMC4zOTIxIEwgMTI0MC4yMDY2LDEyMDkuNTA0IEwgMTIzOC43MzY3LDEyMDguNTcxNiBMIDEyMzcuMjY2NywxMjA3LjYzOTIgTCAxMjM2LjAwNjgsMTIwNi42NjI0IEwgMTIzNC41MzcsMTIwNS43MyBMIDEyMzMuMDY3MSwxMjA0Ljc5NzYgTCAxMjMxLjgwNzEsMTIwMy45MDk2IEwgMTIzMC4zMzcyLDEyMDMuMDY2IEwgMTIyOC44Njc0LDEyMDIuMzExMiBMIDEyMjcuNjA3NSwxMjAxLjYwMDggTCAxMjI2LjEzNzUsMTIwMS4wMjM2IEwgMTIyNC42Njc2LDEyMDAuNTM1MiBMIDEyMjMuMTk3OCwxMjAwLjEzNTUgTCAxMjIxLjkzNzksMTE5OS44MjQ4IEwgMTIyMC40NjgsMTE5OS42OTE1IEwgMTIxOC45OTgsMTE5OS42NDcxIEwgMTIxNy43MzgxLDExOTkuNjkxNSBMIDEyMTYuMjY4MywxMTk5LjkxMzUgTCAxMjE0Ljc5ODQsMTIwMC4yMjQzIEwgMTIxMy41Mzg0LDEyMDAuNjIzOSBMIDEyMTIuMDY4NSwxMjAxLjE1NjggTCAxMjEwLjU5ODcsMTIwMS43Nzg0IEwgMTIwOS4zMzg4LDEyMDIuNDg4OCBMIDEyMDcuODY4OCwxMjAzLjI4OCBMIDEyMDYuMzk4OSwxMjA0LjEzMTYgTCAxMjA1LjEzOSwxMjA1LjAxOTYgTCAxMjAzLjY2OTIsMTIwNS45NTIgTCAxMjAxLjU4NDgsMTIwNy4zNTExIiBzdHlsZT0iY29sb3I6IzAwODAwMDtmaWxsOm5vbmU7c3Ryb2tlOiMwMDAwMDA7c3Ryb2tlLXdpZHRoOjMuMTY5NTM1NDtzdHJva2UtbWl0ZXJsaW1pdDo0O3N0cm9rZS1kYXNoYXJyYXk6bm9uZTtzdHJva2Utb3BhY2l0eToxIi8+JiN4YTsgICAgICAgIDxwYXRoIGlkPSJwYXRoMjMwOTQiIGQ9Ik0gMTI3Mi4yNTYxLDEyMjMuNjk1MiBMIDEyNzAuNzg2MiwxMjI0LjY3MiBMIDEyNjkuMzE2NCwxMjI1LjYwNDQgTCAxMjY4LjA1NjQsMTIyNi40OTI0IEwgMTI2Ni41ODY1LDEyMjcuMzM2IEwgMTI2NS4xMTY2LDEyMjguMTM1MiBMIDEyNjMuODU2OCwxMjI4Ljg0NTYgTCAxMjYyLjM4NjgsMTIyOS40NjcyIEwgMTI2MC45MTY5LDEyMzAgTCAxMjU5LjY1NywxMjMwLjM5OTcgTCAxMjU4LjE4NzIsMTIzMC43MTA1IEwgMTI1Ni43MTczLDEyMzAuOTMyNSBMIDEyNTUuNDU3MywxMjMwLjk3NjkgTCAxMjUzLjk4NzQsMTIzMC45MzI1IEwgMTI1Mi41MTc1LDEyMzAuNzk5MyBMIDEyNTEuMjU3NywxMjMwLjQ4ODQgTCAxMjQ5Ljc4NzcsMTIzMC4wODg4IEwgMTI0OC4zMTc4LDEyMjkuNjAwNCBMIDEyNDYuODQ3OSwxMjI4Ljk3ODggTCAxMjQ1LjU4OCwxMjI4LjMxMjggTCAxMjQ0LjExODEsMTIyNy41NTggTCAxMjQyLjY0ODIsMTIyNi43MTQ0IEwgMTI0MS4zODgzLDEyMjUuODI2NCBMIDEyMzkuOTE4NCwxMjI0Ljg5NCBMIDEyMzguNDQ4NSwxMjIzLjk2MTYgTCAxMjM3LjE4ODYsMTIyMi45ODQ4IEwgMTIzNS43MTg3LDEyMjIuMDUyNCBMIDEyMzQuMjQ4OCwxMjIxLjEyIEwgMTIzMi45ODg5LDEyMjAuMjMxOSBMIDEyMzEuNTE5LDEyMTkuMzg4MyBMIDEyMzAuMDQ5MSwxMjE4LjYzMzUgTCAxMjI4Ljc4OTIsMTIxNy45MjMxIEwgMTIyNy4zMTkzLDEyMTcuMzQ1OSBMIDEyMjUuODQ5NCwxMjE2Ljg1NzUgTCAxMjI0LjM3OTUsMTIxNi40NTc5IEwgMTIyMy4xMTk2LDEyMTYuMTQ3MSBMIDEyMjEuNjQ5NywxMjE2LjAxMzkgTCAxMjIwLjE3OTgsMTIxNS45Njk1IEwgMTIxOC45MTk5LDEyMTYuMDEzOSBMIDEyMTcuNDUsMTIxNi4yMzU5IEwgMTIxNS45ODAxLDEyMTYuNTQ2NyBMIDEyMTQuNzIwMiwxMjE2Ljk0NjMgTCAxMjEzLjI1MDMsMTIxNy40NzkxIEwgMTIxMS43ODA0LDEyMTguMTAwNyBMIDEyMTAuNTIwNSwxMjE4LjgxMTEgTCAxMjA5LjA1MDYsMTIxOS42MTAzIEwgMTIwNy41ODA3LDEyMjAuNDUzOSBMIDEyMDYuMzIwOCwxMjIxLjM0MiBMIDEyMDQuODUwOSwxMjIyLjI3NDQgTCAxMjAyLjc2NjUsMTIyMy42NzM1IiBzdHlsZT0iY29sb3I6IzAwODAwMDtmaWxsOm5vbmU7c3Ryb2tlOiMwMDAwMDA7c3Ryb2tlLXdpZHRoOjMuMTY5NTM1NDtzdHJva2UtbWl0ZXJsaW1pdDo0O3N0cm9rZS1kYXNoYXJyYXk6bm9uZTtzdHJva2Utb3BhY2l0eToxIi8+JiN4YTsgICAgICA8L2c+JiN4YTsgICAgICA8dGV4dCB4bWw6c3BhY2U9InByZXNlcnZlIiBzdHlsZT0iZm9udC1zaXplOjI0cHg7Zm9udC1zdHlsZTpub3JtYWw7Zm9udC13ZWlnaHQ6bm9ybWFsO2ZpbGw6IzAwMDAwMDtmaWxsLW9wYWNpdHk6MTtzdHJva2U6bm9uZTtzdHJva2Utd2lkdGg6MXB4O3N0cm9rZS1saW5lY2FwOmJ1dHQ7c3Ryb2tlLWxpbmVqb2luOm1pdGVyO3N0cm9rZS1vcGFjaXR5OjE7Zm9udC1mYW1pbHk6QXJpYWwiIHg9IjE2MTAuMjQyMiIgeT0iMjQ1Ljg5NiIgaWQ9InRleHQyNjAyOCI+PHRzcGFuIGlkPSJ0c3BhbjI2MDMwIiB4PSIxNjEwLjI0MjIiIHk9IjI0NS44OTYiPkJGTzwvdHNwYW4+PC90ZXh0PiYjeGE7ICAgICAgPGcgaWQ9ImczMzEyMiIgdHJhbnNmb3JtPSJ0cmFuc2xhdGUoMjgsMCkiPiYjeGE7ICAgICAgICA8cmVjdCB5PSIxOTkuNjQyNDciIHg9IjEwMjIuMzExMyIgaGVpZ2h0PSIxMzYuMDE5NyIgd2lkdGg9IjE0MS41ODg4OCIgaWQ9InJlY3QxOTMwOCIgc3R5bGU9Im9wYWNpdHk6MTtmaWxsOiNkZTc3ZGU7ZmlsbC1vcGFjaXR5OjE7ZmlsbC1ydWxlOm5vbnplcm87c3Ryb2tlOiMwMDAwMDA7c3Ryb2tlLXdpZHRoOjEuODkyNTQ0OTg7c3Ryb2tlLWxpbmVjYXA6c3F1YXJlO3N0cm9rZS1saW5lam9pbjptaXRlcjtzdHJva2UtbWl0ZXJsaW1pdDo0O3N0cm9rZS1kYXNoYXJyYXk6MTEuMzU1MjcwMDEsIDEuODkyNTQ1O3N0cm9rZS1kYXNob2Zmc2V0OjA7c3Ryb2tlLW9wYWNpdHk6MSIvPiYjeGE7ICAgICAgICA8ZyB0cmFuc2Zvcm09Im1hdHJpeCgxLjE4MTcwNTksMCwwLDEuMzYwMTk3LDE3OC44MDc3NCwtOTE0LjYyMDg0KSIgaWQ9ImcyMTI4MiI+JiN4YTsgICAgICAgICAgPHBhdGggc3R5bGU9ImNvbG9yOiMwMDgwMDA7ZmlsbDpub25lO3N0cm9rZTojMDAwMDAwO3N0cm9rZS13aWR0aDoyLjU7c3Ryb2tlLW1pdGVybGltaXQ6NDtzdHJva2UtZGFzaGFycmF5Om5vbmU7c3Ryb2tlLW9wYWNpdHk6MSIgZD0iTSA4MDUuNDk3NDMsOTAyLjYwNzgyIEwgODA0LjI1MzU1LDkwMy4zMjU5NiBMIDgwMy4wMDk2Nyw5MDQuMDExNDUgTCA4MDEuOTQzNSw5MDQuNjY0MyBMIDgwMC42OTk2Miw5MDUuMjg0NTEgTCA3OTkuNDU1NzQsOTA1Ljg3MjA4IEwgNzk4LjM4OTU3LDkwNi4zOTQzNiBMIDc5Ny4xNDU2OSw5MDYuODUxMzYgTCA3OTUuOTAxODEsOTA3LjI0MzA3IEwgNzk0LjgzNTY0LDkwNy41MzY4NiBMIDc5My41OTE3Niw5MDcuNzY1MzYgTCA3OTIuMzQ3ODgsOTA3LjkyODU3IEwgNzkxLjI4MTcxLDkwNy45NjEyMSBMIDc5MC4wMzc4Myw5MDcuOTI4NTcgTCA3ODguNzkzOTUsOTA3LjgzMDY0IEwgNzg3LjcyNzc3LDkwNy42MDIxNCBMIDc4Ni40ODM5LDkwNy4zMDgzNiBMIDc4NS4yNDAwMiw5MDYuOTQ5MjkgTCA3ODMuOTk2MTQsOTA2LjQ5MjI5IEwgNzgyLjkyOTk3LDkwNi4wMDI2NSBMIDc4MS42ODYwOSw5MDUuNDQ3NzMgTCA3ODAuNDQyMjEsOTA0LjgyNzUyIEwgNzc5LjM3NjAzLDkwNC4xNzQ2NiBMIDc3OC4xMzIxNiw5MDMuNDg5MTcgTCA3NzYuODg4MjgsOTAyLjgwMzY3IEwgNzc1LjgyMjEsOTAyLjA4NTUzIEwgNzc0LjU3ODIzLDkwMS40MDAwNCBMIDc3My4zMzQzNiw5MDAuNzE0NTQgTCA3NzIuMjY4MTcsOTAwLjA2MTY5IEwgNzcxLjAyNDI5LDg5OS40NDE0OCBMIDc2OS43ODA0Myw4OTguODg2NTUgTCA3NjguNzE0MjQsODk4LjM2NDI3IEwgNzY3LjQ3MDM2LDg5Ny45Mzk5MiBMIDc2Ni4yMjY0OSw4OTcuNTgwODUgTCA3NjQuOTgyNjIsODk3LjI4NzA2IEwgNzYzLjkxNjQzLDg5Ny4wNTg1NyBMIDc2Mi42NzI1Niw4OTYuOTYwNjQgTCA3NjEuNDI4NjksODk2LjkyNzk5IEwgNzYwLjM2MjUsODk2Ljk2MDY0IEwgNzU5LjExODYzLDg5Ny4xMjM4NSBMIDc1Ny44NzQ3NSw4OTcuMzUyMzUgTCA3NTYuODA4NTcsODk3LjY0NjEzIEwgNzU1LjU2NDcsODk4LjAzNzg0IEwgNzU0LjMyMDgyLDg5OC40OTQ4NCBMIDc1My4yNTQ2NCw4OTkuMDE3MTIgTCA3NTIuMDEwNzcsODk5LjYwNDY5IEwgNzUwLjc2Njg5LDkwMC4yMjQ5IEwgNzQ5LjcwMDcxLDkwMC44Nzc3NiBMIDc0OC40NTY4NCw5MDEuNTYzMjUgTCA3NDYuNjkyOTYsOTAyLjU5MTg0IiBpZD0icGF0aDIxMjg0Ii8+JiN4YTsgICAgICAgICAgPHBhdGggc3R5bGU9ImNvbG9yOiMwMDgwMDA7ZmlsbDpub25lO3N0cm9rZTojMDAwMDAwO3N0cm9rZS13aWR0aDoyLjU7c3Ryb2tlLW1pdGVybGltaXQ6NDtzdHJva2UtZGFzaGFycmF5Om5vbmU7c3Ryb2tlLW9wYWNpdHk6MSIgZD0iTSA4MDMuNzUsODc5LjExODc5IEwgODAyLjUwNjEsODc5LjgzNjkzIEwgODAxLjI2MjIsODgwLjUyMjQyIEwgODAwLjE5Niw4ODEuMTc1MjcgTCA3OTguOTUyMiw4ODEuNzk1NDggTCA3OTcuNzA4Myw4ODIuMzgzMDUgTCA3OTYuNjQyMSw4ODIuOTA1MzMgTCA3OTUuMzk4Miw4ODMuMzYyMzMgTCA3OTQuMTU0Myw4ODMuNzU0MDQgTCA3OTMuMDg4Miw4ODQuMDQ3ODMgTCA3OTEuODQ0Myw4ODQuMjc2MzMgTCA3OTAuNjAwNCw4ODQuNDM5NTQgTCA3ODkuNTM0Miw4ODQuNDcyMTggTCA3ODguMjkwNCw4ODQuNDM5NTQgTCA3ODcuMDQ2NSw4ODQuMzQxNjEgTCA3ODUuOTgwMyw4ODQuMTEzMTEgTCA3ODQuNzM2NCw4ODMuODE5MzMgTCA3ODMuNDkyNiw4ODMuNDYwMjYgTCA3ODIuMjQ4Nyw4ODMuMDAzMjYgTCA3ODEuMTgyNSw4ODIuNTEzNjIgTCA3NzkuOTM4Niw4ODEuOTU4NyBMIDc3OC42OTQ3LDg4MS4zMzg0OSBMIDc3Ny42Mjg2LDg4MC42ODU2MyBMIDc3Ni4zODQ3LDg4MC4wMDAxNCBMIDc3NS4xNDA4LDg3OS4zMTQ2NCBMIDc3NC4wNzQ2LDg3OC41OTY1IEwgNzcyLjgzMDgsODc3LjkxMTAxIEwgNzcxLjU4NjksODc3LjIyNTUxIEwgNzcwLjUyMDcsODc2LjU3MjY2IEwgNzY5LjI3NjgsODc1Ljk1MjQ1IEwgNzY4LjAzMyw4NzUuMzk3NTIgTCA3NjYuOTY2OCw4NzQuODc1MjQgTCA3NjUuNzIyOSw4NzQuNDUwODkgTCA3NjQuNDc5LDg3NC4wOTE4MiBMIDc2My4yMzUyLDg3My43OTgwMyBMIDc2Mi4xNjksODczLjU2OTU0IEwgNzYwLjkyNTEsODczLjQ3MTYxIEwgNzU5LjY4MTIsODczLjQzODk2IEwgNzU4LjYxNSw4NzMuNDcxNjEgTCA3NTcuMzcxMiw4NzMuNjM0ODIgTCA3NTYuMTI3Myw4NzMuODYzMzIgTCA3NTUuMDYxMSw4NzQuMTU3MSBMIDc1My44MTcyLDg3NC41NDg4MSBMIDc1Mi41NzM0LDg3NS4wMDU4MSBMIDc1MS41MDcyLDg3NS41MjgwOSBMIDc1MC4yNjMzLDg3Ni4xMTU2NiBMIDc0OS4wMTk0LDg3Ni43MzU4NyBMIDc0Ny45NTMyLDg3Ny4zODg3MyBMIDc0Ni43MDk0LDg3OC4wNzQyMiBMIDc0NC45NDU1LDg3OS4xMDI4MSIgaWQ9InBhdGgyMTI4NiIvPiYjeGE7ICAgICAgICAgIDxwYXRoIHN0eWxlPSJjb2xvcjojMDA4MDAwO2ZpbGw6bm9uZTtzdHJva2U6IzAwMDAwMDtzdHJva2Utd2lkdGg6Mi41O3N0cm9rZS1taXRlcmxpbWl0OjQ7c3Ryb2tlLWRhc2hhcnJheTpub25lO3N0cm9rZS1vcGFjaXR5OjEiIGQ9Ik0gODA0Ljc1LDg5MS4xMTg3OSBMIDgwMy41MDYxLDg5MS44MzY5MyBMIDgwMi4yNjIzLDg5Mi41MjI0MiBMIDgwMS4xOTYxLDg5My4xNzUyNyBMIDc5OS45NTIyLDg5My43OTU0OCBMIDc5OC43MDgzLDg5NC4zODMwNSBMIDc5Ny42NDIyLDg5NC45MDUzMyBMIDc5Ni4zOTgzLDg5NS4zNjIzMyBMIDc5NS4xNTQ0LDg5NS43NTQwNCBMIDc5NC4wODgyLDg5Ni4wNDc4MyBMIDc5Mi44NDQ0LDg5Ni4yNzYzMyBMIDc5MS42MDA1LDg5Ni40Mzk1NCBMIDc5MC41MzQzLDg5Ni40NzIxOCBMIDc4OS4yOTA0LDg5Ni40Mzk1NCBMIDc4OC4wNDY1LDg5Ni4zNDE2MSBMIDc4Ni45ODA0LDg5Ni4xMTMxMSBMIDc4NS43MzY1LDg5NS44MTkzMyBMIDc4NC40OTI2Miw4OTUuNDYwMjYgTCA3ODMuMjQ4NzQsODk1LjAwMzI2IEwgNzgyLjE4MjU3LDg5NC41MTM2MiBMIDc4MC45Mzg2OSw4OTMuOTU4NyBMIDc3OS42OTQ4MSw4OTMuMzM4NDkgTCA3NzguNjI4NjMsODkyLjY4NTYzIEwgNzc3LjM4NDc2LDg5Mi4wMDAxNCBMIDc3Ni4xNDA4OCw4OTEuMzE0NjQgTCA3NzUuMDc0Nyw4OTAuNTk2NSBMIDc3My44MzA4Myw4ODkuOTExMDEgTCA3NzIuNTg2OTYsODg5LjIyNTUxIEwgNzcxLjUyMDc3LDg4OC41NzI2NiBMIDc3MC4yNzY4OSw4ODcuOTUyNDUgTCA3NjkuMDMzMDMsODg3LjM5NzUyIEwgNzY3Ljk2Njg0LDg4Ni44NzUyNCBMIDc2Ni43MjI5Niw4ODYuNDUwODkgTCA3NjUuNDc5MDksODg2LjA5MTgyIEwgNzY0LjIzNTIyLDg4NS43OTgwMyBMIDc2My4xNjkwMyw4ODUuNTY5NTQgTCA3NjEuOTI1MTYsODg1LjQ3MTYxIEwgNzYwLjY4MTI5LDg4NS40Mzg5NiBMIDc1OS42MTUxLDg4NS40NzE2MSBMIDc1OC4zNzEyMyw4ODUuNjM0ODIgTCA3NTcuMTI3MzUsODg1Ljg2MzMyIEwgNzU2LjA2MTE3LDg4Ni4xNTcxIEwgNzU0LjgxNzMsODg2LjU0ODgxIEwgNzUzLjU3MzQyLDg4Ny4wMDU4MSBMIDc1Mi41MDcyNCw4ODcuNTI4MDkgTCA3NTEuMjYzMzcsODg4LjExNTY2IEwgNzUwLjAxOTQ5LDg4OC43MzU4NyBMIDc0OC45NTMzMSw4ODkuMzg4NzMgTCA3NDcuNzA5NDQsODkwLjA3NDIyIEwgNzQ1Ljk0NTU2LDg5MS4xMDI4MSIgaWQ9InBhdGgyMTI4OCIvPiYjeGE7ICAgICAgICAgIDxwYXRoIHN0eWxlPSJmaWxsOm5vbmU7ZmlsbC1ydWxlOmV2ZW5vZGQ7c3Ryb2tlOiMwMDAwMDA7c3Ryb2tlLXdpZHRoOjIuNTtzdHJva2UtbGluZWNhcDpidXR0O3N0cm9rZS1saW5lam9pbjptaXRlcjtzdHJva2UtbWl0ZXJsaW1pdDo0O3N0cm9rZS1kYXNoYXJyYXk6bm9uZTtzdHJva2Utb3BhY2l0eToxIiBkPSJNIDc3MCw4ODMuMTg4OTYgTCA3ODAsODczLjE4ODk2IiBpZD0icGF0aDIxMjkwIi8+JiN4YTsgICAgICAgICAgPHBhdGggc3R5bGU9ImZpbGw6bm9uZTtmaWxsLXJ1bGU6ZXZlbm9kZDtzdHJva2U6IzAwMDAwMDtzdHJva2Utd2lkdGg6Mi41O3N0cm9rZS1saW5lY2FwOmJ1dHQ7c3Ryb2tlLWxpbmVqb2luOm1pdGVyO3N0cm9rZS1taXRlcmxpbWl0OjQ7c3Ryb2tlLWRhc2hhcnJheTpub25lO3N0cm9rZS1vcGFjaXR5OjEiIGQ9Ik0gNzY4Ljc1LDkwNi4zMzg5NiBMIDc3OC43NSw4OTYuMzM4OTYiIGlkPSJwYXRoMjEyOTIiLz4mI3hhOyAgICAgICAgPC9nPiYjeGE7ICAgICAgICA8dGV4dCBpZD0idGV4dDI2MDMyIiB5PSIyNDMuODk2IiB4PSIxMDQyLjgwNDciIHN0eWxlPSJmb250LXNpemU6MjRweDtmb250LXN0eWxlOm5vcm1hbDtmb250LXdlaWdodDpub3JtYWw7ZmlsbDojMDAwMDAwO2ZpbGwtb3BhY2l0eToxO3N0cm9rZTpub25lO3N0cm9rZS13aWR0aDoxcHg7c3Ryb2tlLWxpbmVjYXA6YnV0dDtzdHJva2UtbGluZWpvaW46bWl0ZXI7c3Ryb2tlLW9wYWNpdHk6MTtmb250LWZhbWlseTpBcmlhbCIgeG1sOnNwYWNlPSJwcmVzZXJ2ZSI+PHRzcGFuIHk9IjI0My44OTYiIHg9IjEwNDIuODA0NyIgaWQ9InRzcGFuMjYwMzQiPkNXLUZpbHRlcjwvdHNwYW4+PC90ZXh0PiYjeGE7ICAgICAgPC9nPiYjeGE7ICAgICAgPGcgaWQ9ImczMzEzMyIgdHJhbnNmb3JtPSJ0cmFuc2xhdGUoMjgsMCkiPiYjeGE7ICAgICAgICA8cmVjdCB5PSI2OTkuMzQzODciIHg9IjEwMjIuMzExMyIgaGVpZ2h0PSIxMzYuMDE5NyIgd2lkdGg9IjE0MS41ODg4OCIgaWQ9InJlY3QzMTUyIiBzdHlsZT0iZmlsbDojZGU3N2RlO2ZpbGwtb3BhY2l0eToxO2ZpbGwtcnVsZTpub256ZXJvO3N0cm9rZTojMDAwMDAwO3N0cm9rZS13aWR0aDoxLjg5MjU0NDk4O3N0cm9rZS1saW5lY2FwOnNxdWFyZTtzdHJva2UtbGluZWpvaW46bWl0ZXI7c3Ryb2tlLW1pdGVybGltaXQ6NDtzdHJva2UtZGFzaGFycmF5OjExLjM1NTI3MDAxLCAxLjg5MjU0NTtzdHJva2UtZGFzaG9mZnNldDowO3N0cm9rZS1vcGFjaXR5OjEiLz4mI3hhOyAgICAgICAgPGcgdHJhbnNmb3JtPSJtYXRyaXgoMS4xODE3MDU5LDAsMCwxLjM2MDE5NywxNzkuNTk5MiwtNDE1Ljk2MDAzKSIgaWQ9ImcyMTI3NSI+JiN4YTsgICAgICAgICAgPHBhdGggc3R5bGU9ImNvbG9yOiMwMDgwMDA7ZmlsbDpub25lO3N0cm9rZTojMDAwMDAwO3N0cm9rZS13aWR0aDoyLjU7c3Ryb2tlLW1pdGVybGltaXQ6NDtzdHJva2UtZGFzaGFycmF5Om5vbmU7c3Ryb2tlLW9wYWNpdHk6MSIgZD0iTSA4MDUuNDk3NDMsOTAyLjYwNzgyIEwgODA0LjI1MzU1LDkwMy4zMjU5NiBMIDgwMy4wMDk2Nyw5MDQuMDExNDUgTCA4MDEuOTQzNSw5MDQuNjY0MyBMIDgwMC42OTk2Miw5MDUuMjg0NTEgTCA3OTkuNDU1NzQsOTA1Ljg3MjA4IEwgNzk4LjM4OTU3LDkwNi4zOTQzNiBMIDc5Ny4xNDU2OSw5MDYuODUxMzYgTCA3OTUuOTAxODEsOTA3LjI0MzA3IEwgNzk0LjgzNTY0LDkwNy41MzY4NiBMIDc5My41OTE3Niw5MDcuNzY1MzYgTCA3OTIuMzQ3ODgsOTA3LjkyODU3IEwgNzkxLjI4MTcxLDkwNy45NjEyMSBMIDc5MC4wMzc4Myw5MDcuOTI4NTcgTCA3ODguNzkzOTUsOTA3LjgzMDY0IEwgNzg3LjcyNzc3LDkwNy42MDIxNCBMIDc4Ni40ODM5LDkwNy4zMDgzNiBMIDc4NS4yNDAwMiw5MDYuOTQ5MjkgTCA3ODMuOTk2MTQsOTA2LjQ5MjI5IEwgNzgyLjkyOTk3LDkwNi4wMDI2NSBMIDc4MS42ODYwOSw5MDUuNDQ3NzMgTCA3ODAuNDQyMjEsOTA0LjgyNzUyIEwgNzc5LjM3NjAzLDkwNC4xNzQ2NiBMIDc3OC4xMzIxNiw5MDMuNDg5MTcgTCA3NzYuODg4MjgsOTAyLjgwMzY3IEwgNzc1LjgyMjEsOTAyLjA4NTUzIEwgNzc0LjU3ODIzLDkwMS40MDAwNCBMIDc3My4zMzQzNiw5MDAuNzE0NTQgTCA3NzIuMjY4MTcsOTAwLjA2MTY5IEwgNzcxLjAyNDI5LDg5OS40NDE0OCBMIDc2OS43ODA0Myw4OTguODg2NTUgTCA3NjguNzE0MjQsODk4LjM2NDI3IEwgNzY3LjQ3MDM2LDg5Ny45Mzk5MiBMIDc2Ni4yMjY0OSw4OTcuNTgwODUgTCA3NjQuOTgyNjIsODk3LjI4NzA2IEwgNzYzLjkxNjQzLDg5Ny4wNTg1NyBMIDc2Mi42NzI1Niw4OTYuOTYwNjQgTCA3NjEuNDI4NjksODk2LjkyNzk5IEwgNzYwLjM2MjUsODk2Ljk2MDY0IEwgNzU5LjExODYzLDg5Ny4xMjM4NSBMIDc1Ny44NzQ3NSw4OTcuMzUyMzUgTCA3NTYuODA4NTcsODk3LjY0NjEzIEwgNzU1LjU2NDcsODk4LjAzNzg0IEwgNzU0LjMyMDgyLDg5OC40OTQ4NCBMIDc1My4yNTQ2NCw4OTkuMDE3MTIgTCA3NTIuMDEwNzcsODk5LjYwNDY5IEwgNzUwLjc2Njg5LDkwMC4yMjQ5IEwgNzQ5LjcwMDcxLDkwMC44Nzc3NiBMIDc0OC40NTY4NCw5MDEuNTYzMjUgTCA3NDYuNjkyOTYsOTAyLjU5MTg0IiBpZD0icGF0aDMwNTEiLz4mI3hhOyAgICAgICAgICA8cGF0aCBzdHlsZT0iY29sb3I6IzAwODAwMDtmaWxsOm5vbmU7c3Ryb2tlOiMwMDAwMDA7c3Ryb2tlLXdpZHRoOjIuNTtzdHJva2UtbWl0ZXJsaW1pdDo0O3N0cm9rZS1kYXNoYXJyYXk6bm9uZTtzdHJva2Utb3BhY2l0eToxIiBkPSJNIDgwMy43NSw4NzkuMTE4NzkgTCA4MDIuNTA2MSw4NzkuODM2OTMgTCA4MDEuMjYyMiw4ODAuNTIyNDIgTCA4MDAuMTk2LDg4MS4xNzUyNyBMIDc5OC45NTIyLDg4MS43OTU0OCBMIDc5Ny43MDgzLDg4Mi4zODMwNSBMIDc5Ni42NDIxLDg4Mi45MDUzMyBMIDc5NS4zOTgyLDg4My4zNjIzMyBMIDc5NC4xNTQzLDg4My43NTQwNCBMIDc5My4wODgyLDg4NC4wNDc4MyBMIDc5MS44NDQzLDg4NC4yNzYzMyBMIDc5MC42MDA0LDg4NC40Mzk1NCBMIDc4OS41MzQyLDg4NC40NzIxOCBMIDc4OC4yOTA0LDg4NC40Mzk1NCBMIDc4Ny4wNDY1LDg4NC4zNDE2MSBMIDc4NS45ODAzLDg4NC4xMTMxMSBMIDc4NC43MzY0LDg4My44MTkzMyBMIDc4My40OTI2LDg4My40NjAyNiBMIDc4Mi4yNDg3LDg4My4wMDMyNiBMIDc4MS4xODI1LDg4Mi41MTM2MiBMIDc3OS45Mzg2LDg4MS45NTg3IEwgNzc4LjY5NDcsODgxLjMzODQ5IEwgNzc3LjYyODYsODgwLjY4NTYzIEwgNzc2LjM4NDcsODgwLjAwMDE0IEwgNzc1LjE0MDgsODc5LjMxNDY0IEwgNzc0LjA3NDYsODc4LjU5NjUgTCA3NzIuODMwOCw4NzcuOTExMDEgTCA3NzEuNTg2OSw4NzcuMjI1NTEgTCA3NzAuNTIwNyw4NzYuNTcyNjYgTCA3NjkuMjc2OCw4NzUuOTUyNDUgTCA3NjguMDMzLDg3NS4zOTc1MiBMIDc2Ni45NjY4LDg3NC44NzUyNCBMIDc2NS43MjI5LDg3NC40NTA4OSBMIDc2NC40NzksODc0LjA5MTgyIEwgNzYzLjIzNTIsODczLjc5ODAzIEwgNzYyLjE2OSw4NzMuNTY5NTQgTCA3NjAuOTI1MSw4NzMuNDcxNjEgTCA3NTkuNjgxMiw4NzMuNDM4OTYgTCA3NTguNjE1LDg3My40NzE2MSBMIDc1Ny4zNzEyLDg3My42MzQ4MiBMIDc1Ni4xMjczLDg3My44NjMzMiBMIDc1NS4wNjExLDg3NC4xNTcxIEwgNzUzLjgxNzIsODc0LjU0ODgxIEwgNzUyLjU3MzQsODc1LjAwNTgxIEwgNzUxLjUwNzIsODc1LjUyODA5IEwgNzUwLjI2MzMsODc2LjExNTY2IEwgNzQ5LjAxOTQsODc2LjczNTg3IEwgNzQ3Ljk1MzIsODc3LjM4ODczIEwgNzQ2LjcwOTQsODc4LjA3NDIyIEwgNzQ0Ljk0NTUsODc5LjEwMjgxIiBpZD0icGF0aDIwMjk4Ii8+JiN4YTsgICAgICAgICAgPHBhdGggc3R5bGU9ImNvbG9yOiMwMDgwMDA7ZmlsbDpub25lO3N0cm9rZTojMDAwMDAwO3N0cm9rZS13aWR0aDoyLjU7c3Ryb2tlLW1pdGVybGltaXQ6NDtzdHJva2UtZGFzaGFycmF5Om5vbmU7c3Ryb2tlLW9wYWNpdHk6MSIgZD0iTSA4MDQuNzUsODkxLjExODc5IEwgODAzLjUwNjEsODkxLjgzNjkzIEwgODAyLjI2MjMsODkyLjUyMjQyIEwgODAxLjE5NjEsODkzLjE3NTI3IEwgNzk5Ljk1MjIsODkzLjc5NTQ4IEwgNzk4LjcwODMsODk0LjM4MzA1IEwgNzk3LjY0MjIsODk0LjkwNTMzIEwgNzk2LjM5ODMsODk1LjM2MjMzIEwgNzk1LjE1NDQsODk1Ljc1NDA0IEwgNzk0LjA4ODIsODk2LjA0NzgzIEwgNzkyLjg0NDQsODk2LjI3NjMzIEwgNzkxLjYwMDUsODk2LjQzOTU0IEwgNzkwLjUzNDMsODk2LjQ3MjE4IEwgNzg5LjI5MDQsODk2LjQzOTU0IEwgNzg4LjA0NjUsODk2LjM0MTYxIEwgNzg2Ljk4MDQsODk2LjExMzExIEwgNzg1LjczNjUsODk1LjgxOTMzIEwgNzg0LjQ5MjYyLDg5NS40NjAyNiBMIDc4My4yNDg3NCw4OTUuMDAzMjYgTCA3ODIuMTgyNTcsODk0LjUxMzYyIEwgNzgwLjkzODY5LDg5My45NTg3IEwgNzc5LjY5NDgxLDg5My4zMzg0OSBMIDc3OC42Mjg2Myw4OTIuNjg1NjMgTCA3NzcuMzg0NzYsODkyLjAwMDE0IEwgNzc2LjE0MDg4LDg5MS4zMTQ2NCBMIDc3NS4wNzQ3LDg5MC41OTY1IEwgNzczLjgzMDgzLDg4OS45MTEwMSBMIDc3Mi41ODY5Niw4ODkuMjI1NTEgTCA3NzEuNTIwNzcsODg4LjU3MjY2IEwgNzcwLjI3Njg5LDg4Ny45NTI0NSBMIDc2OS4wMzMwMyw4ODcuMzk3NTIgTCA3NjcuOTY2ODQsODg2Ljg3NTI0IEwgNzY2LjcyMjk2LDg4Ni40NTA4OSBMIDc2NS40NzkwOSw4ODYuMDkxODIgTCA3NjQuMjM1MjIsODg1Ljc5ODAzIEwgNzYzLjE2OTAzLDg4NS41Njk1NCBMIDc2MS45MjUxNiw4ODUuNDcxNjEgTCA3NjAuNjgxMjksODg1LjQzODk2IEwgNzU5LjYxNTEsODg1LjQ3MTYxIEwgNzU4LjM3MTIzLDg4NS42MzQ4MiBMIDc1Ny4xMjczNSw4ODUuODYzMzIgTCA3NTYuMDYxMTcsODg2LjE1NzEgTCA3NTQuODE3Myw4ODYuNTQ4ODEgTCA3NTMuNTczNDIsODg3LjAwNTgxIEwgNzUyLjUwNzI0LDg4Ny41MjgwOSBMIDc1MS4yNjMzNyw4ODguMTE1NjYgTCA3NTAuMDE5NDksODg4LjczNTg3IEwgNzQ4Ljk1MzMxLDg4OS4zODg3MyBMIDc0Ny43MDk0NCw4OTAuMDc0MjIgTCA3NDUuOTQ1NTYsODkxLjEwMjgxIiBpZD0icGF0aDIwMzAwIi8+JiN4YTsgICAgICAgICAgPHBhdGggc3R5bGU9ImZpbGw6bm9uZTtmaWxsLXJ1bGU6ZXZlbm9kZDtzdHJva2U6IzAwMDAwMDtzdHJva2Utd2lkdGg6Mi41O3N0cm9rZS1saW5lY2FwOmJ1dHQ7c3Ryb2tlLWxpbmVqb2luOm1pdGVyO3N0cm9rZS1taXRlcmxpbWl0OjQ7c3Ryb2tlLWRhc2hhcnJheTpub25lO3N0cm9rZS1vcGFjaXR5OjEiIGQ9Ik0gNzcwLDg4My4xODg5NiBMIDc4MCw4NzMuMTg4OTYiIGlkPSJwYXRoMjAzMDIiLz4mI3hhOyAgICAgICAgICA8cGF0aCBzdHlsZT0iZmlsbDpub25lO2ZpbGwtcnVsZTpldmVub2RkO3N0cm9rZTojMDAwMDAwO3N0cm9rZS13aWR0aDoyLjU7c3Ryb2tlLWxpbmVjYXA6YnV0dDtzdHJva2UtbGluZWpvaW46bWl0ZXI7c3Ryb2tlLW1pdGVybGltaXQ6NDtzdHJva2UtZGFzaGFycmF5Om5vbmU7c3Ryb2tlLW9wYWNpdHk6MSIgZD0iTSA3NjguNzUsOTA2LjMzODk2IEwgNzc4Ljc1LDg5Ni4zMzg5NiIgaWQ9InBhdGgyMTI3MyIvPiYjeGE7ICAgICAgICA8L2c+JiN4YTsgICAgICAgIDx0ZXh0IGlkPSJ0ZXh0MjYwMzYiIHk9Ijc0MS45MDc3MSIgeD0iMTA0My41Nzk2IiBzdHlsZT0iZm9udC1zaXplOjI0cHg7Zm9udC1zdHlsZTpub3JtYWw7Zm9udC13ZWlnaHQ6bm9ybWFsO2ZpbGw6IzAwMDAwMDtmaWxsLW9wYWNpdHk6MTtzdHJva2U6bm9uZTtzdHJva2Utd2lkdGg6MXB4O3N0cm9rZS1saW5lY2FwOmJ1dHQ7c3Ryb2tlLWxpbmVqb2luOm1pdGVyO3N0cm9rZS1vcGFjaXR5OjE7Zm9udC1mYW1pbHk6QXJpYWwiIHhtbDpzcGFjZT0icHJlc2VydmUiPjx0c3BhbiB5PSI3NDEuOTA3NzEiIHg9IjEwNDMuNTc5NiIgaWQ9InRzcGFuMjYwMzgiPkZNLUZpbHRlcjwvdHNwYW4+PC90ZXh0PiYjeGE7ICAgICAgPC9nPiYjeGE7ICAgICAgPHJlY3Qgc3R5bGU9ImZpbGw6I2RlNzdkZTtmaWxsLW9wYWNpdHk6MTtmaWxsLXJ1bGU6bm9uemVybztzdHJva2U6IzAwMDAwMDtzdHJva2Utd2lkdGg6MS44OTI1NDQ5ODtzdHJva2UtbGluZWNhcDpzcXVhcmU7c3Ryb2tlLWxpbmVqb2luOm1pdGVyO3N0cm9rZS1taXRlcmxpbWl0OjQ7c3Ryb2tlLWRhc2hhcnJheToxMS4zNTUyNzAwMSwgMS44OTI1NDU7c3Ryb2tlLWRhc2hvZmZzZXQ6MDtzdHJva2Utb3BhY2l0eToxIiBpZD0icmVjdDMxNTAiIHdpZHRoPSIxNDEuNTg4ODgiIGhlaWdodD0iMTM2LjAxOTciIHg9IjEwNTAuMzExIiB5PSI0NTEuMjIyOTkiLz4mI3hhOyAgICAgIDxnIGlkPSJnMjEyOTQiIHRyYW5zZm9ybT0ibWF0cml4KDEuMTgxNzA1OSwwLDAsMS4zNjAxOTcsMjA2LjA1MDgxLC02NjUuMDA2NDYpIj4mI3hhOyAgICAgICAgPHBhdGggaWQ9InBhdGgyMTI5NiIgZD0iTSA4MDUuNDk3NDMsOTAyLjYwNzgyIEwgODA0LjI1MzU1LDkwMy4zMjU5NiBMIDgwMy4wMDk2Nyw5MDQuMDExNDUgTCA4MDEuOTQzNSw5MDQuNjY0MyBMIDgwMC42OTk2Miw5MDUuMjg0NTEgTCA3OTkuNDU1NzQsOTA1Ljg3MjA4IEwgNzk4LjM4OTU3LDkwNi4zOTQzNiBMIDc5Ny4xNDU2OSw5MDYuODUxMzYgTCA3OTUuOTAxODEsOTA3LjI0MzA3IEwgNzk0LjgzNTY0LDkwNy41MzY4NiBMIDc5My41OTE3Niw5MDcuNzY1MzYgTCA3OTIuMzQ3ODgsOTA3LjkyODU3IEwgNzkxLjI4MTcxLDkwNy45NjEyMSBMIDc5MC4wMzc4Myw5MDcuOTI4NTcgTCA3ODguNzkzOTUsOTA3LjgzMDY0IEwgNzg3LjcyNzc3LDkwNy42MDIxNCBMIDc4Ni40ODM5LDkwNy4zMDgzNiBMIDc4NS4yNDAwMiw5MDYuOTQ5MjkgTCA3ODMuOTk2MTQsOTA2LjQ5MjI5IEwgNzgyLjkyOTk3LDkwNi4wMDI2NSBMIDc4MS42ODYwOSw5MDUuNDQ3NzMgTCA3ODAuNDQyMjEsOTA0LjgyNzUyIEwgNzc5LjM3NjAzLDkwNC4xNzQ2NiBMIDc3OC4xMzIxNiw5MDMuNDg5MTcgTCA3NzYuODg4MjgsOTAyLjgwMzY3IEwgNzc1LjgyMjEsOTAyLjA4NTUzIEwgNzc0LjU3ODIzLDkwMS40MDAwNCBMIDc3My4zMzQzNiw5MDAuNzE0NTQgTCA3NzIuMjY4MTcsOTAwLjA2MTY5IEwgNzcxLjAyNDI5LDg5OS40NDE0OCBMIDc2OS43ODA0Myw4OTguODg2NTUgTCA3NjguNzE0MjQsODk4LjM2NDI3IEwgNzY3LjQ3MDM2LDg5Ny45Mzk5MiBMIDc2Ni4yMjY0OSw4OTcuNTgwODUgTCA3NjQuOTgyNjIsODk3LjI4NzA2IEwgNzYzLjkxNjQzLDg5Ny4wNTg1NyBMIDc2Mi42NzI1Niw4OTYuOTYwNjQgTCA3NjEuNDI4NjksODk2LjkyNzk5IEwgNzYwLjM2MjUsODk2Ljk2MDY0IEwgNzU5LjExODYzLDg5Ny4xMjM4NSBMIDc1Ny44NzQ3NSw4OTcuMzUyMzUgTCA3NTYuODA4NTcsODk3LjY0NjEzIEwgNzU1LjU2NDcsODk4LjAzNzg0IEwgNzU0LjMyMDgyLDg5OC40OTQ4NCBMIDc1My4yNTQ2NCw4OTkuMDE3MTIgTCA3NTIuMDEwNzcsODk5LjYwNDY5IEwgNzUwLjc2Njg5LDkwMC4yMjQ5IEwgNzQ5LjcwMDcxLDkwMC44Nzc3NiBMIDc0OC40NTY4NCw5MDEuNTYzMjUgTCA3NDYuNjkyOTYsOTAyLjU5MTg0IiBzdHlsZT0iY29sb3I6IzAwODAwMDtmaWxsOm5vbmU7c3Ryb2tlOiMwMDAwMDA7c3Ryb2tlLXdpZHRoOjIuNTtzdHJva2UtbWl0ZXJsaW1pdDo0O3N0cm9rZS1kYXNoYXJyYXk6bm9uZTtzdHJva2Utb3BhY2l0eToxIi8+JiN4YTsgICAgICAgIDxwYXRoIGlkPSJwYXRoMjEyOTgiIGQ9Ik0gODAzLjc1LDg3OS4xMTg3OSBMIDgwMi41MDYxLDg3OS44MzY5MyBMIDgwMS4yNjIyLDg4MC41MjI0MiBMIDgwMC4xOTYsODgxLjE3NTI3IEwgNzk4Ljk1MjIsODgxLjc5NTQ4IEwgNzk3LjcwODMsODgyLjM4MzA1IEwgNzk2LjY0MjEsODgyLjkwNTMzIEwgNzk1LjM5ODIsODgzLjM2MjMzIEwgNzk0LjE1NDMsODgzLjc1NDA0IEwgNzkzLjA4ODIsODg0LjA0NzgzIEwgNzkxLjg0NDMsODg0LjI3NjMzIEwgNzkwLjYwMDQsODg0LjQzOTU0IEwgNzg5LjUzNDIsODg0LjQ3MjE4IEwgNzg4LjI5MDQsODg0LjQzOTU0IEwgNzg3LjA0NjUsODg0LjM0MTYxIEwgNzg1Ljk4MDMsODg0LjExMzExIEwgNzg0LjczNjQsODgzLjgxOTMzIEwgNzgzLjQ5MjYsODgzLjQ2MDI2IEwgNzgyLjI0ODcsODgzLjAwMzI2IEwgNzgxLjE4MjUsODgyLjUxMzYyIEwgNzc5LjkzODYsODgxLjk1ODcgTCA3NzguNjk0Nyw4ODEuMzM4NDkgTCA3NzcuNjI4Niw4ODAuNjg1NjMgTCA3NzYuMzg0Nyw4ODAuMDAwMTQgTCA3NzUuMTQwOCw4NzkuMzE0NjQgTCA3NzQuMDc0Niw4NzguNTk2NSBMIDc3Mi44MzA4LDg3Ny45MTEwMSBMIDc3MS41ODY5LDg3Ny4yMjU1MSBMIDc3MC41MjA3LDg3Ni41NzI2NiBMIDc2OS4yNzY4LDg3NS45NTI0NSBMIDc2OC4wMzMsODc1LjM5NzUyIEwgNzY2Ljk2NjgsODc0Ljg3NTI0IEwgNzY1LjcyMjksODc0LjQ1MDg5IEwgNzY0LjQ3OSw4NzQuMDkxODIgTCA3NjMuMjM1Miw4NzMuNzk4MDMgTCA3NjIuMTY5LDg3My41Njk1NCBMIDc2MC45MjUxLDg3My40NzE2MSBMIDc1OS42ODEyLDg3My40Mzg5NiBMIDc1OC42MTUsODczLjQ3MTYxIEwgNzU3LjM3MTIsODczLjYzNDgyIEwgNzU2LjEyNzMsODczLjg2MzMyIEwgNzU1LjA2MTEsODc0LjE1NzEgTCA3NTMuODE3Miw4NzQuNTQ4ODEgTCA3NTIuNTczNCw4NzUuMDA1ODEgTCA3NTEuNTA3Miw4NzUuNTI4MDkgTCA3NTAuMjYzMyw4NzYuMTE1NjYgTCA3NDkuMDE5NCw4NzYuNzM1ODcgTCA3NDcuOTUzMiw4NzcuMzg4NzMgTCA3NDYuNzA5NCw4NzguMDc0MjIgTCA3NDQuOTQ1NSw4NzkuMTAyODEiIHN0eWxlPSJjb2xvcjojMDA4MDAwO2ZpbGw6bm9uZTtzdHJva2U6IzAwMDAwMDtzdHJva2Utd2lkdGg6Mi41O3N0cm9rZS1taXRlcmxpbWl0OjQ7c3Ryb2tlLWRhc2hhcnJheTpub25lO3N0cm9rZS1vcGFjaXR5OjEiLz4mI3hhOyAgICAgICAgPHBhdGggaWQ9InBhdGgyMTMwMCIgZD0iTSA4MDQuNzUsODkxLjExODc5IEwgODAzLjUwNjEsODkxLjgzNjkzIEwgODAyLjI2MjMsODkyLjUyMjQyIEwgODAxLjE5NjEsODkzLjE3NTI3IEwgNzk5Ljk1MjIsODkzLjc5NTQ4IEwgNzk4LjcwODMsODk0LjM4MzA1IEwgNzk3LjY0MjIsODk0LjkwNTMzIEwgNzk2LjM5ODMsODk1LjM2MjMzIEwgNzk1LjE1NDQsODk1Ljc1NDA0IEwgNzk0LjA4ODIsODk2LjA0NzgzIEwgNzkyLjg0NDQsODk2LjI3NjMzIEwgNzkxLjYwMDUsODk2LjQzOTU0IEwgNzkwLjUzNDMsODk2LjQ3MjE4IEwgNzg5LjI5MDQsODk2LjQzOTU0IEwgNzg4LjA0NjUsODk2LjM0MTYxIEwgNzg2Ljk4MDQsODk2LjExMzExIEwgNzg1LjczNjUsODk1LjgxOTMzIEwgNzg0LjQ5MjYyLDg5NS40NjAyNiBMIDc4My4yNDg3NCw4OTUuMDAzMjYgTCA3ODIuMTgyNTcsODk0LjUxMzYyIEwgNzgwLjkzODY5LDg5My45NTg3IEwgNzc5LjY5NDgxLDg5My4zMzg0OSBMIDc3OC42Mjg2Myw4OTIuNjg1NjMgTCA3NzcuMzg0NzYsODkyLjAwMDE0IEwgNzc2LjE0MDg4LDg5MS4zMTQ2NCBMIDc3NS4wNzQ3LDg5MC41OTY1IEwgNzczLjgzMDgzLDg4OS45MTEwMSBMIDc3Mi41ODY5Niw4ODkuMjI1NTEgTCA3NzEuNTIwNzcsODg4LjU3MjY2IEwgNzcwLjI3Njg5LDg4Ny45NTI0NSBMIDc2OS4wMzMwMyw4ODcuMzk3NTIgTCA3NjcuOTY2ODQsODg2Ljg3NTI0IEwgNzY2LjcyMjk2LDg4Ni40NTA4OSBMIDc2NS40NzkwOSw4ODYuMDkxODIgTCA3NjQuMjM1MjIsODg1Ljc5ODAzIEwgNzYzLjE2OTAzLDg4NS41Njk1NCBMIDc2MS45MjUxNiw4ODUuNDcxNjEgTCA3NjAuNjgxMjksODg1LjQzODk2IEwgNzU5LjYxNTEsODg1LjQ3MTYxIEwgNzU4LjM3MTIzLDg4NS42MzQ4MiBMIDc1Ny4xMjczNSw4ODUuODYzMzIgTCA3NTYuMDYxMTcsODg2LjE1NzEgTCA3NTQuODE3Myw4ODYuNTQ4ODEgTCA3NTMuNTczNDIsODg3LjAwNTgxIEwgNzUyLjUwNzI0LDg4Ny41MjgwOSBMIDc1MS4yNjMzNyw4ODguMTE1NjYgTCA3NTAuMDE5NDksODg4LjczNTg3IEwgNzQ4Ljk1MzMxLDg4OS4zODg3MyBMIDc0Ny43MDk0NCw4OTAuMDc0MjIgTCA3NDUuOTQ1NTYsODkxLjEwMjgxIiBzdHlsZT0iY29sb3I6IzAwODAwMDtmaWxsOm5vbmU7c3Ryb2tlOiMwMDAwMDA7c3Ryb2tlLXdpZHRoOjIuNTtzdHJva2UtbWl0ZXJsaW1pdDo0O3N0cm9rZS1kYXNoYXJyYXk6bm9uZTtzdHJva2Utb3BhY2l0eToxIi8+JiN4YTsgICAgICAgIDxwYXRoIGlkPSJwYXRoMjEzMDIiIGQ9Ik0gNzcwLDg4My4xODg5NiBMIDc4MCw4NzMuMTg4OTYiIHN0eWxlPSJmaWxsOm5vbmU7ZmlsbC1ydWxlOmV2ZW5vZGQ7c3Ryb2tlOiMwMDAwMDA7c3Ryb2tlLXdpZHRoOjIuNTtzdHJva2UtbGluZWNhcDpidXR0O3N0cm9rZS1saW5lam9pbjptaXRlcjtzdHJva2UtbWl0ZXJsaW1pdDo0O3N0cm9rZS1kYXNoYXJyYXk6bm9uZTtzdHJva2Utb3BhY2l0eToxIi8+JiN4YTsgICAgICAgIDxwYXRoIGlkPSJwYXRoMjEzMDQiIGQ9Ik0gNzY4Ljc1LDkwNi4zMzg5NiBMIDc3OC43NSw4OTYuMzM4OTYiIHN0eWxlPSJmaWxsOm5vbmU7ZmlsbC1ydWxlOmV2ZW5vZGQ7c3Ryb2tlOiMwMDAwMDA7c3Ryb2tlLXdpZHRoOjIuNTtzdHJva2UtbGluZWNhcDpidXR0O3N0cm9rZS1saW5lam9pbjptaXRlcjtzdHJva2UtbWl0ZXJsaW1pdDo0O3N0cm9rZS1kYXNoYXJyYXk6bm9uZTtzdHJva2Utb3BhY2l0eToxIi8+JiN4YTsgICAgICA8L2c+JiN4YTsgICAgICA8dGV4dCB4bWw6c3BhY2U9InByZXNlcnZlIiBzdHlsZT0iZm9udC1zaXplOjI0cHg7Zm9udC1zdHlsZTpub3JtYWw7Zm9udC13ZWlnaHQ6bm9ybWFsO2ZpbGw6IzAwMDAwMDtmaWxsLW9wYWNpdHk6MTtzdHJva2U6bm9uZTtzdHJva2Utd2lkdGg6MXB4O3N0cm9rZS1saW5lY2FwOmJ1dHQ7c3Ryb2tlLWxpbmVqb2luOm1pdGVyO3N0cm9rZS1vcGFjaXR5OjE7Zm9udC1mYW1pbHk6QXJpYWwiIHg9IjEwNjQuOTIxOSIgeT0iNDk1LjY4NTAzIiBpZD0idGV4dDI2MDQwIj48dHNwYW4gaWQ9InRzcGFuMjYwNDIiIHg9IjEwNjQuOTIxOSIgeT0iNDk1LjY4NTAzIj5TU0ItRmlsdGVyPC90c3Bhbj48L3RleHQ+JiN4YTsgICAgICA8ZyBpZD0iZzMxMDc5IiB0cmFuc2Zvcm09InRyYW5zbGF0ZSgyOCwwKSI+JiN4YTsgICAgICAgIDxyZWN0IHk9Ijk0Ni4xNDg4NiIgeD0iMjgyLjIxOTI3IiBoZWlnaHQ9IjEzNi4wMTk3IiB3aWR0aD0iMTQxLjU4ODg4IiBpZD0icmVjdDMxMzgiIHN0eWxlPSJmaWxsOiNmNGUzZDc7ZmlsbC1vcGFjaXR5OjE7ZmlsbC1ydWxlOm5vbnplcm87c3Ryb2tlOiMwMDAwMDA7c3Ryb2tlLXdpZHRoOjEuODkyNTQ0OTg7c3Ryb2tlLWxpbmVjYXA6c3F1YXJlO3N0cm9rZS1saW5lam9pbjptaXRlcjtzdHJva2UtbWl0ZXJsaW1pdDo0O3N0cm9rZS1kYXNoYXJyYXk6MTEuMzU1MjcwMDEsIDEuODkyNTQ1O3N0cm9rZS1kYXNob2Zmc2V0OjA7c3Ryb2tlLW9wYWNpdHk6MSIvPiYjeGE7ICAgICAgICA8ZyB0cmFuc2Zvcm09Im1hdHJpeCgxLjE4MTcwNTksMCwwLDEuMzYwMTk3LC01MTguNjc3NjYsLTE3MC44Nzc0MikiIGlkPSJnMTM0MjIiPiYjeGE7ICAgICAgICAgIDxyZWN0IHN0eWxlPSJmaWxsOiMwMDAwMDA7ZmlsbC1vcGFjaXR5OjE7c3Ryb2tlOiMwMDAwMDA7c3Ryb2tlLXdpZHRoOjIuMDIyNDEwODc7c3Ryb2tlLW1pdGVybGltaXQ6NDtzdHJva2UtZGFzaGFycmF5Om5vbmU7c3Ryb2tlLW9wYWNpdHk6MSIgaWQ9InJlY3Q1NjY5IiB3aWR0aD0iMi44OTg2NzA3IiBoZWlnaHQ9IjI0LjE4ODY3MSIgeD0iNzMzLjc4MDg4IiB5PSI4ODAuNDIxMDIiLz4mI3hhOyAgICAgICAgICA8cGF0aCBzdHlsZT0iZmlsbDpub25lO2ZpbGwtcnVsZTpldmVub2RkO3N0cm9rZTojMDAwMDAwO3N0cm9rZS13aWR0aDoyLjU7c3Ryb2tlLWxpbmVjYXA6YnV0dDtzdHJva2UtbGluZWpvaW46bWl0ZXI7c3Ryb2tlLW1pdGVybGltaXQ6NDtzdHJva2UtZGFzaGFycmF5Om5vbmU7c3Ryb2tlLW9wYWNpdHk6MSIgZD0iTSA3NDEuNjgwNjUsODcwLjEwMDkyIEMgNzQxLjY4MDY1LDkxMy42NjEwMiA3NDEuNjgwNjUsOTEzLjY2MTAyIDc0MS42ODA2NSw5MTMuNjYxMDIgTCA3NDEuNjgwNjUsOTEzLjY2MTAyIEwgNzQxLjY4MDY1LDkxMy42NjEwMiIgaWQ9InBhdGg1NjcxIi8+JiN4YTsgICAgICAgICAgPHBhdGggc3R5bGU9ImZpbGw6bm9uZTtmaWxsLXJ1bGU6ZXZlbm9kZDtzdHJva2U6IzAwMDAwMDtzdHJva2Utd2lkdGg6Mi43NDU2OTc1O3N0cm9rZS1saW5lY2FwOmJ1dHQ7c3Ryb2tlLWxpbmVqb2luOm1pdGVyO3N0cm9rZS1taXRlcmxpbWl0OjQ7c3Ryb2tlLWRhc2hhcnJheTpub25lO3N0cm9rZS1vcGFjaXR5OjEiIGQ9Ik0gNzMzLjk5NjA2LDg5MS42NTY5MSBDIDcyMS41MDc3Nyw4OTEuNjU2OTEgNzIxLjUwNzc3LDg5MS42NTY5MSA3MjEuNTA3NzcsODkxLjY1NjkxIiBpZD0icGF0aDU2NzMiLz4mI3hhOyAgICAgICAgICA8cGF0aCBzdHlsZT0iZmlsbDpub25lO2ZpbGwtcnVsZTpldmVub2RkO3N0cm9rZTojMDAwMDAwO3N0cm9rZS13aWR0aDoyLjYxNTY3Njg4O3N0cm9rZS1saW5lY2FwOmJ1dHQ7c3Ryb2tlLWxpbmVqb2luOm1pdGVyO3N0cm9rZS1taXRlcmxpbWl0OjQ7c3Ryb2tlLWRhc2hhcnJheTpub25lO3N0cm9rZS1vcGFjaXR5OjEiIGQ9Ik0gNzUzLjYzMTY1LDg5MS42Njk1MSBDIDc0Mi4yOTgxLDg5MS42Njk1MSA3NDIuMjk4MSw4OTEuNjY5NTEgNzQyLjI5ODEsODkxLjY2OTUxIiBpZD0icGF0aDU2NzUiLz4mI3hhOyAgICAgICAgICA8ZyBpZD0iZzEzNDE4IiB0cmFuc2Zvcm09InRyYW5zbGF0ZSgtMTcuOTk5OTk4LDUwLjAwMDAwMykiPiYjeGE7ICAgICAgICAgICAgPHBhdGggaWQ9InBhdGgxMjQzMCIgZD0iTSA3NjkuMjM0NjgsODI2LjgwNTY4IEMgNzcyLjY2NjQ5LDgzMC43NTMwNiA3NzIuNjY2NDksODMwLjc1MzA2IDc3Mi42NjY0OSw4MzAuNzUzMDYgTCA3NzcuMzUwMjUsODIzLjgzODcxIEwgNzY5LjIzNDY4LDgyNi44MDU2OCB6IiBzdHlsZT0iZmlsbDojMDAwMDAwO2ZpbGwtb3BhY2l0eToxO2ZpbGwtcnVsZTpldmVub2RkO3N0cm9rZTojMDAwMDAwO3N0cm9rZS13aWR0aDoxLjI5OTQ5NTM0cHg7c3Ryb2tlLWxpbmVjYXA6YnV0dDtzdHJva2UtbGluZWpvaW46bWl0ZXI7c3Ryb2tlLW9wYWNpdHk6MSIvPiYjeGE7ICAgICAgICAgICAgPHBhdGggaWQ9InBhdGgxMjQyOCIgZD0iTSA3MzYuMjUsODU2LjkzODk2IEMgNzc1Ljg2NTQ4LDgyNS4yNDM1MSA3NzUuODY1NDgsODI1LjI0MzUxIDc3NS44NjU0OCw4MjUuMjQzNTEiIHN0eWxlPSJmaWxsOm5vbmU7ZmlsbC1ydWxlOmV2ZW5vZGQ7c3Ryb2tlOiMwMDAwMDA7c3Ryb2tlLXdpZHRoOjIuNTtzdHJva2UtbGluZWNhcDpidXR0O3N0cm9rZS1saW5lam9pbjptaXRlcjtzdHJva2UtbWl0ZXJsaW1pdDo0O3N0cm9rZS1kYXNoYXJyYXk6bm9uZTtzdHJva2Utb3BhY2l0eToxIi8+JiN4YTsgICAgICAgICAgPC9nPiYjeGE7ICAgICAgICA8L2c+JiN4YTsgICAgICAgIDx0ZXh0IGlkPSJ0ZXh0MjYwNDQiIHk9Ijk3NS4zNjg2NSIgeD0iMzUzLjc5MTE3IiBzdHlsZT0iZm9udC1zaXplOjI0cHg7Zm9udC1zdHlsZTpub3JtYWw7Zm9udC13ZWlnaHQ6bm9ybWFsO3RleHQtYWxpZ246Y2VudGVyO3RleHQtYW5jaG9yOm1pZGRsZTtmaWxsOiMwMDAwMDA7ZmlsbC1vcGFjaXR5OjE7c3Ryb2tlOm5vbmU7c3Ryb2tlLXdpZHRoOjFweDtzdHJva2UtbGluZWNhcDpidXR0O3N0cm9rZS1saW5lam9pbjptaXRlcjtzdHJva2Utb3BhY2l0eToxO2ZvbnQtZmFtaWx5OkFyaWFsIiB4bWw6c3BhY2U9InByZXNlcnZlIj48dHNwYW4geT0iOTc1LjM2ODY1IiB4PSIzNTMuNzkxMTciIGlkPSJ0c3BhbjI2MDQ2Ij5BYnN0aW1tLTwvdHNwYW4+PHRzcGFuIGlkPSJ0c3BhbjI2MDQ4IiB5PSIxMDA1LjM2ODciIHg9IjM1My43OTExNyI+c3Bhbm51bmc8L3RzcGFuPjwvdGV4dD4mI3hhOyAgICAgIDwvZz4mI3hhOyAgICAgIDxnIGlkPSJnMjM5MSIgdHJhbnNmb3JtPSJ0cmFuc2xhdGUoMzYsMCkiPiYjeGE7ICAgICAgICA8ZyB0cmFuc2Zvcm09Im1hdHJpeCgxLjE4MTcwNTksMCwwLDEuMzYwMTk3LC03LjIwMzk2NzUsLTgxLjQ1MTY2MykiIGlkPSJnMTkzMTIiPiYjeGE7ICAgICAgICAgIDxyZWN0IHN0eWxlPSJvcGFjaXR5OjE7ZmlsbDojZjNmNzczO2ZpbGwtb3BhY2l0eToxO2ZpbGwtcnVsZTpub256ZXJvO3N0cm9rZTojMDAwMDAwO3N0cm9rZS13aWR0aDoxLjQ5Mjc2MjA5O3N0cm9rZS1saW5lY2FwOnNxdWFyZTtzdHJva2UtbGluZWpvaW46bWl0ZXI7c3Ryb2tlLW1pdGVybGltaXQ6NDtzdHJva2UtZGFzaGFycmF5OjguOTU2NTcyNTMsIDEuNDkyNzYyMDk7c3Ryb2tlLWRhc2hvZmZzZXQ6MDtzdHJva2Utb3BhY2l0eToxIiBpZD0icmVjdDIxNjAiIHdpZHRoPSIxMTkuODE3MzUiIGhlaWdodD0iMTAwIiB4PSI0MC43NDYzOCIgeT0iMzkxLjYxNTgxIi8+JiN4YTsgICAgICAgICAgPHBhdGggc3R5bGU9ImZpbGw6bm9uZTtmaWxsLXJ1bGU6ZXZlbm9kZDtzdHJva2U6IzAwMDAwMDtzdHJva2Utd2lkdGg6Mi41O3N0cm9rZS1saW5lY2FwOmJ1dHQ7c3Ryb2tlLWxpbmVqb2luOm1pdGVyO3N0cm9rZS1taXRlcmxpbWl0OjQ7c3Ryb2tlLWRhc2hhcnJheTpub25lO3N0cm9rZS1vcGFjaXR5OjEiIGQ9Ik0gNTYuNDY2NzQxLDQwMS42NTU3IEwgNTYuNDY2NzQxLDQ4MS43MjIyMiBMIDE0My41MzMyNiw0NDEuNjg4OTYgTCA1Ni40NjY3NDEsNDAxLjY1NTcgeiIgaWQ9InBhdGgzMTcyIi8+JiN4YTsgICAgICAgIDwvZz4mI3hhOyAgICAgICAgPHRleHQgaWQ9InRleHQyMjg4IiB5PSI1NzQuNDM3MzIiIHg9IjEzOS4wOTc2NiIgc3R5bGU9ImZvbnQtc2l6ZToyNHB4O2ZvbnQtc3R5bGU6bm9ybWFsO2ZvbnQtd2VpZ2h0Om5vcm1hbDtmaWxsOiMwMDAwMDA7ZmlsbC1vcGFjaXR5OjE7c3Ryb2tlOm5vbmU7c3Ryb2tlLXdpZHRoOjFweDtzdHJva2UtbGluZWNhcDpidXR0O3N0cm9rZS1saW5lam9pbjptaXRlcjtzdHJva2Utb3BhY2l0eToxO2ZvbnQtZmFtaWx5OkFyaWFsIiB4bWw6c3BhY2U9InByZXNlcnZlIj48dHNwYW4geT0iNTc0LjQzNzMyIiB4PSIxMzkuMDk3NjYiIGlkPSJ0c3BhbjIyOTAiPkhGPC90c3Bhbj48L3RleHQ+JiN4YTsgICAgICA8L2c+JiN4YTsgICAgICA8ZyBpZD0iZzI0MTIiIHRyYW5zZm9ybT0idHJhbnNsYXRlKDEwNiwwKSI+JiN4YTsgICAgICAgIDxnIHRyYW5zZm9ybT0ibWF0cml4KDEuMTgxNzA1OSwwLDAsMS4zNjAxOTcsMTE3NC41MDIsLTgxLjQ1MTY2MykiIGlkPSJnMTkzMjIiPiYjeGE7ICAgICAgICAgIDxyZWN0IHN0eWxlPSJvcGFjaXR5OjE7ZmlsbDojZjNmNzczO2ZpbGwtb3BhY2l0eToxO2ZpbGwtcnVsZTpub256ZXJvO3N0cm9rZTojMDAwMDAwO3N0cm9rZS13aWR0aDoxLjQ5Mjc2MjA5O3N0cm9rZS1saW5lY2FwOnNxdWFyZTtzdHJva2UtbGluZWpvaW46bWl0ZXI7c3Ryb2tlLW1pdGVybGltaXQ6NDtzdHJva2UtZGFzaGFycmF5OjguOTU2NTcyNTMsIDEuNDkyNzYyMDk7c3Ryb2tlLWRhc2hvZmZzZXQ6MDtzdHJva2Utb3BhY2l0eToxIiBpZD0icmVjdDE5MzI0IiB3aWR0aD0iMTE5LjgxNzM1IiBoZWlnaHQ9IjEwMCIgeD0iNDAuNzQ2MzgiIHk9IjM5MS42MTU4MSIvPiYjeGE7ICAgICAgICAgIDxwYXRoIHN0eWxlPSJmaWxsOm5vbmU7ZmlsbC1ydWxlOmV2ZW5vZGQ7c3Ryb2tlOiMwMDAwMDA7c3Ryb2tlLXdpZHRoOjIuNTtzdHJva2UtbGluZWNhcDpidXR0O3N0cm9rZS1saW5lam9pbjptaXRlcjtzdHJva2UtbWl0ZXJsaW1pdDo0O3N0cm9rZS1kYXNoYXJyYXk6bm9uZTtzdHJva2Utb3BhY2l0eToxIiBkPSJNIDU2LjQ2Njc0MSw0MDEuNjU1NyBMIDU2LjQ2Njc0MSw0ODEuNzIyMjIgTCAxNDMuNTMzMjYsNDQxLjY4ODk2IEwgNTYuNDY2NzQxLDQwMS42NTU3IHoiIGlkPSJwYXRoMTkzMjYiLz4mI3hhOyAgICAgICAgPC9nPiYjeGE7ICAgICAgICA8dGV4dCBpZD0idGV4dDIyOTIiIHk9IjU3Ni4xMTM3MSIgeD0iMTMyMy43Njk1IiBzdHlsZT0iZm9udC1zaXplOjI0cHg7Zm9udC1zdHlsZTpub3JtYWw7Zm9udC13ZWlnaHQ6bm9ybWFsO2ZpbGw6IzAwMDAwMDtmaWxsLW9wYWNpdHk6MTtzdHJva2U6bm9uZTtzdHJva2Utd2lkdGg6MXB4O3N0cm9rZS1saW5lY2FwOmJ1dHQ7c3Ryb2tlLWxpbmVqb2luOm1pdGVyO3N0cm9rZS1vcGFjaXR5OjE7Zm9udC1mYW1pbHk6QXJpYWwiIHhtbDpzcGFjZT0icHJlc2VydmUiPjx0c3BhbiB5PSI1NzYuMTEzNzEiIHg9IjEzMjMuNzY5NSIgaWQ9InRzcGFuMjI5NCI+WkY8L3RzcGFuPjwvdGV4dD4mI3hhOyAgICAgIDwvZz4mI3hhOyAgICAgIDxnIGlkPSJnMjQwNSIgdHJhbnNmb3JtPSJ0cmFuc2xhdGUoMTA2LDApIj4mI3hhOyAgICAgICAgPGcgdHJhbnNmb3JtPSJtYXRyaXgoMS4xODE3MDU5LDAsMCwxLjM2MDE5NywxMTc0LjUwMiwxNjYuNjY5MzQpIiBpZD0iZzE5MzE2Ij4mI3hhOyAgICAgICAgICA8cmVjdCBzdHlsZT0ib3BhY2l0eToxO2ZpbGw6I2YzZjc3MztmaWxsLW9wYWNpdHk6MTtmaWxsLXJ1bGU6bm9uemVybztzdHJva2U6IzAwMDAwMDtzdHJva2Utd2lkdGg6MS40OTI3NjIwOTtzdHJva2UtbGluZWNhcDpzcXVhcmU7c3Ryb2tlLWxpbmVqb2luOm1pdGVyO3N0cm9rZS1taXRlcmxpbWl0OjQ7c3Ryb2tlLWRhc2hhcnJheTo4Ljk1NjU3MjUzLCAxLjQ5Mjc2MjA5O3N0cm9rZS1kYXNob2Zmc2V0OjA7c3Ryb2tlLW9wYWNpdHk6MSIgaWQ9InJlY3QxOTMxOCIgd2lkdGg9IjExOS44MTczNSIgaGVpZ2h0PSIxMDAiIHg9IjQwLjc0NjM4IiB5PSIzOTEuNjE1ODEiLz4mI3hhOyAgICAgICAgICA8cGF0aCBzdHlsZT0iZmlsbDpub25lO2ZpbGwtcnVsZTpldmVub2RkO3N0cm9rZTojMDAwMDAwO3N0cm9rZS13aWR0aDoyLjU7c3Ryb2tlLWxpbmVjYXA6YnV0dDtzdHJva2UtbGluZWpvaW46bWl0ZXI7c3Ryb2tlLW1pdGVybGltaXQ6NDtzdHJva2UtZGFzaGFycmF5Om5vbmU7c3Ryb2tlLW9wYWNpdHk6MSIgZD0iTSA1Ni40NjY3NDEsNDAxLjY1NTcgTCA1Ni40NjY3NDEsNDgxLjcyMjIyIEwgMTQzLjUzMzI2LDQ0MS42ODg5NiBMIDU2LjQ2Njc0MSw0MDEuNjU1NyB6IiBpZD0icGF0aDE5MzIwIi8+JiN4YTsgICAgICAgIDwvZz4mI3hhOyAgICAgICAgPHRleHQgaWQ9InRleHQyMjk2IiB5PSI4MjMuNTAwMTgiIHg9IjEzMjQuMDQ4NyIgc3R5bGU9ImZvbnQtc2l6ZToyNHB4O2ZvbnQtc3R5bGU6bm9ybWFsO2ZvbnQtd2VpZ2h0Om5vcm1hbDtmaWxsOiMwMDAwMDA7ZmlsbC1vcGFjaXR5OjE7c3Ryb2tlOm5vbmU7c3Ryb2tlLXdpZHRoOjFweDtzdHJva2UtbGluZWNhcDpidXR0O3N0cm9rZS1saW5lam9pbjptaXRlcjtzdHJva2Utb3BhY2l0eToxO2ZvbnQtZmFtaWx5OkFyaWFsIiB4bWw6c3BhY2U9InByZXNlcnZlIj48dHNwYW4geT0iODIzLjUwMDE4IiB4PSIxMzI0LjA0ODciIGlkPSJ0c3BhbjIyOTgiPlpGPC90c3Bhbj48L3RleHQ+JiN4YTsgICAgICA8L2c+JiN4YTsgICAgICA8ZyBpZD0iZzI0MjEiIHRyYW5zZm9ybT0idHJhbnNsYXRlKDE1MCwwKSI+JiN4YTsgICAgICAgIDxnIHRyYW5zZm9ybT0ibWF0cml4KDEuMTgxNzA1OSwwLDAsMS4zNjAxOTcsMTYzMi43OTYsLTgxLjQ1MTY2MykiIGlkPSJnMjEzMTAiPiYjeGE7ICAgICAgICAgIDxyZWN0IHN0eWxlPSJvcGFjaXR5OjE7ZmlsbDojZjNmNzczO2ZpbGwtb3BhY2l0eToxO2ZpbGwtcnVsZTpub256ZXJvO3N0cm9rZTojMDAwMDAwO3N0cm9rZS13aWR0aDoxLjQ5Mjc2MjA5O3N0cm9rZS1saW5lY2FwOnNxdWFyZTtzdHJva2UtbGluZWpvaW46bWl0ZXI7c3Ryb2tlLW1pdGVybGltaXQ6NDtzdHJva2UtZGFzaGFycmF5OjguOTU2NTcyNTMsIDEuNDkyNzYyMDk7c3Ryb2tlLWRhc2hvZmZzZXQ6MDtzdHJva2Utb3BhY2l0eToxIiBpZD0icmVjdDIxMzEyIiB3aWR0aD0iMTE5LjgxNzM1IiBoZWlnaHQ9IjEwMCIgeD0iNDAuNzQ2MzgiIHk9IjM5MS42MTU4MSIvPiYjeGE7ICAgICAgICAgIDxwYXRoIHN0eWxlPSJmaWxsOm5vbmU7ZmlsbC1ydWxlOmV2ZW5vZGQ7c3Ryb2tlOiMwMDAwMDA7c3Ryb2tlLXdpZHRoOjIuNTtzdHJva2UtbGluZWNhcDpidXR0O3N0cm9rZS1saW5lam9pbjptaXRlcjtzdHJva2UtbWl0ZXJsaW1pdDo0O3N0cm9rZS1kYXNoYXJyYXk6bm9uZTtzdHJva2Utb3BhY2l0eToxIiBkPSJNIDU2LjQ2Njc0MSw0MDEuNjU1NyBMIDU2LjQ2Njc0MSw0ODEuNzIyMjIgTCAxNDMuNTMzMjYsNDQxLjY4ODk2IEwgNTYuNDY2NzQxLDQwMS42NTU3IHoiIGlkPSJwYXRoMjEzMTQiLz4mI3hhOyAgICAgICAgPC9nPiYjeGE7ICAgICAgICA8dGV4dCBpZD0idGV4dDIzMDAiIHk9IjU3NC40MTU0NyIgeD0iMTc3OS4xNDciIHN0eWxlPSJmb250LXNpemU6MjRweDtmb250LXN0eWxlOm5vcm1hbDtmb250LXdlaWdodDpub3JtYWw7ZmlsbDojMDAwMDAwO2ZpbGwtb3BhY2l0eToxO3N0cm9rZTpub25lO3N0cm9rZS13aWR0aDoxcHg7c3Ryb2tlLWxpbmVjYXA6YnV0dDtzdHJva2UtbGluZWpvaW46bWl0ZXI7c3Ryb2tlLW9wYWNpdHk6MTtmb250LWZhbWlseTpBcmlhbCIgeG1sOnNwYWNlPSJwcmVzZXJ2ZSI+PHRzcGFuIHk9IjU3NC40MTU0NyIgeD0iMTc3OS4xNDciIGlkPSJ0c3BhbjIzMDIiPk5GPC90c3Bhbj48L3RleHQ+JiN4YTsgICAgICA8L2c+JiN4YTsgICAgICA8cGF0aCBzdHlsZT0iZmlsbDojNmM1ZDUzO2ZpbGwtb3BhY2l0eToxO2ZpbGwtcnVsZTpldmVub2RkO3N0cm9rZTpub25lO3N0cm9rZS13aWR0aDoxcHg7c3Ryb2tlLWxpbmVjYXA6YnV0dDtzdHJva2UtbGluZWpvaW46bWl0ZXI7c3Ryb2tlLW9wYWNpdHk6MSIgZD0iTSA3NzksNTE3LjE4ODk2IEwgNzU5LDUwNy4xODg5NiBMIDc1OSw1MjcuMTg4OTYgTCA3NzksNTE3LjE4ODk2IHoiIGlkPSJwYXRoNDM2OCIvPiYjeGE7ICAgICAgPHJlY3Qgc3R5bGU9Im9wYWNpdHk6MTtmaWxsOiM2YzVkNTM7ZmlsbC1vcGFjaXR5OjE7ZmlsbC1ydWxlOm5vbnplcm87c3Ryb2tlOiM2YzVkNTM7c3Ryb2tlLXdpZHRoOjIuNjA2OTk3MjU7c3Ryb2tlLWxpbmVjYXA6c3F1YXJlO3N0cm9rZS1saW5lam9pbjptaXRlcjtzdHJva2UtbWl0ZXJsaW1pdDo0O3N0cm9rZS1kYXNoYXJyYXk6bm9uZTtzdHJva2UtZGFzaG9mZnNldDowO3N0cm9rZS1vcGFjaXR5OjEiIGlkPSJyZWN0NTM0MyIgd2lkdGg9IjIuNDY2ODE4NiIgaGVpZ2h0PSI3OS4zOTI5OTgiIHg9IjUxNi4xMTg2NSIgeT0iLTc2Ny42OTY0NyIgdHJhbnNmb3JtPSJtYXRyaXgoMCwxLC0xLDAsMCwwKSIvPiYjeGE7ICAgICAgPHRleHQgeG1sOnNwYWNlPSJwcmVzZXJ2ZSIgc3R5bGU9ImZvbnQtc2l6ZToyNHB4O2ZvbnQtc3R5bGU6bm9ybWFsO2ZvbnQtd2VpZ2h0Om5vcm1hbDt0ZXh0LWFsaWduOmNlbnRlcjt0ZXh0LWFuY2hvcjptaWRkbGU7ZmlsbDojMDAwMDAwO2ZpbGwtb3BhY2l0eToxO3N0cm9rZTpub25lO3N0cm9rZS13aWR0aDoxcHg7c3Ryb2tlLWxpbmVjYXA6YnV0dDtzdHJva2UtbGluZWpvaW46bWl0ZXI7c3Ryb2tlLW9wYWNpdHk6MTtmb250LWZhbWlseTpBcmlhbCIgeD0iNjE2LjU0Njg4IiB5PSI0MTAuODUzMDMiIGlkPSJ0ZXh0MjI4MiI+PHRzcGFuIGlkPSJ0c3BhbjIyODQiIHg9IjYxNi41NDY4OCIgeT0iNDEwLjg1MzAzIj5icmVpdGJhbmRpZ2VzPC90c3Bhbj48dHNwYW4geD0iNjE2LjU0Njg4IiB5PSI0NDAuODUzMDMiIGlkPSJ0c3BhbjIyODYiPlF1YXJ6ZmlsdGVyPC90c3Bhbj48L3RleHQ+JiN4YTsgICAgICA8ZyBpZD0iZzMzMTExIiB0cmFuc2Zvcm09InRyYW5zbGF0ZSgyOCwwKSI+JiN4YTsgICAgICAgIDxyZWN0IHk9IjQ1MS4yMjI5OSIgeD0iNTE3LjYyODYiIGhlaWdodD0iMTM2LjAxOTciIHdpZHRoPSIxNDEuNTg4ODgiIGlkPSJyZWN0MzEzNCIgc3R5bGU9ImZpbGw6I2RlNzdkZTtmaWxsLW9wYWNpdHk6MTtmaWxsLXJ1bGU6bm9uemVybztzdHJva2U6IzAwMDAwMDtzdHJva2Utd2lkdGg6MS44OTI1NDQ5ODtzdHJva2UtbGluZWNhcDpzcXVhcmU7c3Ryb2tlLWxpbmVqb2luOm1pdGVyO3N0cm9rZS1taXRlcmxpbWl0OjQ7c3Ryb2tlLWRhc2hhcnJheToxMS4zNTUyNzAwMSwgMS44OTI1NDU7c3Ryb2tlLWRhc2hvZmZzZXQ6MDtzdHJva2Utb3BhY2l0eToxIi8+JiN4YTsgICAgICAgIDxyZWN0IHk9IjQ4My44OTgxOSIgeD0iNTc3Ljk4MDM1IiBoZWlnaHQ9IjUxLjA4MzIyNSIgd2lkdGg9IjIyLjIyMjkwNiIgaWQ9InJlY3QxMzQzMSIgc3R5bGU9ImZpbGw6I2RlNzdkZTtmaWxsLW9wYWNpdHk6MTtmaWxsLXJ1bGU6bm9uemVybztzdHJva2U6IzAwMDAwMDtzdHJva2Utd2lkdGg6Mi45ODI3NDA0O3N0cm9rZS1saW5lY2FwOnNxdWFyZTtzdHJva2UtbGluZWpvaW46bWl0ZXI7c3Ryb2tlLW1pdGVybGltaXQ6NDtzdHJva2UtZGFzaGFycmF5Om5vbmU7c3Ryb2tlLWRhc2hvZmZzZXQ6MDtzdHJva2Utb3BhY2l0eToxIi8+JiN4YTsgICAgICAgIDxwYXRoIGlkPSJwYXRoMTUzNzEiIGQ9Ik0gNjA1LjMxNTczLDQ4OS4xNjcxNCBMIDYwNS4zMTU3Myw1MjkuOTczMDUiIHN0eWxlPSJmaWxsOiNmZjAwZmY7ZmlsbC1ydWxlOmV2ZW5vZGQ7c3Ryb2tlOiMwMDAwMDA7c3Ryb2tlLXdpZHRoOjMuMTY5NTM1NDtzdHJva2UtbGluZWNhcDpidXR0O3N0cm9rZS1saW5lam9pbjptaXRlcjtzdHJva2UtbWl0ZXJsaW1pdDo0O3N0cm9rZS1kYXNoYXJyYXk6bm9uZTtzdHJva2Utb3BhY2l0eToxIi8+JiN4YTsgICAgICAgIDxwYXRoIGlkPSJwYXRoMTUzNzMiIGQ9Ik0gNTcyLjkzNjk5LDQ4OS4wOTkxMyBMIDU3Mi45MzY5OSw1MjkuOTA1MDQiIHN0eWxlPSJmaWxsOiNmZjAwZmY7ZmlsbC1ydWxlOmV2ZW5vZGQ7c3Ryb2tlOiMwMDAwMDA7c3Ryb2tlLXdpZHRoOjMuMTY5NTM1NDtzdHJva2UtbGluZWNhcDpidXR0O3N0cm9rZS1saW5lam9pbjptaXRlcjtzdHJva2UtbWl0ZXJsaW1pdDo0O3N0cm9rZS1kYXNoYXJyYXk6bm9uZTtzdHJva2Utb3BhY2l0eToxIi8+JiN4YTsgICAgICAgIDxwYXRoIGlkPSJwYXRoMTYzNDQiIGQ9Ik0gNTgwLjE0NTQsNTQwLjU4MjU5IEwgNTk3Ljg3MDk4LDU0MC41ODI1OSIgc3R5bGU9ImZpbGw6I2ZmMDBmZjtmaWxsLXJ1bGU6ZXZlbm9kZDtzdHJva2U6IzAwMDAwMDtzdHJva2Utd2lkdGg6My4xNjk1MzU0O3N0cm9rZS1saW5lY2FwOmJ1dHQ7c3Ryb2tlLWxpbmVqb2luOm1pdGVyO3N0cm9rZS1taXRlcmxpbWl0OjQ7c3Ryb2tlLWRhc2hhcnJheTpub25lO3N0cm9rZS1vcGFjaXR5OjEiLz4mI3hhOyAgICAgICAgPHBhdGggaWQ9InBhdGgxNzMxNyIgZD0iTSA1NzEuNjA3NTcsNTA5LjUwMjA5IEwgNTU2LjI0NTM5LDUwOS41MDIwOSIgc3R5bGU9ImZpbGw6I2ZmMDBmZjtmaWxsLXJ1bGU6ZXZlbm9kZDtzdHJva2U6IzAwMDAwMDtzdHJva2Utd2lkdGg6My42MTM4MjY1MTtzdHJva2UtbGluZWNhcDpidXR0O3N0cm9rZS1saW5lam9pbjptaXRlcjtzdHJva2UtbWl0ZXJsaW1pdDo0O3N0cm9rZS1kYXNoYXJyYXk6bm9uZTtzdHJva2Utb3BhY2l0eToxIi8+JiN4YTsgICAgICAgIDxwYXRoIGlkPSJwYXRoMTkyNTciIGQ9Ik0gNjIxLjE3OTg3LDUwOS41MzU4MSBMIDYwNS44MTc3LDUwOS41MzU4MSIgc3R5bGU9ImZpbGw6I2ZmMDBmZjtmaWxsLXJ1bGU6ZXZlbm9kZDtzdHJva2U6IzAwMDAwMDtzdHJva2Utd2lkdGg6My42MTM4MjY1MTtzdHJva2UtbGluZWNhcDpidXR0O3N0cm9rZS1saW5lam9pbjptaXRlcjtzdHJva2UtbWl0ZXJsaW1pdDo0O3N0cm9rZS1kYXNoYXJyYXk6bm9uZTtzdHJva2Utb3BhY2l0eToxIi8+JiN4YTsgICAgICAgIDxwYXRoIGlkPSJwYXRoMTkyNTkiIGQ9Ik0gNTg5LjAzNzk5LDU2MS43MDg0OSBMIDU4OS4wMzc5OSw1NDEuNjI3OSIgc3R5bGU9ImZpbGw6I2ZmMDBmZjtmaWxsLXJ1bGU6ZXZlbm9kZDtzdHJva2U6IzAwMDAwMDtzdHJva2Utd2lkdGg6My44NTEwODM3NjtzdHJva2UtbGluZWNhcDpidXR0O3N0cm9rZS1saW5lam9pbjptaXRlcjtzdHJva2UtbWl0ZXJsaW1pdDo0O3N0cm9rZS1kYXNoYXJyYXk6bm9uZTtzdHJva2Utb3BhY2l0eToxIi8+JiN4YTsgICAgICAgIDxwYXRoIGlkPSJwYXRoNTM0NSIgZD0iTSA1MTcsNTE4LjE4ODk2IEwgNDk3LDUwOC4xODg5NiBMIDQ5Nyw1MjguMTg4OTYgTCA1MTcsNTE4LjE4ODk2IHoiIHN0eWxlPSJmaWxsOiM2YzVkNTM7ZmlsbC1vcGFjaXR5OjE7ZmlsbC1ydWxlOmV2ZW5vZGQ7c3Ryb2tlOm5vbmU7c3Ryb2tlLXdpZHRoOjFweDtzdHJva2UtbGluZWNhcDpidXR0O3N0cm9rZS1saW5lam9pbjptaXRlcjtzdHJva2Utb3BhY2l0eToxIi8+JiN4YTsgICAgICA8L2c+JiN4YTsgICAgICA8cmVjdCBzdHlsZT0ib3BhY2l0eToxO2ZpbGw6IzZjNWQ1MztmaWxsLW9wYWNpdHk6MTtmaWxsLXJ1bGU6bm9uemVybztzdHJva2U6IzZjNWQ1MztzdHJva2Utd2lkdGg6Mi42MDY5OTcyNTtzdHJva2UtbGluZWNhcDpzcXVhcmU7c3Ryb2tlLWxpbmVqb2luOm1pdGVyO3N0cm9rZS1taXRlcmxpbWl0OjQ7c3Ryb2tlLWRhc2hhcnJheTpub25lO3N0cm9rZS1kYXNob2Zmc2V0OjA7c3Ryb2tlLW9wYWNpdHk6MSIgaWQ9InJlY3Q1MzQ3IiB3aWR0aD0iMi40NjY4MTg2IiBoZWlnaHQ9Ijc5LjM5Mjk5OCIgeD0iNTE3LjExODY1IiB5PSItNTMzLjY5NjQ3IiB0cmFuc2Zvcm09Im1hdHJpeCgwLDEsLTEsMCwwLDApIi8+JiN4YTsgICAgICA8cGF0aCBzdHlsZT0iZmlsbDojNmM1ZDUzO2ZpbGwtb3BhY2l0eToxO2ZpbGwtcnVsZTpldmVub2RkO3N0cm9rZTpub25lO3N0cm9rZS13aWR0aDoxcHg7c3Ryb2tlLWxpbmVjYXA6YnV0dDtzdHJva2UtbGluZWpvaW46bWl0ZXI7c3Ryb2tlLW9wYWNpdHk6MSIgZD0iTSAxMzI4LDc2OC4xODg5NiBMIDEzMDgsNzU4LjE4ODk2IEwgMTMwOCw3NzguMTg4OTYgTCAxMzI4LDc2OC4xODg5NiB6IiBpZD0icGF0aDUzNDkiLz4mI3hhOyAgICAgIDxyZWN0IHN0eWxlPSJvcGFjaXR5OjE7ZmlsbDojNmM1ZDUzO2ZpbGwtb3BhY2l0eToxO2ZpbGwtcnVsZTpub256ZXJvO3N0cm9rZTojNmM1ZDUzO3N0cm9rZS13aWR0aDoyLjkxMjQyNTUyO3N0cm9rZS1saW5lY2FwOnNxdWFyZTtzdHJva2UtbGluZWpvaW46bWl0ZXI7c3Ryb2tlLW1pdGVybGltaXQ6NDtzdHJva2UtZGFzaGFycmF5Om5vbmU7c3Ryb2tlLWRhc2hvZmZzZXQ6MDtzdHJva2Utb3BhY2l0eToxIiBpZD0icmVjdDUzNTEiIHdpZHRoPSIyLjE2MTM5MDMiIGhlaWdodD0iMTEzLjA4NzU0IiB4PSI3NjcuMjcxMyIgeT0iLTEzMDYuNTQzOCIgdHJhbnNmb3JtPSJtYXRyaXgoMCwxLC0xLDAsMCwwKSIvPiYjeGE7ICAgICAgPHJlY3Qgc3R5bGU9Im9wYWNpdHk6MTtmaWxsOiM2YzVkNTM7ZmlsbC1vcGFjaXR5OjE7ZmlsbC1ydWxlOm5vbnplcm87c3Ryb2tlOiM2YzVkNTM7c3Ryb2tlLXdpZHRoOjIuNjA2OTk3MjU7c3Ryb2tlLWxpbmVjYXA6c3F1YXJlO3N0cm9rZS1saW5lam9pbjptaXRlcjtzdHJva2UtbWl0ZXJsaW1pdDo0O3N0cm9rZS1kYXNoYXJyYXk6bm9uZTtzdHJva2UtZGFzaG9mZnNldDowO3N0cm9rZS1vcGFjaXR5OjEiIGlkPSJyZWN0NTM1NSIgd2lkdGg9IjIuNDY2ODE4NiIgaGVpZ2h0PSI3OS4zOTI5OTgiIHg9IjUxNi43NTc0NSIgeT0iLTI5OS4xNTc5NiIgdHJhbnNmb3JtPSJtYXRyaXgoMCwxLC0xLDAsMCwwKSIvPiYjeGE7ICAgICAgPGcgaWQ9ImczMTA5MyIgdHJhbnNmb3JtPSJ0cmFuc2xhdGUoMjgsMCkiPiYjeGE7ICAgICAgICA8cmVjdCB5PSI0NDkuNTY5MzEiIHg9IjI4My43MzkyOSIgaGVpZ2h0PSIxMzYuMDE5NyIgd2lkdGg9IjE0MS41ODg4NyIgaWQ9InJlY3QzMTM2IiBzdHlsZT0iZmlsbDojZmY5OTU1O2ZpbGwtb3BhY2l0eToxO2ZpbGwtcnVsZTpub256ZXJvO3N0cm9rZTojMDAwMDAwO3N0cm9rZS13aWR0aDoxLjg5MjU0NDk4O3N0cm9rZS1saW5lY2FwOnNxdWFyZTtzdHJva2UtbGluZWpvaW46bWl0ZXI7c3Ryb2tlLW1pdGVybGltaXQ6NDtzdHJva2UtZGFzaGFycmF5OjExLjM1NTI2OTc1LCAxLjg5MjU0NDk2O3N0cm9rZS1kYXNob2Zmc2V0OjA7c3Ryb2tlLW9wYWNpdHk6MSIvPiYjeGE7ICAgICAgICA8cGF0aCBpZD0icGF0aDQxNDMiIGQ9Ik0gMjgyLjg1NzI5LDQ1MC41ODQ1IEwgNDI0LjY2MTk5LDU4Ni42MDQyIiBzdHlsZT0iZmlsbDpub25lO2ZpbGwtcnVsZTpldmVub2RkO3N0cm9rZTojMDAwMDAwO3N0cm9rZS13aWR0aDozLjE2OTUzNTQ7c3Ryb2tlLWxpbmVjYXA6YnV0dDtzdHJva2UtbGluZWpvaW46bWl0ZXI7c3Ryb2tlLW1pdGVybGltaXQ6NDtzdHJva2UtZGFzaGFycmF5Om5vbmU7c3Ryb2tlLW9wYWNpdHk6MSIvPiYjeGE7ICAgICAgICA8cGF0aCBpZD0icGF0aDQxNDUiIGQ9Ik0gNDI0LjY2MTk5LDQ1MC41ODQ1IEwgMjgyLjg1NzI5LDU4Ni42MDQyIiBzdHlsZT0iZmlsbDpub25lO2ZpbGwtcnVsZTpldmVub2RkO3N0cm9rZTojMDAwMDAwO3N0cm9rZS13aWR0aDozLjE2OTUzNTQ7c3Ryb2tlLWxpbmVjYXA6YnV0dDtzdHJva2UtbGluZWpvaW46bWl0ZXI7c3Ryb2tlLW1pdGVybGltaXQ6NDtzdHJva2UtZGFzaGFycmF5Om5vbmU7c3Ryb2tlLW9wYWNpdHk6MSIvPiYjeGE7ICAgICAgICA8dGV4dCBpZD0idGV4dDIyNzQiIHk9IjQ0MC44MjM5MSIgeD0iMjk2LjIxNjQ2IiBzdHlsZT0iZm9udC1zaXplOjI0cHg7Zm9udC1zdHlsZTpub3JtYWw7Zm9udC13ZWlnaHQ6bm9ybWFsO2ZpbGw6IzAwMDAwMDtmaWxsLW9wYWNpdHk6MTtzdHJva2U6bm9uZTtzdHJva2Utd2lkdGg6MXB4O3N0cm9rZS1saW5lY2FwOmJ1dHQ7c3Ryb2tlLWxpbmVqb2luOm1pdGVyO3N0cm9rZS1vcGFjaXR5OjE7Zm9udC1mYW1pbHk6QXJpYWwiIHhtbDpzcGFjZT0icHJlc2VydmUiPjx0c3BhbiB5PSI0NDAuODIzOTEiIHg9IjI5Ni4yMTY0NiIgaWQ9InRzcGFuMjI3NiI+MS4gTWlzY2hlcjwvdHNwYW4+PC90ZXh0PiYjeGE7ICAgICAgICA8cGF0aCBpZD0icGF0aDUzNTMiIGQ9Ik0gMjgyLjQ2MTQ4LDUxNy44Mjc3OCBMIDI2Mi40NjE0OCw1MDcuODI3NzggTCAyNjIuNDYxNDgsNTI3LjgyNzc4IEwgMjgyLjQ2MTQ4LDUxNy44Mjc3OCB6IiBzdHlsZT0iZmlsbDojNmM1ZDUzO2ZpbGwtb3BhY2l0eToxO2ZpbGwtcnVsZTpldmVub2RkO3N0cm9rZTpub25lO3N0cm9rZS13aWR0aDoxcHg7c3Ryb2tlLWxpbmVjYXA6YnV0dDtzdHJva2UtbGluZWpvaW46bWl0ZXI7c3Ryb2tlLW9wYWNpdHk6MSIvPiYjeGE7ICAgICAgICA8cGF0aCBpZD0icGF0aDUzNTciIGQ9Ik0gMzU0LjA1NDM5LDU4NC45MzUwOCBMIDM0NC4wNTQzOSw2MDQuOTM1MDggTCAzNjQuMDU0MzksNjA0LjkzNTA4IEwgMzU0LjA1NDM5LDU4NC45MzUwOCB6IiBzdHlsZT0iZmlsbDojNmM1ZDUzO2ZpbGwtb3BhY2l0eToxO2ZpbGwtcnVsZTpldmVub2RkO3N0cm9rZTpub25lO3N0cm9rZS13aWR0aDoxcHg7c3Ryb2tlLWxpbmVjYXA6YnV0dDtzdHJva2UtbGluZWpvaW46bWl0ZXI7c3Ryb2tlLW9wYWNpdHk6MSIvPiYjeGE7ICAgICAgPC9nPiYjeGE7ICAgICAgPHJlY3Qgc3R5bGU9Im9wYWNpdHk6MTtmaWxsOiM2YzVkNTM7ZmlsbC1vcGFjaXR5OjE7ZmlsbC1ydWxlOm5vbnplcm87c3Ryb2tlOiM2YzVkNTM7c3Ryb2tlLXdpZHRoOjIuNzM1OTQ1MjI7c3Ryb2tlLWxpbmVjYXA6c3F1YXJlO3N0cm9rZS1saW5lam9pbjptaXRlcjtzdHJva2UtbWl0ZXJsaW1pdDo0O3N0cm9rZS1kYXNoYXJyYXk6bm9uZTtzdHJva2UtZGFzaG9mZnNldDowO3N0cm9rZS1vcGFjaXR5OjEiIGlkPSJyZWN0NTM1OSIgd2lkdGg9IjIuMzM3ODcwNiIgaGVpZ2h0PSI5Mi4yNjQwNTMiIHg9IjM4MC41NDg0IiB5PSI2MDMuMzAzMDQiLz4mI3hhOyAgICAgIDxyZWN0IHN0eWxlPSJvcGFjaXR5OjE7ZmlsbDojNmM1ZDUzO2ZpbGwtb3BhY2l0eToxO2ZpbGwtcnVsZTpub256ZXJvO3N0cm9rZTojNmM1ZDUzO3N0cm9rZS13aWR0aDoyLjczNTk0NTIyO3N0cm9rZS1saW5lY2FwOnNxdWFyZTtzdHJva2UtbGluZWpvaW46bWl0ZXI7c3Ryb2tlLW1pdGVybGltaXQ6NDtzdHJva2UtZGFzaGFycmF5Om5vbmU7c3Ryb2tlLWRhc2hvZmZzZXQ6MDtzdHJva2Utb3BhY2l0eToxIiBpZD0icmVjdDUzNjMiIHdpZHRoPSIyLjMzNzg3MDYiIGhlaWdodD0iOTIuMjY0MDUzIiB4PSIzNzkuNzU2MDQiIHk9Ijg1Mi4xNjQ3OSIvPiYjeGE7ICAgICAgPGcgaWQ9ImczMTEyNSIgdHJhbnNmb3JtPSJ0cmFuc2xhdGUoMjgsMCkiPiYjeGE7ICAgICAgICA8cmVjdCB5PSI2OTkuMzQzODciIHg9Ijc1Mi40MjE2OSIgaGVpZ2h0PSIxMzYuMDE5NyIgd2lkdGg9IjE0MS41ODg4OCIgaWQ9InJlY3QzMTQyIiBzdHlsZT0iZmlsbDojZmY1NTU1O2ZpbGwtb3BhY2l0eToxO2ZpbGwtcnVsZTpub256ZXJvO3N0cm9rZTojMDAwMDAwO3N0cm9rZS13aWR0aDoxLjg5MjU0NDk4O3N0cm9rZS1saW5lY2FwOnNxdWFyZTtzdHJva2UtbGluZWpvaW46bWl0ZXI7c3Ryb2tlLW1pdGVybGltaXQ6NDtzdHJva2UtZGFzaGFycmF5OjExLjM1NTI3MDAxLCAxLjg5MjU0NTtzdHJva2UtZGFzaG9mZnNldDowO3N0cm9rZS1vcGFjaXR5OjEiLz4mI3hhOyAgICAgICAgPHJlY3QgeT0iODAyLjA0MDUzIiB4PSI4NjEuMTk1ODYiIGhlaWdodD0iMjYuODc0Nzc5IiB3aWR0aD0iMTMuNzcyMzg4IiBpZD0icmVjdDE5MjgwIiBzdHlsZT0iZmlsbDpub25lO2ZpbGwtb3BhY2l0eToxO2ZpbGwtcnVsZTpub256ZXJvO3N0cm9rZTojMDAwMDAwO3N0cm9rZS13aWR0aDoyO3N0cm9rZS1saW5lY2FwOnNxdWFyZTtzdHJva2UtbGluZWpvaW46bWl0ZXI7c3Ryb2tlLW1pdGVybGltaXQ6NDtzdHJva2UtZGFzaGFycmF5Om5vbmU7c3Ryb2tlLWRhc2hvZmZzZXQ6MDtzdHJva2Utb3BhY2l0eToxIi8+JiN4YTsgICAgICAgIDxwYXRoIGlkPSJwYXRoMTkyODIiIGQ9Ik0gODc4LjEzNjYyLDgwNC44MTI1MiBMIDg3OC4xMzY2Miw4MjYuMjgwNDIiIHN0eWxlPSJmaWxsOm5vbmU7ZmlsbC1ydWxlOmV2ZW5vZGQ7c3Ryb2tlOiMwMDAwMDA7c3Ryb2tlLXdpZHRoOjEuODA5ODEwNTI7c3Ryb2tlLWxpbmVjYXA6YnV0dDtzdHJva2UtbGluZWpvaW46bWl0ZXI7c3Ryb2tlLW1pdGVybGltaXQ6NDtzdHJva2UtZGFzaGFycmF5Om5vbmU7c3Ryb2tlLW9wYWNpdHk6MSIvPiYjeGE7ICAgICAgICA8cGF0aCBpZD0icGF0aDE5Mjg0IiBkPSJNIDg1OC4wNzAyNyw4MDQuNzc2NzQgTCA4NTguMDcwMjcsODI2LjI0NDY0IiBzdHlsZT0iZmlsbDpub25lO2ZpbGwtcnVsZTpldmVub2RkO3N0cm9rZTojMDAwMDAwO3N0cm9rZS13aWR0aDoxLjgwOTgxMDUyO3N0cm9rZS1saW5lY2FwOmJ1dHQ7c3Ryb2tlLWxpbmVqb2luOm1pdGVyO3N0cm9rZS1taXRlcmxpbWl0OjQ7c3Ryb2tlLWRhc2hhcnJheTpub25lO3N0cm9rZS1vcGFjaXR5OjEiLz4mI3hhOyAgICAgICAgPHBhdGggaWQ9InBhdGgxOTI4OCIgZD0iTSA4NTcuMjQ2MzgsODE1LjUxMDY5IEwgODQ3LjcyNTg1LDgxNS41MTA2OSIgc3R5bGU9ImZpbGw6bm9uZTtmaWxsLXJ1bGU6ZXZlbm9kZDtzdHJva2U6IzAwMDAwMDtzdHJva2Utd2lkdGg6MjtzdHJva2UtbGluZWNhcDpidXR0O3N0cm9rZS1saW5lam9pbjptaXRlcjtzdHJva2UtbWl0ZXJsaW1pdDo0O3N0cm9rZS1kYXNoYXJyYXk6bm9uZTtzdHJva2Utb3BhY2l0eToxIi8+JiN4YTsgICAgICAgIDxwYXRoIGlkPSJwYXRoMTkyOTAiIGQ9Ik0gODg3Ljk2ODI1LDgxNS41Mjg0MyBMIDg3OC40NDc3Miw4MTUuNTI4NDMiIHN0eWxlPSJmaWxsOm5vbmU7ZmlsbC1ydWxlOmV2ZW5vZGQ7c3Ryb2tlOiMwMDAwMDA7c3Ryb2tlLXdpZHRoOjI7c3Ryb2tlLWxpbmVjYXA6YnV0dDtzdHJva2UtbGluZWpvaW46bWl0ZXI7c3Ryb2tlLW1pdGVybGltaXQ6NDtzdHJva2UtZGFzaGFycmF5Om5vbmU7c3Ryb2tlLW9wYWNpdHk6MSIvPiYjeGE7ICAgICAgICA8dGV4dCBpZD0idGV4dDIzODIiIHk9IjczMy44OTYiIHg9Ijc5OS44OTQ1MyIgc3R5bGU9ImZvbnQtc2l6ZToyNHB4O2ZvbnQtc3R5bGU6bm9ybWFsO2ZvbnQtd2VpZ2h0Om5vcm1hbDtmaWxsOiMwMDAwMDA7ZmlsbC1vcGFjaXR5OjE7c3Ryb2tlOm5vbmU7c3Ryb2tlLXdpZHRoOjFweDtzdHJva2UtbGluZWNhcDpidXR0O3N0cm9rZS1saW5lam9pbjptaXRlcjtzdHJva2Utb3BhY2l0eToxO2ZvbnQtZmFtaWx5OkFyaWFsIiB4bWw6c3BhY2U9InByZXNlcnZlIj48dHNwYW4geT0iNzMzLjg5NiIgeD0iNzk5Ljg5NDUzIiBpZD0idHNwYW4yMzg0Ij5WWE88L3RzcGFuPjwvdGV4dD4mI3hhOyAgICAgICAgPGcgdHJhbnNmb3JtPSJ0cmFuc2xhdGUoLTQxMC43MjQwNywtNDUyLjg3MzM3KSIgaWQ9Imc3MzcwIj4mI3hhOyAgICAgICAgICA8cGF0aCBzdHlsZT0iY29sb3I6IzAwODAwMDtmaWxsOm5vbmU7c3Ryb2tlOiMwMDAwMDA7c3Ryb2tlLXdpZHRoOjMuMTY5NTM1NDtzdHJva2UtbWl0ZXJsaW1pdDo0O3N0cm9rZS1kYXNoYXJyYXk6bm9uZTtzdHJva2Utb3BhY2l0eToxIiBkPSJNIDEyNzMuMTM5MywxMjM5LjMyMjUgTCAxMjcxLjY2OTQsMTI0MC4yOTkzIEwgMTI3MC4xOTk1LDEyNDEuMjMxNyBMIDEyNjguOTM5NiwxMjQyLjExOTcgTCAxMjY3LjQ2OTcsMTI0Mi45NjM0IEwgMTI2NS45OTk4LDEyNDMuNzYyNiBMIDEyNjQuNzM5OSwxMjQ0LjQ3MyBMIDEyNjMuMjcsMTI0NS4wOTQ2IEwgMTI2MS44MDAxLDEyNDUuNjI3NCBMIDEyNjAuNTQwMiwxMjQ2LjAyNyBMIDEyNTkuMDcwMywxMjQ2LjMzNzggTCAxMjU3LjYwMDQsMTI0Ni41NTk4IEwgMTI1Ni4zNDA1LDEyNDYuNjA0MiBMIDEyNTQuODcwNiwxMjQ2LjU1OTggTCAxMjUzLjQwMDcsMTI0Ni40MjY2IEwgMTI1Mi4xNDA4LDEyNDYuMTE1OCBMIDEyNTAuNjcwOSwxMjQ1LjcxNjIgTCAxMjQ5LjIwMSwxMjQ1LjIyNzggTCAxMjQ3LjczMTEsMTI0NC42MDYyIEwgMTI0Ni40NzEyLDEyNDMuOTQwMiBMIDEyNDUuMDAxMywxMjQzLjE4NTQgTCAxMjQzLjUzMTQsMTI0Mi4zNDE4IEwgMTI0Mi4yNzE1LDEyNDEuNDUzNyBMIDEyNDAuODAxNiwxMjQwLjUyMTMgTCAxMjM5LjMzMTcsMTIzOS41ODg5IEwgMTIzOC4wNzE4LDEyMzguNjEyMSBMIDEyMzYuNjAxOSwxMjM3LjY3OTcgTCAxMjM1LjEzMjEsMTIzNi43NDczIEwgMTIzMy44NzIxLDEyMzUuODU5MyBMIDEyMzIuNDAyMiwxMjM1LjAxNTcgTCAxMjMwLjkzMjQsMTIzNC4yNjA5IEwgMTIyOS42NzI0LDEyMzMuNTUwNSBMIDEyMjguMjAyNSwxMjMyLjk3MzMgTCAxMjI2LjczMjYsMTIzMi40ODQ5IEwgMTIyNS4yNjI4LDEyMzIuMDg1MyBMIDEyMjQuMDAyOCwxMjMxLjc3NDUgTCAxMjIyLjUzMjksMTIzMS42NDEzIEwgMTIyMS4wNjMxLDEyMzEuNTk2OCBMIDEyMTkuODAzMSwxMjMxLjY0MTMgTCAxMjE4LjMzMzIsMTIzMS44NjMzIEwgMTIxNi44NjMzLDEyMzIuMTc0MSBMIDEyMTUuNjAzNCwxMjMyLjU3MzcgTCAxMjE0LjEzMzUsMTIzMy4xMDY1IEwgMTIxMi42NjM2LDEyMzMuNzI4MSBMIDEyMTEuNDAzNywxMjM0LjQzODUgTCAxMjA5LjkzMzgsMTIzNS4yMzc3IEwgMTIwOC40NjM5LDEyMzYuMDgxMyBMIDEyMDcuMjA0LDEyMzYuOTY5MyBMIDEyMDUuNzM0MSwxMjM3LjkwMTcgTCAxMjAzLjY0OTgsMTIzOS4zMDA4IiBpZD0icGF0aDczNzIiLz4mI3hhOyAgICAgICAgICA8cGF0aCBzdHlsZT0iY29sb3I6IzAwODAwMDtmaWxsOm5vbmU7c3Ryb2tlOiMwMDAwMDA7c3Ryb2tlLXdpZHRoOjMuMTY5NTM1NDtzdHJva2UtbWl0ZXJsaW1pdDo0O3N0cm9rZS1kYXNoYXJyYXk6bm9uZTtzdHJva2Utb3BhY2l0eToxIiBkPSJNIDEyNzEuMDc0NCwxMjA3LjM3MjggTCAxMjY5LjYwNDUsMTIwOC4zNDk2IEwgMTI2OC4xMzQ1LDEyMDkuMjgyIEwgMTI2Ni44NzQ2LDEyMTAuMTcgTCAxMjY1LjQwNDgsMTIxMS4wMTM2IEwgMTI2My45MzQ5LDEyMTEuODEyOSBMIDEyNjIuNjc0OSwxMjEyLjUyMzMgTCAxMjYxLjIwNSwxMjEzLjE0NDkgTCAxMjU5LjczNTEsMTIxMy42Nzc3IEwgMTI1OC40NzUzLDEyMTQuMDc3MyBMIDEyNTcuMDA1NCwxMjE0LjM4ODEgTCAxMjU1LjUzNTQsMTIxNC42MTAxIEwgMTI1NC4yNzU1LDEyMTQuNjU0NSBMIDEyNTIuODA1NywxMjE0LjYxMDEgTCAxMjUxLjMzNTgsMTIxNC40NzY5IEwgMTI1MC4wNzU4LDEyMTQuMTY2MSBMIDEyNDguNjA1OSwxMjEzLjc2NjUgTCAxMjQ3LjEzNjEsMTIxMy4yNzgxIEwgMTI0NS42NjYyLDEyMTIuNjU2NSBMIDEyNDQuNDA2MiwxMjExLjk5MDUgTCAxMjQyLjkzNjMsMTIxMS4yMzU3IEwgMTI0MS40NjY0LDEyMTAuMzkyMSBMIDEyNDAuMjA2NiwxMjA5LjUwNCBMIDEyMzguNzM2NywxMjA4LjU3MTYgTCAxMjM3LjI2NjcsMTIwNy42MzkyIEwgMTIzNi4wMDY4LDEyMDYuNjYyNCBMIDEyMzQuNTM3LDEyMDUuNzMgTCAxMjMzLjA2NzEsMTIwNC43OTc2IEwgMTIzMS44MDcxLDEyMDMuOTA5NiBMIDEyMzAuMzM3MiwxMjAzLjA2NiBMIDEyMjguODY3NCwxMjAyLjMxMTIgTCAxMjI3LjYwNzUsMTIwMS42MDA4IEwgMTIyNi4xMzc1LDEyMDEuMDIzNiBMIDEyMjQuNjY3NiwxMjAwLjUzNTIgTCAxMjIzLjE5NzgsMTIwMC4xMzU1IEwgMTIyMS45Mzc5LDExOTkuODI0OCBMIDEyMjAuNDY4LDExOTkuNjkxNSBMIDEyMTguOTk4LDExOTkuNjQ3MSBMIDEyMTcuNzM4MSwxMTk5LjY5MTUgTCAxMjE2LjI2ODMsMTE5OS45MTM1IEwgMTIxNC43OTg0LDEyMDAuMjI0MyBMIDEyMTMuNTM4NCwxMjAwLjYyMzkgTCAxMjEyLjA2ODUsMTIwMS4xNTY4IEwgMTIxMC41OTg3LDEyMDEuNzc4NCBMIDEyMDkuMzM4OCwxMjAyLjQ4ODggTCAxMjA3Ljg2ODgsMTIwMy4yODggTCAxMjA2LjM5ODksMTIwNC4xMzE2IEwgMTIwNS4xMzksMTIwNS4wMTk2IEwgMTIwMy42NjkyLDEyMDUuOTUyIEwgMTIwMS41ODQ4LDEyMDcuMzUxMSIgaWQ9InBhdGg3Mzc0Ii8+JiN4YTsgICAgICAgICAgPHBhdGggc3R5bGU9ImNvbG9yOiMwMDgwMDA7ZmlsbDpub25lO3N0cm9rZTojMDAwMDAwO3N0cm9rZS13aWR0aDozLjE2OTUzNTQ7c3Ryb2tlLW1pdGVybGltaXQ6NDtzdHJva2UtZGFzaGFycmF5Om5vbmU7c3Ryb2tlLW9wYWNpdHk6MSIgZD0iTSAxMjcyLjI1NjEsMTIyMy42OTUyIEwgMTI3MC43ODYyLDEyMjQuNjcyIEwgMTI2OS4zMTY0LDEyMjUuNjA0NCBMIDEyNjguMDU2NCwxMjI2LjQ5MjQgTCAxMjY2LjU4NjUsMTIyNy4zMzYgTCAxMjY1LjExNjYsMTIyOC4xMzUyIEwgMTI2My44NTY4LDEyMjguODQ1NiBMIDEyNjIuMzg2OCwxMjI5LjQ2NzIgTCAxMjYwLjkxNjksMTIzMCBMIDEyNTkuNjU3LDEyMzAuMzk5NyBMIDEyNTguMTg3MiwxMjMwLjcxMDUgTCAxMjU2LjcxNzMsMTIzMC45MzI1IEwgMTI1NS40NTczLDEyMzAuOTc2OSBMIDEyNTMuOTg3NCwxMjMwLjkzMjUgTCAxMjUyLjUxNzUsMTIzMC43OTkzIEwgMTI1MS4yNTc3LDEyMzAuNDg4NCBMIDEyNDkuNzg3NywxMjMwLjA4ODggTCAxMjQ4LjMxNzgsMTIyOS42MDA0IEwgMTI0Ni44NDc5LDEyMjguOTc4OCBMIDEyNDUuNTg4LDEyMjguMzEyOCBMIDEyNDQuMTE4MSwxMjI3LjU1OCBMIDEyNDIuNjQ4MiwxMjI2LjcxNDQgTCAxMjQxLjM4ODMsMTIyNS44MjY0IEwgMTIzOS45MTg0LDEyMjQuODk0IEwgMTIzOC40NDg1LDEyMjMuOTYxNiBMIDEyMzcuMTg4NiwxMjIyLjk4NDggTCAxMjM1LjcxODcsMTIyMi4wNTI0IEwgMTIzNC4yNDg4LDEyMjEuMTIgTCAxMjMyLjk4ODksMTIyMC4yMzE5IEwgMTIzMS41MTksMTIxOS4zODgzIEwgMTIzMC4wNDkxLDEyMTguNjMzNSBMIDEyMjguNzg5MiwxMjE3LjkyMzEgTCAxMjI3LjMxOTMsMTIxNy4zNDU5IEwgMTIyNS44NDk0LDEyMTYuODU3NSBMIDEyMjQuMzc5NSwxMjE2LjQ1NzkgTCAxMjIzLjExOTYsMTIxNi4xNDcxIEwgMTIyMS42NDk3LDEyMTYuMDEzOSBMIDEyMjAuMTc5OCwxMjE1Ljk2OTUgTCAxMjE4LjkxOTksMTIxNi4wMTM5IEwgMTIxNy40NSwxMjE2LjIzNTkgTCAxMjE1Ljk4MDEsMTIxNi41NDY3IEwgMTIxNC43MjAyLDEyMTYuOTQ2MyBMIDEyMTMuMjUwMywxMjE3LjQ3OTEgTCAxMjExLjc4MDQsMTIxOC4xMDA3IEwgMTIxMC41MjA1LDEyMTguODExMSBMIDEyMDkuMDUwNiwxMjE5LjYxMDMgTCAxMjA3LjU4MDcsMTIyMC40NTM5IEwgMTIwNi4zMjA4LDEyMjEuMzQyIEwgMTIwNC44NTA5LDEyMjIuMjc0NCBMIDEyMDIuNzY2NSwxMjIzLjY3MzUiIGlkPSJwYXRoNzM3NiIvPiYjeGE7ICAgICAgICA8L2c+JiN4YTsgICAgICA8L2c+JiN4YTsgICAgICA8ZyBpZD0iZzMxMTM5IiB0cmFuc2Zvcm09InRyYW5zbGF0ZSgyOCwwKSI+JiN4YTsgICAgICAgIDxwYXRoIGlkPSJwYXRoNTM2MSIgZD0iTSAzNTMuMjYyLDgzMy43OTY4MSBMIDM0My4yNjIsODUzLjc5NjgxIEwgMzYzLjI2Miw4NTMuNzk2ODEgTCAzNTMuMjYyLDgzMy43OTY4MSB6IiBzdHlsZT0iZmlsbDojNmM1ZDUzO2ZpbGwtb3BhY2l0eToxO2ZpbGwtcnVsZTpldmVub2RkO3N0cm9rZTpub25lO3N0cm9rZS13aWR0aDoxcHg7c3Ryb2tlLWxpbmVjYXA6YnV0dDtzdHJva2UtbGluZWpvaW46bWl0ZXI7c3Ryb2tlLW9wYWNpdHk6MSIvPiYjeGE7ICAgICAgICA8cmVjdCB5PSI2OTcuMzEzMzUiIHg9IjI4Mi4yMTkyNyIgaGVpZ2h0PSIxMzYuMDE5NyIgd2lkdGg9IjE0MS41ODg4OCIgaWQ9InJlY3QzMTQwIiBzdHlsZT0iZmlsbDojZmY1NTU1O2ZpbGwtb3BhY2l0eToxO2ZpbGwtcnVsZTpub256ZXJvO3N0cm9rZTojMDAwMDAwO3N0cm9rZS13aWR0aDoxLjg5MjU0NDk4O3N0cm9rZS1saW5lY2FwOnNxdWFyZTtzdHJva2UtbGluZWpvaW46bWl0ZXI7c3Ryb2tlLW1pdGVybGltaXQ6NDtzdHJva2UtZGFzaGFycmF5OjExLjM1NTI3MDAxLCAxLjg5MjU0NTtzdHJva2UtZGFzaG9mZnNldDowO3N0cm9rZS1vcGFjaXR5OjEiLz4mI3hhOyAgICAgICAgPHBhdGggaWQ9InBhdGg1NjQ4IiBkPSJNIDM3OS4wNjc2Miw4MTUuMjQ3MzUgQyA0MTcuNjczNDMsODE1LjI0NzM1IDQxNy42NzM0Myw4MTUuMjQ3MzUgNDE3LjY3MzQzLDgxNS4yNDczNSIgc3R5bGU9ImZpbGw6bm9uZTtmaWxsLXJ1bGU6ZXZlbm9kZDtzdHJva2U6IzAwMDAwMDtzdHJva2Utd2lkdGg6MjtzdHJva2UtbGluZWNhcDpidXR0O3N0cm9rZS1saW5lam9pbjptaXRlcjtzdHJva2UtbWl0ZXJsaW1pdDo0O3N0cm9rZS1kYXNoYXJyYXk6bm9uZTtzdHJva2Utb3BhY2l0eToxIi8+JiN4YTsgICAgICAgIDxwYXRoIGlkPSJwYXRoNTY0NCIgZD0iTSAzODguNDM0NDcsODAzLjkxMzQzIEMgMzg4LjQzNDQ3LDgyNi42MDE3OSAzODguNDM0NDcsODI2LjYwMTc5IDM4OC40MzQ0Nyw4MjYuNjAxNzkgTCA0MDQuMTU3NDIsODE1LjI1NzYgTCAzODguNDM0NDcsODAzLjkxMzQzIHoiIHN0eWxlPSJmaWxsOm5vbmU7ZmlsbC1ydWxlOmV2ZW5vZGQ7c3Ryb2tlOiMwMDAwMDA7c3Ryb2tlLXdpZHRoOjI7c3Ryb2tlLWxpbmVjYXA6YnV0dDtzdHJva2UtbGluZWpvaW46bWl0ZXI7c3Ryb2tlLW1pdGVybGltaXQ6NDtzdHJva2UtZGFzaGFycmF5Om5vbmU7c3Ryb2tlLW9wYWNpdHk6MSIvPiYjeGE7ICAgICAgICA8cGF0aCBpZD0icGF0aDU2NDYiIGQ9Ik0gNDA1LjE5NjkzLDgwMy44MDQzMSBDIDQwNS4xOTY5Myw4MjcuMTc4MzcgNDA1LjE5NjkzLDgyNy4xNzgzNyA0MDUuMTk2OTMsODI3LjE3ODM3IEwgNDA1LjE5NjkzLDgyNy4xNzgzNyBMIDQwNS4xOTY5Myw4MjcuMTc4MzcgTCA0MDUuMTk2OTMsODI3LjE3ODM3IiBzdHlsZT0iZmlsbDpub25lO2ZpbGwtcnVsZTpldmVub2RkO3N0cm9rZTojMDAwMDAwO3N0cm9rZS13aWR0aDoyO3N0cm9rZS1saW5lY2FwOmJ1dHQ7c3Ryb2tlLWxpbmVqb2luOm1pdGVyO3N0cm9rZS1taXRlcmxpbWl0OjQ7c3Ryb2tlLWRhc2hhcnJheTpub25lO3N0cm9rZS1vcGFjaXR5OjEiLz4mI3hhOyAgICAgICAgPHBhdGggaWQ9InBhdGg1NjU2IiBkPSJNIDQwOC44NjUzNCw4MDMuNzgwNiBDIDQwOC44NjUzNCw4MjcuMTU0NjYgNDA4Ljg2NTM0LDgyNy4xNTQ2NiA0MDguODY1MzQsODI3LjE1NDY2IEwgNDA4Ljg2NTM0LDgyNy4xNTQ2NiBMIDQwOC44NjUzNCw4MjcuMTU0NjYgTCA0MDguODY1MzQsODI3LjE1NDY2IiBzdHlsZT0iZmlsbDpub25lO2ZpbGwtcnVsZTpldmVub2RkO3N0cm9rZTojMDAwMDAwO3N0cm9rZS13aWR0aDoyO3N0cm9rZS1saW5lY2FwOmJ1dHQ7c3Ryb2tlLWxpbmVqb2luOm1pdGVyO3N0cm9rZS1taXRlcmxpbWl0OjQ7c3Ryb2tlLWRhc2hhcnJheTpub25lO3N0cm9rZS1vcGFjaXR5OjEiLz4mI3hhOyAgICAgICAgPHRleHQgaWQ9InRleHQyNjA1MCIgeT0iNzMzLjg5NiIgeD0iMzI4LjgyNjMyIiBzdHlsZT0iZm9udC1zaXplOjI0cHg7Zm9udC1zdHlsZTpub3JtYWw7Zm9udC13ZWlnaHQ6bm9ybWFsO2ZpbGw6IzAwMDAwMDtmaWxsLW9wYWNpdHk6MTtzdHJva2U6bm9uZTtzdHJva2Utd2lkdGg6MXB4O3N0cm9rZS1saW5lY2FwOmJ1dHQ7c3Ryb2tlLWxpbmVqb2luOm1pdGVyO3N0cm9rZS1vcGFjaXR5OjE7Zm9udC1mYW1pbHk6QXJpYWwiIHhtbDpzcGFjZT0icHJlc2VydmUiPjx0c3BhbiB5PSI3MzMuODk2IiB4PSIzMjguODI2MzIiIGlkPSJ0c3BhbjI2MDUyIj5WQ088L3RzcGFuPjwvdGV4dD4mI3hhOyAgICAgICAgPGcgdHJhbnNmb3JtPSJ0cmFuc2xhdGUoLTg4MS43MjQwNywtNDUyLjg3MzM3KSIgaWQ9Imc3Mzk5Ij4mI3hhOyAgICAgICAgICA8cGF0aCBzdHlsZT0iY29sb3I6IzAwODAwMDtmaWxsOm5vbmU7c3Ryb2tlOiMwMDAwMDA7c3Ryb2tlLXdpZHRoOjMuMTY5NTM1NDtzdHJva2UtbWl0ZXJsaW1pdDo0O3N0cm9rZS1kYXNoYXJyYXk6bm9uZTtzdHJva2Utb3BhY2l0eToxIiBkPSJNIDEyNzMuMTM5MywxMjM5LjMyMjUgTCAxMjcxLjY2OTQsMTI0MC4yOTkzIEwgMTI3MC4xOTk1LDEyNDEuMjMxNyBMIDEyNjguOTM5NiwxMjQyLjExOTcgTCAxMjY3LjQ2OTcsMTI0Mi45NjM0IEwgMTI2NS45OTk4LDEyNDMuNzYyNiBMIDEyNjQuNzM5OSwxMjQ0LjQ3MyBMIDEyNjMuMjcsMTI0NS4wOTQ2IEwgMTI2MS44MDAxLDEyNDUuNjI3NCBMIDEyNjAuNTQwMiwxMjQ2LjAyNyBMIDEyNTkuMDcwMywxMjQ2LjMzNzggTCAxMjU3LjYwMDQsMTI0Ni41NTk4IEwgMTI1Ni4zNDA1LDEyNDYuNjA0MiBMIDEyNTQuODcwNiwxMjQ2LjU1OTggTCAxMjUzLjQwMDcsMTI0Ni40MjY2IEwgMTI1Mi4xNDA4LDEyNDYuMTE1OCBMIDEyNTAuNjcwOSwxMjQ1LjcxNjIgTCAxMjQ5LjIwMSwxMjQ1LjIyNzggTCAxMjQ3LjczMTEsMTI0NC42MDYyIEwgMTI0Ni40NzEyLDEyNDMuOTQwMiBMIDEyNDUuMDAxMywxMjQzLjE4NTQgTCAxMjQzLjUzMTQsMTI0Mi4zNDE4IEwgMTI0Mi4yNzE1LDEyNDEuNDUzNyBMIDEyNDAuODAxNiwxMjQwLjUyMTMgTCAxMjM5LjMzMTcsMTIzOS41ODg5IEwgMTIzOC4wNzE4LDEyMzguNjEyMSBMIDEyMzYuNjAxOSwxMjM3LjY3OTcgTCAxMjM1LjEzMjEsMTIzNi43NDczIEwgMTIzMy44NzIxLDEyMzUuODU5MyBMIDEyMzIuNDAyMiwxMjM1LjAxNTcgTCAxMjMwLjkzMjQsMTIzNC4yNjA5IEwgMTIyOS42NzI0LDEyMzMuNTUwNSBMIDEyMjguMjAyNSwxMjMyLjk3MzMgTCAxMjI2LjczMjYsMTIzMi40ODQ5IEwgMTIyNS4yNjI4LDEyMzIuMDg1MyBMIDEyMjQuMDAyOCwxMjMxLjc3NDUgTCAxMjIyLjUzMjksMTIzMS42NDEzIEwgMTIyMS4wNjMxLDEyMzEuNTk2OCBMIDEyMTkuODAzMSwxMjMxLjY0MTMgTCAxMjE4LjMzMzIsMTIzMS44NjMzIEwgMTIxNi44NjMzLDEyMzIuMTc0MSBMIDEyMTUuNjAzNCwxMjMyLjU3MzcgTCAxMjE0LjEzMzUsMTIzMy4xMDY1IEwgMTIxMi42NjM2LDEyMzMuNzI4MSBMIDEyMTEuNDAzNywxMjM0LjQzODUgTCAxMjA5LjkzMzgsMTIzNS4yMzc3IEwgMTIwOC40NjM5LDEyMzYuMDgxMyBMIDEyMDcuMjA0LDEyMzYuOTY5MyBMIDEyMDUuNzM0MSwxMjM3LjkwMTcgTCAxMjAzLjY0OTgsMTIzOS4zMDA4IiBpZD0icGF0aDc0MDEiLz4mI3hhOyAgICAgICAgICA8cGF0aCBzdHlsZT0iY29sb3I6IzAwODAwMDtmaWxsOm5vbmU7c3Ryb2tlOiMwMDAwMDA7c3Ryb2tlLXdpZHRoOjMuMTY5NTM1NDtzdHJva2UtbWl0ZXJsaW1pdDo0O3N0cm9rZS1kYXNoYXJyYXk6bm9uZTtzdHJva2Utb3BhY2l0eToxIiBkPSJNIDEyNzEuMDc0NCwxMjA3LjM3MjggTCAxMjY5LjYwNDUsMTIwOC4zNDk2IEwgMTI2OC4xMzQ1LDEyMDkuMjgyIEwgMTI2Ni44NzQ2LDEyMTAuMTcgTCAxMjY1LjQwNDgsMTIxMS4wMTM2IEwgMTI2My45MzQ5LDEyMTEuODEyOSBMIDEyNjIuNjc0OSwxMjEyLjUyMzMgTCAxMjYxLjIwNSwxMjEzLjE0NDkgTCAxMjU5LjczNTEsMTIxMy42Nzc3IEwgMTI1OC40NzUzLDEyMTQuMDc3MyBMIDEyNTcuMDA1NCwxMjE0LjM4ODEgTCAxMjU1LjUzNTQsMTIxNC42MTAxIEwgMTI1NC4yNzU1LDEyMTQuNjU0NSBMIDEyNTIuODA1NywxMjE0LjYxMDEgTCAxMjUxLjMzNTgsMTIxNC40NzY5IEwgMTI1MC4wNzU4LDEyMTQuMTY2MSBMIDEyNDguNjA1OSwxMjEzLjc2NjUgTCAxMjQ3LjEzNjEsMTIxMy4yNzgxIEwgMTI0NS42NjYyLDEyMTIuNjU2NSBMIDEyNDQuNDA2MiwxMjExLjk5MDUgTCAxMjQyLjkzNjMsMTIxMS4yMzU3IEwgMTI0MS40NjY0LDEyMTAuMzkyMSBMIDEyNDAuMjA2NiwxMjA5LjUwNCBMIDEyMzguNzM2NywxMjA4LjU3MTYgTCAxMjM3LjI2NjcsMTIwNy42MzkyIEwgMTIzNi4wMDY4LDEyMDYuNjYyNCBMIDEyMzQuNTM3LDEyMDUuNzMgTCAxMjMzLjA2NzEsMTIwNC43OTc2IEwgMTIzMS44MDcxLDEyMDMuOTA5NiBMIDEyMzAuMzM3MiwxMjAzLjA2NiBMIDEyMjguODY3NCwxMjAyLjMxMTIgTCAxMjI3LjYwNzUsMTIwMS42MDA4IEwgMTIyNi4xMzc1LDEyMDEuMDIzNiBMIDEyMjQuNjY3NiwxMjAwLjUzNTIgTCAxMjIzLjE5NzgsMTIwMC4xMzU1IEwgMTIyMS45Mzc5LDExOTkuODI0OCBMIDEyMjAuNDY4LDExOTkuNjkxNSBMIDEyMTguOTk4LDExOTkuNjQ3MSBMIDEyMTcuNzM4MSwxMTk5LjY5MTUgTCAxMjE2LjI2ODMsMTE5OS45MTM1IEwgMTIxNC43OTg0LDEyMDAuMjI0MyBMIDEyMTMuNTM4NCwxMjAwLjYyMzkgTCAxMjEyLjA2ODUsMTIwMS4xNTY4IEwgMTIxMC41OTg3LDEyMDEuNzc4NCBMIDEyMDkuMzM4OCwxMjAyLjQ4ODggTCAxMjA3Ljg2ODgsMTIwMy4yODggTCAxMjA2LjM5ODksMTIwNC4xMzE2IEwgMTIwNS4xMzksMTIwNS4wMTk2IEwgMTIwMy42NjkyLDEyMDUuOTUyIEwgMTIwMS41ODQ4LDEyMDcuMzUxMSIgaWQ9InBhdGg3NDAzIi8+JiN4YTsgICAgICAgICAgPHBhdGggc3R5bGU9ImNvbG9yOiMwMDgwMDA7ZmlsbDpub25lO3N0cm9rZTojMDAwMDAwO3N0cm9rZS13aWR0aDozLjE2OTUzNTQ7c3Ryb2tlLW1pdGVybGltaXQ6NDtzdHJva2UtZGFzaGFycmF5Om5vbmU7c3Ryb2tlLW9wYWNpdHk6MSIgZD0iTSAxMjcyLjI1NjEsMTIyMy42OTUyIEwgMTI3MC43ODYyLDEyMjQuNjcyIEwgMTI2OS4zMTY0LDEyMjUuNjA0NCBMIDEyNjguMDU2NCwxMjI2LjQ5MjQgTCAxMjY2LjU4NjUsMTIyNy4zMzYgTCAxMjY1LjExNjYsMTIyOC4xMzUyIEwgMTI2My44NTY4LDEyMjguODQ1NiBMIDEyNjIuMzg2OCwxMjI5LjQ2NzIgTCAxMjYwLjkxNjksMTIzMCBMIDEyNTkuNjU3LDEyMzAuMzk5NyBMIDEyNTguMTg3MiwxMjMwLjcxMDUgTCAxMjU2LjcxNzMsMTIzMC45MzI1IEwgMTI1NS40NTczLDEyMzAuOTc2OSBMIDEyNTMuOTg3NCwxMjMwLjkzMjUgTCAxMjUyLjUxNzUsMTIzMC43OTkzIEwgMTI1MS4yNTc3LDEyMzAuNDg4NCBMIDEyNDkuNzg3NywxMjMwLjA4ODggTCAxMjQ4LjMxNzgsMTIyOS42MDA0IEwgMTI0Ni44NDc5LDEyMjguOTc4OCBMIDEyNDUuNTg4LDEyMjguMzEyOCBMIDEyNDQuMTE4MSwxMjI3LjU1OCBMIDEyNDIuNjQ4MiwxMjI2LjcxNDQgTCAxMjQxLjM4ODMsMTIyNS44MjY0IEwgMTIzOS45MTg0LDEyMjQuODk0IEwgMTIzOC40NDg1LDEyMjMuOTYxNiBMIDEyMzcuMTg4NiwxMjIyLjk4NDggTCAxMjM1LjcxODcsMTIyMi4wNTI0IEwgMTIzNC4yNDg4LDEyMjEuMTIgTCAxMjMyLjk4ODksMTIyMC4yMzE5IEwgMTIzMS41MTksMTIxOS4zODgzIEwgMTIzMC4wNDkxLDEyMTguNjMzNSBMIDEyMjguNzg5MiwxMjE3LjkyMzEgTCAxMjI3LjMxOTMsMTIxNy4zNDU5IEwgMTIyNS44NDk0LDEyMTYuODU3NSBMIDEyMjQuMzc5NSwxMjE2LjQ1NzkgTCAxMjIzLjExOTYsMTIxNi4xNDcxIEwgMTIyMS42NDk3LDEyMTYuMDEzOSBMIDEyMjAuMTc5OCwxMjE1Ljk2OTUgTCAxMjE4LjkxOTksMTIxNi4wMTM5IEwgMTIxNy40NSwxMjE2LjIzNTkgTCAxMjE1Ljk4MDEsMTIxNi41NDY3IEwgMTIxNC43MjAyLDEyMTYuOTQ2MyBMIDEyMTMuMjUwMywxMjE3LjQ3OTEgTCAxMjExLjc4MDQsMTIxOC4xMDA3IEwgMTIxMC41MjA1LDEyMTguODExMSBMIDEyMDkuMDUwNiwxMjE5LjYxMDMgTCAxMjA3LjU4MDcsMTIyMC40NTM5IEwgMTIwNi4zMjA4LDEyMjEuMzQyIEwgMTIwNC44NTA5LDEyMjIuMjc0NCBMIDEyMDIuNzY2NSwxMjIzLjY3MzUiIGlkPSJwYXRoNzQwNSIvPiYjeGE7ICAgICAgICA8L2c+JiN4YTsgICAgICA8L2c+JiN4YTsgICAgICA8cGF0aCBzdHlsZT0iZmlsbDojNmM1ZDUzO2ZpbGwtb3BhY2l0eToxO2ZpbGwtcnVsZTpldmVub2RkO3N0cm9rZTpub25lO3N0cm9rZS13aWR0aDoxcHg7c3Ryb2tlLWxpbmVjYXA6YnV0dDtzdHJva2UtbGluZWpvaW46bWl0ZXI7c3Ryb2tlLW9wYWNpdHk6MSIgZD0iTSAxNTYzLjk5OTksNzY4LjE4ODk2IEwgMTU0My45OTk5LDc1OC4xODg5NiBMIDE1NDMuOTk5OSw3NzguMTg4OTYgTCAxNTYzLjk5OTksNzY4LjE4ODk2IHoiIGlkPSJwYXRoOTQ0MyIvPiYjeGE7ICAgICAgPHJlY3Qgc3R5bGU9Im9wYWNpdHk6MTtmaWxsOiM2YzVkNTM7ZmlsbC1vcGFjaXR5OjE7ZmlsbC1ydWxlOm5vbnplcm87c3Ryb2tlOiM2YzVkNTM7c3Ryb2tlLXdpZHRoOjIuNjA2OTk3MjU7c3Ryb2tlLWxpbmVjYXA6c3F1YXJlO3N0cm9rZS1saW5lam9pbjptaXRlcjtzdHJva2UtbWl0ZXJsaW1pdDo0O3N0cm9rZS1kYXNoYXJyYXk6bm9uZTtzdHJva2UtZGFzaG9mZnNldDowO3N0cm9rZS1vcGFjaXR5OjEiIGlkPSJyZWN0OTQ0NSIgd2lkdGg9IjIuODgxNDA4NyIgaGVpZ2h0PSI4Mi44ODU0OTgiIHg9Ijc2Ny4xMTg1OSIgeT0iLTE1NTIuNjk2NSIgdHJhbnNmb3JtPSJtYXRyaXgoMCwxLC0xLDAsMCwwKSIvPiYjeGE7ICAgICAgPHBhdGggc3R5bGU9ImZpbGw6IzZjNWQ1MztmaWxsLW9wYWNpdHk6MTtmaWxsLXJ1bGU6ZXZlbm9kZDtzdHJva2U6bm9uZTtzdHJva2Utd2lkdGg6MXB4O3N0cm9rZS1saW5lY2FwOmJ1dHQ7c3Ryb2tlLWxpbmVqb2luOm1pdGVyO3N0cm9rZS1vcGFjaXR5OjEiIGQ9Ik0gMTYzNiw0NTAuMTg5MDIgTCAxNjI2LDQzMC4xODkwMiBMIDE2NDYsNDMwLjE4OTAyIEwgMTYzNiw0NTAuMTg5MDIgeiIgaWQ9InBhdGg5NDQ3Ii8+JiN4YTsgICAgICA8cmVjdCBzdHlsZT0ib3BhY2l0eToxO2ZpbGw6IzZjNWQ1MztmaWxsLW9wYWNpdHk6MTtmaWxsLXJ1bGU6bm9uemVybztzdHJva2U6IzZjNWQ1MztzdHJva2Utd2lkdGg6Mi43MzU5NDUyMjtzdHJva2UtbGluZWNhcDpzcXVhcmU7c3Ryb2tlLWxpbmVqb2luOm1pdGVyO3N0cm9rZS1taXRlcmxpbWl0OjQ7c3Ryb2tlLWRhc2hhcnJheTpub25lO3N0cm9rZS1kYXNob2Zmc2V0OjA7c3Ryb2tlLW9wYWNpdHk6MSIgaWQ9InJlY3Q5NDQ5IiB3aWR0aD0iMi4zMzc4NzA2IiBoZWlnaHQ9IjkyLjI2NDA1MyIgeD0iMTYzNC40OTQiIHk9Ii00MzEuODIwOTgiIHRyYW5zZm9ybT0ic2NhbGUoMSwtMSkiLz4mI3hhOyAgICAgIDx0ZXh0IHhtbDpzcGFjZT0icHJlc2VydmUiIHN0eWxlPSJmb250LXNpemU6MjRweDtmb250LXN0eWxlOm5vcm1hbDtmb250LXdlaWdodDpub3JtYWw7dGV4dC1hbGlnbjpjZW50ZXI7dGV4dC1hbmNob3I6bWlkZGxlO2ZpbGw6IzAwMDAwMDtmaWxsLW9wYWNpdHk6MTtzdHJva2U6bm9uZTtzdHJva2Utd2lkdGg6MXB4O3N0cm9rZS1saW5lY2FwOmJ1dHQ7c3Ryb2tlLWxpbmVqb2luOm1pdGVyO3N0cm9rZS1vcGFjaXR5OjE7Zm9udC1mYW1pbHk6QXJpYWwiIHg9IjEzOTguOTQ5MiIgeT0iNjExLjkwNzcxIiBpZD0idGV4dDk0NjAiPjx0c3BhbiBpZD0idHNwYW45NDYyIiB4PSIxNDAyLjI3NzMiIHk9IjYxMS45MDc3MSI+Z2VyZWdlbHRlciA8L3RzcGFuPjx0c3BhbiB4PSIxMzk4Ljk0OTIiIHk9IjY0MS45MDc3MSIgaWQ9InRzcGFuOTQ2NCI+WkYtVmVyc3TDpHJrZXI8L3RzcGFuPjwvdGV4dD4mI3hhOyAgICAgIDx0ZXh0IHhtbDpzcGFjZT0icHJlc2VydmUiIHN0eWxlPSJmb250LXNpemU6MjRweDtmb250LXN0eWxlOm5vcm1hbDtmb250LXdlaWdodDpub3JtYWw7dGV4dC1hbGlnbjpjZW50ZXI7dGV4dC1hbmNob3I6bWlkZGxlO2ZpbGw6IzAwMDAwMDtmaWxsLW9wYWNpdHk6MTtzdHJva2U6bm9uZTtzdHJva2Utd2lkdGg6MXB4O3N0cm9rZS1saW5lY2FwOmJ1dHQ7c3Ryb2tlLWxpbmVqb2luOm1pdGVyO3N0cm9rZS1vcGFjaXR5OjE7Zm9udC1mYW1pbHk6QXJpYWwiIHg9IjEzOTcuOTAyMyIgeT0iODU5LjY2MTYyIiBpZD0idGV4dDk0NjYiPjx0c3BhbiBpZD0idHNwYW45NDY4IiB4PSIxNDAxLjIzMDUiIHk9Ijg1OS42NjE2MiI+WkYtVmVyc3TDpHJrZXIgLyA8L3RzcGFuPjx0c3BhbiB4PSIxMzk3LjkwMjMiIHk9Ijg4OS42NjE2MiIgaWQ9InRzcGFuOTQ3MCI+QmVncmVuemVyPC90c3Bhbj48L3RleHQ+JiN4YTsgICAgICA8dGV4dCB4bWw6c3BhY2U9InByZXNlcnZlIiBzdHlsZT0iZm9udC1zaXplOjI0cHg7Zm9udC1zdHlsZTpub3JtYWw7Zm9udC13ZWlnaHQ6bm9ybWFsO2ZpbGw6IzAwMDAwMDtmaWxsLW9wYWNpdHk6MTtzdHJva2U6bm9uZTtzdHJva2Utd2lkdGg6MXB4O3N0cm9rZS1saW5lY2FwOmJ1dHQ7c3Ryb2tlLWxpbmVqb2luOm1pdGVyO3N0cm9rZS1vcGFjaXR5OjE7Zm9udC1mYW1pbHk6QXJpYWwiIHg9IjE1NDQuMDMxMiIgeT0iODU5LjkwNzcxIiBpZD0idGV4dDk0NzIiPjx0c3BhbiBpZD0idHNwYW45NDc0IiB4PSIxNTQ0LjAzMTIiIHk9Ijg1OS45MDc3MSI+Rk0tRGVtb2R1bGF0b3I8L3RzcGFuPjwvdGV4dD4mI3hhOyAgICAgIDx0ZXh0IHhtbDpzcGFjZT0icHJlc2VydmUiIHN0eWxlPSJmb250LXNpemU6MjRweDtmb250LXN0eWxlOm5vcm1hbDtmb250LXdlaWdodDpub3JtYWw7ZmlsbDojMDAwMDAwO2ZpbGwtb3BhY2l0eToxO3N0cm9rZTpub25lO3N0cm9rZS13aWR0aDoxcHg7c3Ryb2tlLWxpbmVjYXA6YnV0dDtzdHJva2UtbGluZWpvaW46bWl0ZXI7c3Ryb2tlLW9wYWNpdHk6MTtmb250LWZhbWlseTpBcmlhbCIgeD0iMTY1Ni4wMzEyIiB5PSI4MjAuMTg4OTYiIGlkPSJ0ZXh0OTQ3NiI+PHRzcGFuIGlkPSJ0c3Bhbjk0NzgiIHg9IjE2NTYuMDMxMiIgeT0iODIwLjE4ODk2Ij5GTTwvdHNwYW4+PC90ZXh0PiYjeGE7ICAgICAgPHRleHQgeG1sOnNwYWNlPSJwcmVzZXJ2ZSIgc3R5bGU9ImZvbnQtc2l6ZToyNHB4O2ZvbnQtc3R5bGU6bm9ybWFsO2ZvbnQtd2VpZ2h0Om5vcm1hbDtmaWxsOiMwMDAwMDA7ZmlsbC1vcGFjaXR5OjE7c3Ryb2tlOm5vbmU7c3Ryb2tlLXdpZHRoOjFweDtzdHJva2UtbGluZWNhcDpidXR0O3N0cm9rZS1saW5lam9pbjptaXRlcjtzdHJva2Utb3BhY2l0eToxO2ZvbnQtZmFtaWx5OkFyaWFsIiB4PSIxNTQyLjY5NTMiIHk9IjYxMy4zNjg2NSIgaWQ9InRleHQ5NDgwIj48dHNwYW4gaWQ9InRzcGFuOTQ4MiIgeD0iMTU0Mi42OTUzIiB5PSI2MTMuMzY4NjUiPlJpbmdkZW1vZHVsYXRvcjwvdHNwYW4+PC90ZXh0PiYjeGE7ICAgICAgPGcgaWQ9ImczMTExNyIgdHJhbnNmb3JtPSJ0cmFuc2xhdGUoMjgsMCkiPiYjeGE7ICAgICAgICA8cmVjdCB5PSI0NDkuNTY5MzEiIHg9Ijc1MC43MjAwOSIgaGVpZ2h0PSIxMzYuMDE5NyIgd2lkdGg9IjE0MS41ODg4NyIgaWQ9InJlY3QxOTI3MiIgc3R5bGU9ImZpbGw6I2ZmOTk1NTtmaWxsLW9wYWNpdHk6MTtmaWxsLXJ1bGU6bm9uemVybztzdHJva2U6IzAwMDAwMDtzdHJva2Utd2lkdGg6MS44OTI1NDQ5ODtzdHJva2UtbGluZWNhcDpzcXVhcmU7c3Ryb2tlLWxpbmVqb2luOm1pdGVyO3N0cm9rZS1taXRlcmxpbWl0OjQ7c3Ryb2tlLWRhc2hhcnJheToxMS4zNTUyNjk3NSwgMS44OTI1NDQ5NjtzdHJva2UtZGFzaG9mZnNldDowO3N0cm9rZS1vcGFjaXR5OjEiLz4mI3hhOyAgICAgICAgPHBhdGggaWQ9InBhdGgxOTI3NCIgZD0iTSA3NDkuODM4MTMsNDUwLjU4NDUgTCA4OTEuNjQyODMsNTg2LjYwNDIiIHN0eWxlPSJmaWxsOm5vbmU7ZmlsbC1ydWxlOmV2ZW5vZGQ7c3Ryb2tlOiMwMDAwMDA7c3Ryb2tlLXdpZHRoOjMuMTY5NTM1NDtzdHJva2UtbGluZWNhcDpidXR0O3N0cm9rZS1saW5lam9pbjptaXRlcjtzdHJva2UtbWl0ZXJsaW1pdDo0O3N0cm9rZS1kYXNoYXJyYXk6bm9uZTtzdHJva2Utb3BhY2l0eToxIi8+JiN4YTsgICAgICAgIDxwYXRoIGlkPSJwYXRoMTkyNzYiIGQ9Ik0gODkxLjY0MjgzLDQ1MC41ODQ1IEwgNzQ5LjgzODEzLDU4Ni42MDQyIiBzdHlsZT0iZmlsbDpub25lO2ZpbGwtcnVsZTpldmVub2RkO3N0cm9rZTojMDAwMDAwO3N0cm9rZS13aWR0aDozLjE2OTUzNTQ7c3Ryb2tlLWxpbmVjYXA6YnV0dDtzdHJva2UtbGluZWpvaW46bWl0ZXI7c3Ryb2tlLW1pdGVybGltaXQ6NDtzdHJva2UtZGFzaGFycmF5Om5vbmU7c3Ryb2tlLW9wYWNpdHk6MSIvPiYjeGE7ICAgICAgICA8dGV4dCBpZD0idGV4dDIyNzgiIHk9IjQzOS45MDc3MSIgeD0iNzY1LjI5Njg4IiBzdHlsZT0iZm9udC1zaXplOjI0cHg7Zm9udC1zdHlsZTpub3JtYWw7Zm9udC13ZWlnaHQ6bm9ybWFsO2ZpbGw6IzAwMDAwMDtmaWxsLW9wYWNpdHk6MTtzdHJva2U6bm9uZTtzdHJva2Utd2lkdGg6MXB4O3N0cm9rZS1saW5lY2FwOmJ1dHQ7c3Ryb2tlLWxpbmVqb2luOm1pdGVyO3N0cm9rZS1vcGFjaXR5OjE7Zm9udC1mYW1pbHk6QXJpYWwiIHhtbDpzcGFjZT0icHJlc2VydmUiPjx0c3BhbiB5PSI0MzkuOTA3NzEiIHg9Ijc2NS4yOTY4OCIgaWQ9InRzcGFuMjI4MCI+Mi4gTWlzY2hlcjwvdHNwYW4+PC90ZXh0PiYjeGE7ICAgICAgICA8cGF0aCBpZD0icGF0aDI0MjgiIGQ9Ik0gODIwLjYsNTg2LjE4ODk2IEwgODEwLjYsNjA2LjE4ODk2IEwgODMwLjYsNjA2LjE4ODk2IEwgODIwLjYsNTg2LjE4ODk2IHoiIHN0eWxlPSJmaWxsOiM2YzVkNTM7ZmlsbC1vcGFjaXR5OjE7ZmlsbC1ydWxlOmV2ZW5vZGQ7c3Ryb2tlOm5vbmU7c3Ryb2tlLXdpZHRoOjFweDtzdHJva2UtbGluZWNhcDpidXR0O3N0cm9rZS1saW5lam9pbjptaXRlcjtzdHJva2Utb3BhY2l0eToxIi8+JiN4YTsgICAgICA8L2c+JiN4YTsgICAgICA8cmVjdCBzdHlsZT0iZmlsbDojNmM1ZDUzO2ZpbGwtb3BhY2l0eToxO2ZpbGwtcnVsZTpub256ZXJvO3N0cm9rZTojNmM1ZDUzO3N0cm9rZS13aWR0aDoyLjczNTk0NTIyO3N0cm9rZS1saW5lY2FwOnNxdWFyZTtzdHJva2UtbGluZWpvaW46bWl0ZXI7c3Ryb2tlLW1pdGVybGltaXQ6NDtzdHJva2UtZGFzaGFycmF5Om5vbmU7c3Ryb2tlLWRhc2hvZmZzZXQ6MDtzdHJva2Utb3BhY2l0eToxIiBpZD0icmVjdDUzNDEiIHdpZHRoPSIyLjMzNzg3MDYiIGhlaWdodD0iOTIuMjY0MDUzIiB4PSI4NDcuMDkzOTkiIHk9IjYwNC41NTY5NSIvPiYjeGE7ICAgICAgPGcgaWQ9ImcyMjEzNSIgdHJhbnNmb3JtPSJ0cmFuc2xhdGUoMjgsMCkiPiYjeGE7ICAgICAgICA8cGF0aCBpZD0icGF0aDk0ODQiIGQ9Ik0gODkyLjk1NjQsNTE2Ljk3Mjc1IEMgOTIyLjQ5MzYsNTE2Ljk3Mjc1IDkyMi40OTM2LDUxNi45NzI3NSA5MjIuNDkzNiw1MTYuOTcyNzUiIHN0eWxlPSJmaWxsOm5vbmU7ZmlsbC1ydWxlOmV2ZW5vZGQ7c3Ryb2tlOiM2YzVkNTM7c3Ryb2tlLXdpZHRoOjUuMDg2MjM5ODE7c3Ryb2tlLWxpbmVjYXA6YnV0dDtzdHJva2UtbGluZWpvaW46bWl0ZXI7c3Ryb2tlLW1pdGVybGltaXQ6NDtzdHJva2UtZGFzaGFycmF5Om5vbmU7c3Ryb2tlLW9wYWNpdHk6MSIvPiYjeGE7ICAgICAgICA8cGF0aCBpZD0icGF0aDEwNDU1IiBkPSJNIDEwMjIsMjY4LjE4ODk2IEwgOTkyLDI2OC4xODg5NiBMIDk5Miw0ODguMTg4OTYgTCA5NjIsNDg4LjE4ODk2IiBzdHlsZT0iZmlsbDpub25lO2ZpbGwtb3BhY2l0eToxO2ZpbGwtcnVsZTpldmVub2RkO3N0cm9rZTojNmM1ZDUzO3N0cm9rZS13aWR0aDo1LjA5OTk5OTk7c3Ryb2tlLWxpbmVjYXA6YnV0dDtzdHJva2UtbGluZWpvaW46bWl0ZXI7c3Ryb2tlLW1pdGVybGltaXQ6NDtzdHJva2UtZGFzaGFycmF5Om5vbmU7c3Ryb2tlLW9wYWNpdHk6MSIvPiYjeGE7ICAgICAgICA8cGF0aCBpZD0icGF0aDExNDI2IiBkPSJNIDk2MS4yNSw1NDcuODM4OTYgTCA5OTEuMjUsNTQ3LjgzODk2IEwgOTkxLjI1LDc2Ny44Mzg5NiBMIDEwMjEuMjUsNzY3LjgzODk2IiBzdHlsZT0iZmlsbDpub25lO2ZpbGwtcnVsZTpldmVub2RkO3N0cm9rZTojNmM1ZDUzO3N0cm9rZS13aWR0aDo1LjA5OTk5OTk7c3Ryb2tlLWxpbmVjYXA6YnV0dDtzdHJva2UtbGluZWpvaW46bWl0ZXI7c3Ryb2tlLW1pdGVybGltaXQ6NDtzdHJva2UtZGFzaGFycmF5Om5vbmU7c3Ryb2tlLW9wYWNpdHk6MSIvPiYjeGE7ICAgICAgICA8cGF0aCBpZD0icGF0aDExNDI4IiBkPSJNIDEwMjIsNTE4LjE4ODk2IEwgOTYyLDUxOC4xODg5NiIgc3R5bGU9ImZpbGw6bm9uZTtmaWxsLXJ1bGU6ZXZlbm9kZDtzdHJva2U6IzZjNWQ1MztzdHJva2Utd2lkdGg6NS4wOTk5OTk5O3N0cm9rZS1saW5lY2FwOmJ1dHQ7c3Ryb2tlLWxpbmVqb2luOm1pdGVyO3N0cm9rZS1taXRlcmxpbWl0OjQ7c3Ryb2tlLWRhc2hhcnJheTpub25lO3N0cm9rZS1vcGFjaXR5OjEiLz4mI3hhOyAgICAgICAgPHBhdGggdHJhbnNmb3JtPSJtYXRyaXgoMS4yOTE4OTI5LDAsMCwxLjEyMDI1ODQsNC4yODMwMTc2LDE5MS4zMDQ3NikiIGQ9Ik0gNzE1LjAxMDc2IDI5MC42MjYwNyBBIDIuNDA0NzQ0OSAzLjIwNjMyNjUgMCAxIDEgIDcxMC4yMDEyNywyOTAuNjI2MDcgQSAyLjQwNDc0NDkgMy4yMDYzMjY1IDAgMSAxICA3MTUuMDEwNzYgMjkwLjYyNjA3IHoiIGlkPSJwYXRoMTIzOTkiIHN0eWxlPSJmaWxsOiM2YzVkNTM7ZmlsbC1vcGFjaXR5OjE7ZmlsbC1ydWxlOm5vbnplcm87c3Ryb2tlOiM2YzVkNTM7c3Ryb2tlLXdpZHRoOjEuNjYyNDg0NjU7c3Ryb2tlLWxpbmVjYXA6c3F1YXJlO3N0cm9rZS1saW5lam9pbjptaXRlcjtzdHJva2UtbWl0ZXJsaW1pdDo0O3N0cm9rZS1kYXNoYXJyYXk6bm9uZTtzdHJva2UtZGFzaG9mZnNldDowO3N0cm9rZS1vcGFjaXR5OjEiLz4mI3hhOyAgICAgICAgPHBhdGggdHJhbnNmb3JtPSJtYXRyaXgoMS4yOTE4OTI5LDAsMCwxLjEyMDI1ODQsMzguNDk2MDE4LDE2Mi4zMjA3NikiIGQ9Ik0gNzE1LjAxMDc2IDI5MC42MjYwNyBBIDIuNDA0NzQ0OSAzLjIwNjMyNjUgMCAxIDEgIDcxMC4yMDEyNywyOTAuNjI2MDcgQSAyLjQwNDc0NDkgMy4yMDYzMjY1IDAgMSAxICA3MTUuMDEwNzYgMjkwLjYyNjA3IHoiIGlkPSJwYXRoMTMzNzAiIHN0eWxlPSJmaWxsOm5vbmU7ZmlsbC1vcGFjaXR5OjE7ZmlsbC1ydWxlOm5vbnplcm87c3Ryb2tlOiM2YzVkNTM7c3Ryb2tlLXdpZHRoOjEuNjYyNDg0NjU7c3Ryb2tlLWxpbmVjYXA6c3F1YXJlO3N0cm9rZS1saW5lam9pbjptaXRlcjtzdHJva2UtbWl0ZXJsaW1pdDo0O3N0cm9rZS1kYXNoYXJyYXk6bm9uZTtzdHJva2UtZGFzaG9mZnNldDowO3N0cm9rZS1vcGFjaXR5OjEiLz4mI3hhOyAgICAgICAgPHBhdGggdHJhbnNmb3JtPSJtYXRyaXgoMS4yOTE4OTI5LDAsMCwxLjEyMDI1ODQsMzcuMjgyNjcyLDIyMi4yMDQ1OCkiIGQ9Ik0gNzE1LjAxMDc2IDI5MC42MjYwNyBBIDIuNDA0NzQ0OSAzLjIwNjMyNjUgMCAxIDEgIDcxMC4yMDEyNywyOTAuNjI2MDcgQSAyLjQwNDc0NDkgMy4yMDYzMjY1IDAgMSAxICA3MTUuMDEwNzYgMjkwLjYyNjA3IHoiIGlkPSJwYXRoMTQzNDEiIHN0eWxlPSJmaWxsOm5vbmU7ZmlsbC1vcGFjaXR5OjE7ZmlsbC1ydWxlOm5vbnplcm87c3Ryb2tlOiM2YzVkNTM7c3Ryb2tlLXdpZHRoOjEuNjYyNDg0NjU7c3Ryb2tlLWxpbmVjYXA6c3F1YXJlO3N0cm9rZS1saW5lam9pbjptaXRlcjtzdHJva2UtbWl0ZXJsaW1pdDo0O3N0cm9rZS1kYXNoYXJyYXk6bm9uZTtzdHJva2UtZGFzaG9mZnNldDowO3N0cm9rZS1vcGFjaXR5OjEiLz4mI3hhOyAgICAgICAgPHBhdGggdHJhbnNmb3JtPSJtYXRyaXgoMS4yOTE4OTI5LDAsMCwxLjEyMDI1ODQsMzguMjgyNjcyLDE5Mi4yMDQ1OCkiIGQ9Ik0gNzE1LjAxMDc2IDI5MC42MjYwNyBBIDIuNDA0NzQ0OSAzLjIwNjMyNjUgMCAxIDEgIDcxMC4yMDEyNywyOTAuNjI2MDcgQSAyLjQwNDc0NDkgMy4yMDYzMjY1IDAgMSAxICA3MTUuMDEwNzYgMjkwLjYyNjA3IHoiIGlkPSJwYXRoMTQzNDMiIHN0eWxlPSJmaWxsOm5vbmU7ZmlsbC1vcGFjaXR5OjE7ZmlsbC1ydWxlOm5vbnplcm87c3Ryb2tlOiM2YzVkNTM7c3Ryb2tlLXdpZHRoOjEuNjYyNDg0NjU7c3Ryb2tlLWxpbmVjYXA6c3F1YXJlO3N0cm9rZS1saW5lam9pbjptaXRlcjtzdHJva2UtbWl0ZXJsaW1pdDo0O3N0cm9rZS1kYXNoYXJyYXk6bm9uZTtzdHJva2UtZGFzaG9mZnNldDowO3N0cm9rZS1vcGFjaXR5OjEiLz4mI3hhOyAgICAgICAgPHBhdGggaWQ9InBhdGgxNDM0NSIgZD0iTSA5MjUuOTgyMzcsNTE1LjkwNjU5IEMgOTU3LjcxNzYzLDQ5MC40NzEzNCA5NTcuNzE3NjMsNDkwLjQ3MTM0IDk1Ny43MTc2Myw0OTAuNDcxMzQgTCA5NTcuNzE3NjMsNDkwLjQ3MTM0IEwgOTU3LjcxNzYzLDQ5MC40NzEzNCIgc3R5bGU9ImZpbGw6bm9uZTtmaWxsLXJ1bGU6ZXZlbm9kZDtzdHJva2U6IzZjNWQ1MztzdHJva2Utd2lkdGg6NC41NjQ3NDI1NztzdHJva2UtbGluZWNhcDpidXR0O3N0cm9rZS1saW5lam9pbjptaXRlcjtzdHJva2UtbWl0ZXJsaW1pdDo0O3N0cm9rZS1kYXNoYXJyYXk6bm9uZTtzdHJva2Utb3BhY2l0eToxIi8+JiN4YTsgICAgICAgIDxwYXRoIGlkPSJwYXRoMTUzMTYiIGQ9Ik0gOTM1LDUwNy41ODE4MiBDIDkzNSw0ODMuMjk2MSA5MzUsNDgzLjI5NjEgOTM1LDQ4My4yOTYxIiBzdHlsZT0iZmlsbDpub25lO2ZpbGwtcnVsZTpldmVub2RkO3N0cm9rZTojNmM1ZDUzO3N0cm9rZS13aWR0aDoyLjU7c3Ryb2tlLWxpbmVjYXA6YnV0dDtzdHJva2UtbGluZWpvaW46bWl0ZXI7c3Ryb2tlLW1pdGVybGltaXQ6NDtzdHJva2UtZGFzaGFycmF5Om5vbmU7c3Ryb2tlLW9wYWNpdHk6MSIvPiYjeGE7ICAgICAgICA8cGF0aCBpZD0icGF0aDE1MzE4IiBkPSJNIDk0NSw0OTguMTg4OTYgQyA5NDUsNDgzLjE4ODk2IDk0NSw0ODMuMTg4OTYgOTQ1LDQ4My4xODg5NiIgc3R5bGU9ImZpbGw6bm9uZTtmaWxsLXJ1bGU6ZXZlbm9kZDtzdHJva2U6IzZjNWQ1MztzdHJva2Utd2lkdGg6Mi41O3N0cm9rZS1saW5lY2FwOmJ1dHQ7c3Ryb2tlLWxpbmVqb2luOm1pdGVyO3N0cm9rZS1taXRlcmxpbWl0OjQ7c3Ryb2tlLWRhc2hhcnJheTpub25lO3N0cm9rZS1vcGFjaXR5OjEiLz4mI3hhOyAgICAgICAgPHBhdGggaWQ9InBhdGgxNTMyMCIgZD0iTSA5MjkuNiw0ODguMTg4OTYgTCA5MjkuNiw0ODMuMTg4OTYgTCA5NDkuNiw0ODMuMTg4OTYgTCA5NDkuNiw0ODguMTg4OTYiIHN0eWxlPSJmaWxsOm5vbmU7ZmlsbC1ydWxlOmV2ZW5vZGQ7c3Ryb2tlOiM2YzVkNTM7c3Ryb2tlLXdpZHRoOjIuNTtzdHJva2UtbGluZWNhcDpidXR0O3N0cm9rZS1saW5lam9pbjptaXRlcjtzdHJva2UtbWl0ZXJsaW1pdDo0O3N0cm9rZS1kYXNoYXJyYXk6bm9uZTtzdHJva2Utb3BhY2l0eToxIi8+JiN4YTsgICAgICA8L2c+JiN4YTsgICAgICA8cGF0aCBzdHlsZT0iZmlsbDpub25lO2ZpbGwtcnVsZTpldmVub2RkO3N0cm9rZTojNmM1ZDUzO3N0cm9rZS13aWR0aDo1LjgzNTk2NDI7c3Ryb2tlLWxpbmVjYXA6YnV0dDtzdHJva2UtbGluZWpvaW46bWl0ZXI7c3Ryb2tlLW1pdGVybGltaXQ6NDtzdHJva2UtZGFzaGFycmF5Om5vbmU7c3Ryb2tlLW9wYWNpdHk6MSIgZD0iTSAxMzI5Ljg2MzQsNTE0Ljc3Mjc1IEMgMTI5MC45NzY2LDUxNC43NzI3NSAxMjkwLjk3NjYsNTE0Ljc3Mjc1IDEyOTAuOTc2Niw1MTQuNzcyNzUiIGlkPSJwYXRoMjIxNTEiLz4mI3hhOyAgICAgIDxwYXRoIHN0eWxlPSJmaWxsOm5vbmU7ZmlsbC1vcGFjaXR5OjE7ZmlsbC1ydWxlOmV2ZW5vZGQ7c3Ryb2tlOiM2YzVkNTM7c3Ryb2tlLXdpZHRoOjUuMDk5OTk5OTtzdHJva2UtbGluZWNhcDpidXR0O3N0cm9rZS1saW5lam9pbjptaXRlcjtzdHJva2UtbWl0ZXJsaW1pdDo0O3N0cm9rZS1kYXNoYXJyYXk6bm9uZTtzdHJva2Utb3BhY2l0eToxIiBkPSJNIDExOTEuNzUsMjY1Ljk4ODk2IEwgMTIyMS43NSwyNjUuOTg4OTYgTCAxMjIxLjc1LDQ4NS45ODg5NiBMIDEyNTEuNzUsNDg1Ljk4ODk2IiBpZD0icGF0aDIyMTUzIi8+JiN4YTsgICAgICA8cGF0aCBzdHlsZT0iZmlsbDpub25lO2ZpbGwtcnVsZTpldmVub2RkO3N0cm9rZTojNmM1ZDUzO3N0cm9rZS13aWR0aDo1LjA5OTk5OTk7c3Ryb2tlLWxpbmVjYXA6YnV0dDtzdHJva2UtbGluZWpvaW46bWl0ZXI7c3Ryb2tlLW1pdGVybGltaXQ6NDtzdHJva2UtZGFzaGFycmF5Om5vbmU7c3Ryb2tlLW9wYWNpdHk6MSIgZD0iTSAxMjUzLjc2MzgsNTQ0LjM3NTEzIEwgMTIyMS43OTkxLDU0NC4zNzUxMyBMIDEyMjEuNzk5MSw1OTYuOTAyOCIgaWQ9InBhdGgyMjE1NSIvPiYjeGE7ICAgICAgPHBhdGggc3R5bGU9ImZpbGw6bm9uZTtmaWxsLXJ1bGU6ZXZlbm9kZDtzdHJva2U6IzZjNWQ1MztzdHJva2Utd2lkdGg6NS4wOTk5OTk5O3N0cm9rZS1saW5lY2FwOmJ1dHQ7c3Ryb2tlLWxpbmVqb2luOm1pdGVyO3N0cm9rZS1taXRlcmxpbWl0OjQ7c3Ryb2tlLWRhc2hhcnJheTpub25lO3N0cm9rZS1vcGFjaXR5OjEiIGQ9Ik0gMTE5MS43NSw1MTUuOTg4OTYgTCAxMjUxLjc1LDUxNS45ODg5NiIgaWQ9InBhdGgyMjE1NyIvPiYjeGE7ICAgICAgPHBhdGggc3R5bGU9ImZpbGw6IzZjNWQ1MztmaWxsLW9wYWNpdHk6MTtmaWxsLXJ1bGU6bm9uemVybztzdHJva2U6IzZjNWQ1MztzdHJva2Utd2lkdGg6MS42NjI0ODQ2NTtzdHJva2UtbGluZWNhcDpzcXVhcmU7c3Ryb2tlLWxpbmVqb2luOm1pdGVyO3N0cm9rZS1taXRlcmxpbWl0OjQ7c3Ryb2tlLWRhc2hhcnJheTpub25lO3N0cm9rZS1kYXNob2Zmc2V0OjA7c3Ryb2tlLW9wYWNpdHk6MSIgaWQ9InBhdGgyMjE1OSIgZD0iTSA3MTUuMDEwNzYgMjkwLjYyNjA3IEEgMi40MDQ3NDQ5IDMuMjA2MzI2NSAwIDEgMSAgNzEwLjIwMTI3LDI5MC42MjYwNyBBIDIuNDA0NzQ0OSAzLjIwNjMyNjUgMCAxIDEgIDcxNS4wMTA3NiAyOTAuNjI2MDcgeiIgdHJhbnNmb3JtPSJtYXRyaXgoLTEuMjkxODkyOSwwLDAsMS4xMjAyNTg0LDIyMDkuNDY3LDE4OS4xMDQ3NikiLz4mI3hhOyAgICAgIDxwYXRoIHN0eWxlPSJmaWxsOm5vbmU7ZmlsbC1vcGFjaXR5OjE7ZmlsbC1ydWxlOm5vbnplcm87c3Ryb2tlOiM2YzVkNTM7c3Ryb2tlLXdpZHRoOjEuNjYyNDg0NjU7c3Ryb2tlLWxpbmVjYXA6c3F1YXJlO3N0cm9rZS1saW5lam9pbjptaXRlcjtzdHJva2UtbWl0ZXJsaW1pdDo0O3N0cm9rZS1kYXNoYXJyYXk6bm9uZTtzdHJva2UtZGFzaG9mZnNldDowO3N0cm9rZS1vcGFjaXR5OjEiIGlkPSJwYXRoMjIxNjEiIGQ9Ik0gNzE1LjAxMDc2IDI5MC42MjYwNyBBIDIuNDA0NzQ0OSAzLjIwNjMyNjUgMCAxIDEgIDcxMC4yMDEyNywyOTAuNjI2MDcgQSAyLjQwNDc0NDkgMy4yMDYzMjY1IDAgMSAxICA3MTUuMDEwNzYgMjkwLjYyNjA3IHoiIHRyYW5zZm9ybT0ibWF0cml4KC0xLjI5MTg5MjksMCwwLDEuMTIwMjU4NCwyMTc1LjI1NCwxNjAuMTIwNzYpIi8+JiN4YTsgICAgICA8cGF0aCBzdHlsZT0iZmlsbDpub25lO2ZpbGwtb3BhY2l0eToxO2ZpbGwtcnVsZTpub256ZXJvO3N0cm9rZTojNmM1ZDUzO3N0cm9rZS13aWR0aDoxLjY2MjQ4NDY1O3N0cm9rZS1saW5lY2FwOnNxdWFyZTtzdHJva2UtbGluZWpvaW46bWl0ZXI7c3Ryb2tlLW1pdGVybGltaXQ6NDtzdHJva2UtZGFzaGFycmF5Om5vbmU7c3Ryb2tlLWRhc2hvZmZzZXQ6MDtzdHJva2Utb3BhY2l0eToxIiBpZD0icGF0aDIyMTYzIiBkPSJNIDcxNS4wMTA3NiAyOTAuNjI2MDcgQSAyLjQwNDc0NDkgMy4yMDYzMjY1IDAgMSAxICA3MTAuMjAxMjcsMjkwLjYyNjA3IEEgMi40MDQ3NDQ5IDMuMjA2MzI2NSAwIDEgMSAgNzE1LjAxMDc2IDI5MC42MjYwNyB6IiB0cmFuc2Zvcm09Im1hdHJpeCgtMS4yOTE4OTI5LDAsMCwxLjEyMDI1ODQsMjE3Ni40NjczLDIyMC4wMDQ1OCkiLz4mI3hhOyAgICAgIDxwYXRoIHN0eWxlPSJmaWxsOm5vbmU7ZmlsbC1vcGFjaXR5OjE7ZmlsbC1ydWxlOm5vbnplcm87c3Ryb2tlOiM2YzVkNTM7c3Ryb2tlLXdpZHRoOjEuNjYyNDg0NjU7c3Ryb2tlLWxpbmVjYXA6c3F1YXJlO3N0cm9rZS1saW5lam9pbjptaXRlcjtzdHJva2UtbWl0ZXJsaW1pdDo0O3N0cm9rZS1kYXNoYXJyYXk6bm9uZTtzdHJva2UtZGFzaG9mZnNldDowO3N0cm9rZS1vcGFjaXR5OjEiIGlkPSJwYXRoMjIxNjUiIGQ9Ik0gNzE1LjAxMDc2IDI5MC42MjYwNyBBIDIuNDA0NzQ0OSAzLjIwNjMyNjUgMCAxIDEgIDcxMC4yMDEyNywyOTAuNjI2MDcgQSAyLjQwNDc0NDkgMy4yMDYzMjY1IDAgMSAxICA3MTUuMDEwNzYgMjkwLjYyNjA3IHoiIHRyYW5zZm9ybT0ibWF0cml4KC0xLjI5MTg5MjksMCwwLDEuMTIwMjU4NCwyMTc1LjQ2NzMsMTkwLjAwNDU4KSIvPiYjeGE7ICAgICAgPHBhdGggc3R5bGU9ImZpbGw6bm9uZTtmaWxsLXJ1bGU6ZXZlbm9kZDtzdHJva2U6IzZjNWQ1MztzdHJva2Utd2lkdGg6NC41NjQ3NDI1NztzdHJva2UtbGluZWNhcDpidXR0O3N0cm9rZS1saW5lam9pbjptaXRlcjtzdHJva2UtbWl0ZXJsaW1pdDo0O3N0cm9rZS1kYXNoYXJyYXk6bm9uZTtzdHJva2Utb3BhY2l0eToxIiBkPSJNIDEyODcuNzY3Niw1MTMuNzA2NTkgQyAxMjU2LjAzMjQsNDg4LjI3MTM0IDEyNTYuMDMyNCw0ODguMjcxMzQgMTI1Ni4wMzI0LDQ4OC4yNzEzNCBMIDEyNTYuMDMyNCw0ODguMjcxMzQgTCAxMjU2LjAzMjQsNDg4LjI3MTM0IiBpZD0icGF0aDIyMTY3Ii8+JiN4YTsgICAgICA8cGF0aCBzdHlsZT0iZmlsbDpub25lO2ZpbGwtcnVsZTpldmVub2RkO3N0cm9rZTojNmM1ZDUzO3N0cm9rZS13aWR0aDoyLjU7c3Ryb2tlLWxpbmVjYXA6YnV0dDtzdHJva2UtbGluZWpvaW46bWl0ZXI7c3Ryb2tlLW1pdGVybGltaXQ6NDtzdHJva2UtZGFzaGFycmF5Om5vbmU7c3Ryb2tlLW9wYWNpdHk6MSIgZD0iTSAxMjc4Ljc1LDUwNS4zODE4MiBDIDEyNzguNzUsNDgxLjA5NjEgMTI3OC43NSw0ODEuMDk2MSAxMjc4Ljc1LDQ4MS4wOTYxIiBpZD0icGF0aDIyMTY5Ii8+JiN4YTsgICAgICA8cGF0aCBzdHlsZT0iZmlsbDpub25lO2ZpbGwtcnVsZTpldmVub2RkO3N0cm9rZTojNmM1ZDUzO3N0cm9rZS13aWR0aDoyLjU7c3Ryb2tlLWxpbmVjYXA6YnV0dDtzdHJva2UtbGluZWpvaW46bWl0ZXI7c3Ryb2tlLW1pdGVybGltaXQ6NDtzdHJva2UtZGFzaGFycmF5Om5vbmU7c3Ryb2tlLW9wYWNpdHk6MSIgZD0iTSAxMjY4Ljc1LDQ5NS45ODg5NiBDIDEyNjguNzUsNDgwLjk4ODk2IDEyNjguNzUsNDgwLjk4ODk2IDEyNjguNzUsNDgwLjk4ODk2IiBpZD0icGF0aDIyMTcxIi8+JiN4YTsgICAgICA8cGF0aCBzdHlsZT0iZmlsbDpub25lO2ZpbGwtcnVsZTpldmVub2RkO3N0cm9rZTojNmM1ZDUzO3N0cm9rZS13aWR0aDoyLjU7c3Ryb2tlLWxpbmVjYXA6YnV0dDtzdHJva2UtbGluZWpvaW46bWl0ZXI7c3Ryb2tlLW1pdGVybGltaXQ6NDtzdHJva2UtZGFzaGFycmF5Om5vbmU7c3Ryb2tlLW9wYWNpdHk6MSIgZD0iTSAxMjg0LjE1LDQ4NS45ODg5NiBMIDEyODQuMTUsNDgwLjk4ODk2IEwgMTI2NC4xNSw0ODAuOTg4OTYgTCAxMjY0LjE1LDQ4NS45ODg5NiIgaWQ9InBhdGgyMjE3MyIvPiYjeGE7ICAgICAgPHBhdGggc3R5bGU9ImZpbGw6bm9uZTtmaWxsLXJ1bGU6ZXZlbm9kZDtzdHJva2U6IzZjNWQ1MztzdHJva2Utd2lkdGg6NS4xMDY2Njc1MjtzdHJva2UtbGluZWNhcDpidXR0O3N0cm9rZS1saW5lam9pbjptaXRlcjtzdHJva2UtbWl0ZXJsaW1pdDo0O3N0cm9rZS1kYXNoYXJyYXk6bm9uZTtzdHJva2Utb3BhY2l0eToxIiBkPSJNIDE4MzAuNDQ2Nyw1MTguNTY3MTcgQyAxNzcyLjkyNiw1MTguNTY3MTcgMTc3MC4wNTA3LDUxOS4xMjczMSAxNzcwLjA1MDcsNTE5LjEyNzMxIiBpZD0icGF0aDIzMTU4Ii8+JiN4YTsgICAgICA8cGF0aCBzdHlsZT0iZmlsbDpub25lO2ZpbGwtcnVsZTpldmVub2RkO3N0cm9rZTojNmM1ZDUzO3N0cm9rZS13aWR0aDo1LjA5OTk5OTk7c3Ryb2tlLWxpbmVjYXA6YnV0dDtzdHJva2UtbGluZWpvaW46bWl0ZXI7c3Ryb2tlLW1pdGVybGltaXQ6NDtzdHJva2UtZGFzaGFycmF5Om5vbmU7c3Ryb2tlLW9wYWNpdHk6MSIgZD0iTSAxNzY1LjYyMTgsNTQ3LjAyOTg0IEwgMTczNS42MjE4LDU0Ny4wMjk4NCBMIDE3MzUuNjIxOCw3NjcuMDI5ODQgTCAxNzA1LjYyMTgsNzY3LjAyOTg0IiBpZD0icGF0aDIzMTYyIi8+JiN4YTsgICAgICA8cGF0aCBzdHlsZT0iZmlsbDpub25lO2ZpbGwtcnVsZTpldmVub2RkO3N0cm9rZTojNmM1ZDUzO3N0cm9rZS13aWR0aDo1LjA5OTk5OTk7c3Ryb2tlLWxpbmVjYXA6YnV0dDtzdHJva2UtbGluZWpvaW46bWl0ZXI7c3Ryb2tlLW1pdGVybGltaXQ6NDtzdHJva2UtZGFzaGFycmF5Om5vbmU7c3Ryb2tlLW9wYWNpdHk6MSIgZD0iTSAxNzA0Ljg3MTgsNTE5LjM3OTg0IEwgMTc2NC44NzE4LDUxOS4zNzk4NCIgaWQ9InBhdGgyMzE2NCIvPiYjeGE7ICAgICAgPHBhdGggc3R5bGU9ImZpbGw6IzZjNWQ1MztmaWxsLW9wYWNpdHk6MTtmaWxsLXJ1bGU6bm9uemVybztzdHJva2U6IzZjNWQ1MztzdHJva2Utd2lkdGg6MS42NjI0ODQ2NTtzdHJva2UtbGluZWNhcDpzcXVhcmU7c3Ryb2tlLWxpbmVqb2luOm1pdGVyO3N0cm9rZS1taXRlcmxpbWl0OjQ7c3Ryb2tlLWRhc2hhcnJheTpub25lO3N0cm9rZS1kYXNob2Zmc2V0OjA7c3Ryb2tlLW9wYWNpdHk6MSIgaWQ9InBhdGgyMzE2NiIgZD0iTSA3MTUuMDEwNzYgMjkwLjYyNjA3IEEgMi40MDQ3NDQ5IDMuMjA2MzI2NSAwIDEgMSAgNzEwLjIwMTI3LDI5MC42MjYwNyBBIDIuNDA0NzQ0OSAzLjIwNjMyNjUgMCAxIDEgIDcxNS4wMTA3NiAyOTAuNjI2MDcgeiIgdHJhbnNmb3JtPSJtYXRyaXgoLTEuMjkxODkyOSwwLDAsMS4xMjAyNTg0LDI3MjAuNTg4OCwxOTIuNDk1NjQpIi8+JiN4YTsgICAgICA8cGF0aCBzdHlsZT0iZmlsbDpub25lO2ZpbGwtb3BhY2l0eToxO2ZpbGwtcnVsZTpub256ZXJvO3N0cm9rZTojNmM1ZDUzO3N0cm9rZS13aWR0aDoxLjY2MjQ4NDY1O3N0cm9rZS1saW5lY2FwOnNxdWFyZTtzdHJva2UtbGluZWpvaW46bWl0ZXI7c3Ryb2tlLW1pdGVybGltaXQ6NDtzdHJva2UtZGFzaGFycmF5Om5vbmU7c3Ryb2tlLWRhc2hvZmZzZXQ6MDtzdHJva2Utb3BhY2l0eToxIiBpZD0icGF0aDIzMTcwIiBkPSJNIDcxNS4wMTA3NiAyOTAuNjI2MDcgQSAyLjQwNDc0NDkgMy4yMDYzMjY1IDAgMSAxICA3MTAuMjAxMjcsMjkwLjYyNjA3IEEgMi40MDQ3NDQ5IDMuMjA2MzI2NSAwIDEgMSAgNzE1LjAxMDc2IDI5MC42MjYwNyB6IiB0cmFuc2Zvcm09Im1hdHJpeCgtMS4yOTE4OTI5LDAsMCwxLjEyMDI1ODQsMjY4OS41ODkxLDIyMS4zOTU0NikiLz4mI3hhOyAgICAgIDxwYXRoIHN0eWxlPSJmaWxsOm5vbmU7ZmlsbC1vcGFjaXR5OjE7ZmlsbC1ydWxlOm5vbnplcm87c3Ryb2tlOiM2YzVkNTM7c3Ryb2tlLXdpZHRoOjEuNjYyNDg0NjU7c3Ryb2tlLWxpbmVjYXA6c3F1YXJlO3N0cm9rZS1saW5lam9pbjptaXRlcjtzdHJva2UtbWl0ZXJsaW1pdDo0O3N0cm9rZS1kYXNoYXJyYXk6bm9uZTtzdHJva2UtZGFzaG9mZnNldDowO3N0cm9rZS1vcGFjaXR5OjEiIGlkPSJwYXRoMjMxNzIiIGQ9Ik0gNzE1LjAxMDc2IDI5MC42MjYwNyBBIDIuNDA0NzQ0OSAzLjIwNjMyNjUgMCAxIDEgIDcxMC4yMDEyNywyOTAuNjI2MDcgQSAyLjQwNDc0NDkgMy4yMDYzMjY1IDAgMSAxICA3MTUuMDEwNzYgMjkwLjYyNjA3IHoiIHRyYW5zZm9ybT0ibWF0cml4KC0xLjI5MTg5MjksMCwwLDEuMTIwMjU4NCwyNjg4LjU4OTEsMTkzLjM5NTQ2KSIvPiYjeGE7ICAgICAgPHBhdGggc3R5bGU9ImZpbGw6IzZjNWQ1MztmaWxsLW9wYWNpdHk6MTtmaWxsLXJ1bGU6ZXZlbm9kZDtzdHJva2U6bm9uZTtzdHJva2Utd2lkdGg6MXB4O3N0cm9rZS1saW5lY2FwOmJ1dHQ7c3Ryb2tlLWxpbmVqb2luOm1pdGVyO3N0cm9rZS1vcGFjaXR5OjEiIGQ9Ik0gMTU2NS40OTIzLDUxNC4xODg5NiBMIDE1NDUuNDkyMyw1MDQuMTg4OTYgTCAxNTQ1LjQ5MjMsNTI0LjE4ODk2IEwgMTU2NS40OTIzLDUxNC4xODg5NiB6IiBpZD0icGF0aDI0MTYzIi8+JiN4YTsgICAgICA8cmVjdCBzdHlsZT0ib3BhY2l0eToxO2ZpbGw6IzZjNWQ1MztmaWxsLW9wYWNpdHk6MTtmaWxsLXJ1bGU6bm9uemVybztzdHJva2U6IzZjNWQ1MztzdHJva2Utd2lkdGg6Mi42MDY5OTcyNTtzdHJva2UtbGluZWNhcDpzcXVhcmU7c3Ryb2tlLWxpbmVqb2luOm1pdGVyO3N0cm9rZS1taXRlcmxpbWl0OjQ7c3Ryb2tlLWRhc2hhcnJheTpub25lO3N0cm9rZS1kYXNob2Zmc2V0OjA7c3Ryb2tlLW9wYWNpdHk6MSIgaWQ9InJlY3QyNDE2NSIgd2lkdGg9IjIuODgxNDA4NyIgaGVpZ2h0PSI4Mi44ODU0OTgiIHg9IjUxMy4xMTg1OSIgeT0iLTE1NTQuMTg5IiB0cmFuc2Zvcm09Im1hdHJpeCgwLDEsLTEsMCwwLDApIi8+JiN4YTsgICAgICA8cGF0aCBzdHlsZT0iZmlsbDpub25lO2ZpbGwtcnVsZTpldmVub2RkO3N0cm9rZTojNmM1ZDUzO3N0cm9rZS13aWR0aDoyLjU7c3Ryb2tlLWxpbmVjYXA6YnV0dDtzdHJva2UtbGluZWpvaW46bWl0ZXI7c3Ryb2tlLW1pdGVybGltaXQ6NDtzdHJva2UtZGFzaGFycmF5Om5vbmU7c3Ryb2tlLW9wYWNpdHk6MSIgZD0iTSAxNzg5LjM1LDUxNy44MzE4MiBDIDE3ODkuMzUsNDkzLjU0NjEgMTc4OS4zNSw0OTMuNTQ2MSAxNzg5LjM1LDQ5My41NDYxIiBpZD0icGF0aDI2MTEzIi8+JiN4YTsgICAgICA8cGF0aCBzdHlsZT0iZmlsbDpub25lO2ZpbGwtcnVsZTpldmVub2RkO3N0cm9rZTojNmM1ZDUzO3N0cm9rZS13aWR0aDoyLjU7c3Ryb2tlLWxpbmVjYXA6YnV0dDtzdHJva2UtbGluZWpvaW46bWl0ZXI7c3Ryb2tlLW1pdGVybGltaXQ6NDtzdHJva2UtZGFzaGFycmF5Om5vbmU7c3Ryb2tlLW9wYWNpdHk6MSIgZD0iTSAxNzk0Ljc1LDQ5OC40Mzg5NiBMIDE3OTQuNzUsNDkzLjQzODk2IEwgMTc3NC43NSw0OTMuNDM4OTYgTCAxNzc0Ljc1LDQ5OC40Mzg5NiIgaWQ9InBhdGgyNjExNyIvPiYjeGE7ICAgICAgPHBhdGggc3R5bGU9ImZpbGw6bm9uZTtmaWxsLXJ1bGU6ZXZlbm9kZDtzdHJva2U6IzZjNWQ1MztzdHJva2Utd2lkdGg6Mi41O3N0cm9rZS1saW5lY2FwOmJ1dHQ7c3Ryb2tlLWxpbmVqb2luOm1pdGVyO3N0cm9rZS1taXRlcmxpbWl0OjQ7c3Ryb2tlLWRhc2hhcnJheTpub25lO3N0cm9rZS1vcGFjaXR5OjEiIGQ9Ik0gMTc4MC4zNSw1MTguNzI0NjggQyAxNzgwLjM1LDQ5NC40Mzg5NiAxNzgwLjM1LDQ5NC40Mzg5NiAxNzgwLjM1LDQ5NC40Mzg5NiIgaWQ9InBhdGgyNjExOSIvPiYjeGE7ICAgICAgPHBhdGggc3R5bGU9ImZpbGw6bm9uZTtmaWxsLXJ1bGU6ZXZlbm9kZDtzdHJva2U6IzAwMDAwMDtzdHJva2Utd2lkdGg6MjtzdHJva2UtbGluZWNhcDpidXR0O3N0cm9rZS1saW5lam9pbjptaXRlcjtzdHJva2UtbWl0ZXJsaW1pdDo0O3N0cm9rZS1kYXNoYXJyYXk6MiwgNjtzdHJva2UtZGFzaG9mZnNldDowO3N0cm9rZS1vcGFjaXR5OjEiIGQ9Ik0gOTY3LjMxOTUsNDgxLjU1ODI2IEwgOTY3LjMxOTUsMTcyLjY0OTE4IEwgMTI3NC4wNTA0LDE3Mi42NDkxOCBMIDEyNzQuMDUwNCw0ODEuNTMyNjQiIGlkPSJwYXRoMjYxMjMiLz4mI3hhOyAgICAgIDx0ZXh0IHhtbDpzcGFjZT0icHJlc2VydmUiIHN0eWxlPSJmb250LXNpemU6MjRweDtmb250LXN0eWxlOm5vcm1hbDtmb250LXdlaWdodDpub3JtYWw7dGV4dC1hbGlnbjpjZW50ZXI7dGV4dC1hbmNob3I6bWlkZGxlO2ZpbGw6IzAwMDAwMDtmaWxsLW9wYWNpdHk6MTtzdHJva2U6bm9uZTtzdHJva2Utd2lkdGg6MXB4O3N0cm9rZS1saW5lY2FwOmJ1dHQ7c3Ryb2tlLWxpbmVqb2luOm1pdGVyO3N0cm9rZS1vcGFjaXR5OjE7Zm9udC1mYW1pbHk6QXJpYWwiIHg9IjExMjEuMjcxNSIgeT0iMTI5Ljc1MTk1IiBpZD0idGV4dDI3MDk0Ij48dHNwYW4gaWQ9InRzcGFuMjcwOTYiIHg9IjExMjEuMjcxNSIgeT0iMTI5Ljc1MTk1Ij5TY2hhbHRlciB6dW0gRWluc3RlbGxlbiBkZXIgTW9kaS48L3RzcGFuPjx0c3BhbiB4PSIxMTIxLjI3MTUiIHk9IjE1OS43NTE5NSIgaWQ9InRzcGFuMjcwOTgiPihiZWlkZSBTY2hhbHRlciBtZWNoYW5pc2NoIHZlcmJ1bmRlbik8L3RzcGFuPjwvdGV4dD4mI3hhOyAgICAgIDx0ZXh0IHhtbDpzcGFjZT0icHJlc2VydmUiIHN0eWxlPSJmb250LXNpemU6MjRweDtmb250LXN0eWxlOm5vcm1hbDtmb250LXdlaWdodDpub3JtYWw7ZmlsbDojMDAwMDAwO2ZpbGwtb3BhY2l0eToxO3N0cm9rZTpub25lO3N0cm9rZS13aWR0aDoxcHg7c3Ryb2tlLWxpbmVjYXA6YnV0dDtzdHJva2UtbGluZWpvaW46bWl0ZXI7c3Ryb2tlLW9wYWNpdHk6MTtmb250LWZhbWlseTpBcmlhbCIgeD0iMTAyLjAxNDcxIiB5PSIxMDE5LjQyOTEiIGlkPSJ0ZXh0MjcxMDAiPjx0c3BhbiBpZD0idHNwYW4yNzEwMiIgeD0iMTAyLjAxNDcxIiB5PSIxMDE5LjQyOTEiPlNlbmRlcmVpbnN0ZWxsdW5nPC90c3Bhbj48L3RleHQ+JiN4YTsgICAgICA8dGV4dCB4bWw6c3BhY2U9InByZXNlcnZlIiBzdHlsZT0iZm9udC1zaXplOjI0cHg7Zm9udC1zdHlsZTpub3JtYWw7Zm9udC13ZWlnaHQ6bm9ybWFsO3RleHQtYWxpZ246Y2VudGVyO3RleHQtYW5jaG9yOm1pZGRsZTtmaWxsOiMwMDAwMDA7ZmlsbC1vcGFjaXR5OjE7c3Ryb2tlOm5vbmU7c3Ryb2tlLXdpZHRoOjFweDtzdHJva2UtbGluZWNhcDpidXR0O3N0cm9rZS1saW5lam9pbjptaXRlcjtzdHJva2Utb3BhY2l0eToxO2ZvbnQtZmFtaWx5OkFyaWFsIiB4PSIxNzUuMDQyNTQiIHk9Ijc2MS44NTgwMyIgaWQ9InRleHQyNzEwNCI+PHRzcGFuIGlkPSJ0c3BhbjI3MTA2IiB4PSIxNzguMzcwNjciIHk9Ijc2MS44NTgwMyI+c3Bhbm51bmdzZ2VzdGV1ZXJ0ZXIgPC90c3Bhbj48dHNwYW4geD0iMTc1LjA0MjU0IiB5PSI3OTEuODU4MDMiIGlkPSJ0c3BhbjI3MTA4Ij5Pc3ppbGxhdG9yPC90c3Bhbj48L3RleHQ+JiN4YTsgICAgICA8dGV4dCB4bWw6c3BhY2U9InByZXNlcnZlIiBzdHlsZT0iZm9udC1zaXplOjI0cHg7Zm9udC1zdHlsZTpub3JtYWw7Zm9udC13ZWlnaHQ6bm9ybWFsO2ZpbGw6IzAwMDAwMDtmaWxsLW9wYWNpdHk6MTtzdHJva2U6bm9uZTtzdHJva2Utd2lkdGg6MXB4O3N0cm9rZS1saW5lY2FwOmJ1dHQ7c3Ryb2tlLWxpbmVqb2luOm1pdGVyO3N0cm9rZS1vcGFjaXR5OjE7Zm9udC1mYW1pbHk6QXJpYWwiIHg9IjYwNS4zMTQ3IiB5PSI3NzUuNjc0MTMiIGlkPSJ0ZXh0MjcxMTAiPjx0c3BhbiBpZD0idHNwYW4yNzExMiIgeD0iNjA1LjMxNDciIHk9Ijc3NS42NzQxMyI+UXVhcnpvc3ppbGxhdG9yPC90c3Bhbj48L3RleHQ+JiN4YTsgICAgICA8cGF0aCBzdHlsZT0iZmlsbDojNmM1ZDUzO2ZpbGwtb3BhY2l0eToxO2ZpbGwtcnVsZTpldmVub2RkO3N0cm9rZTpub25lO3N0cm9rZS13aWR0aDoxcHg7c3Ryb2tlLWxpbmVjYXA6YnV0dDtzdHJva2UtbGluZWpvaW46bWl0ZXI7c3Ryb2tlLW9wYWNpdHk6MSIgZD0iTSAxMDE5Ljc5NywzNTYuMTI2MDYgTCAxMDA5Ljc5NywzNzYuMTI2MDYgTCAxMDI5Ljc5NywzNzYuMTI2MDYgTCAxMDE5Ljc5NywzNTYuMTI2MDYgeiIgaWQ9InBhdGgyODA4MyIvPiYjeGE7ICAgICAgPHBhdGggc3R5bGU9ImZpbGw6IzZjNWQ1MztmaWxsLW9wYWNpdHk6MTtmaWxsLXJ1bGU6ZXZlbm9kZDtzdHJva2U6bm9uZTtzdHJva2Utd2lkdGg6MXB4O3N0cm9rZS1saW5lY2FwOmJ1dHQ7c3Ryb2tlLWxpbmVqb2luOm1pdGVyO3N0cm9rZS1vcGFjaXR5OjEiIGQ9Ik0gMTAxOC44MTAyLDY3Ny4xMTkxNSBMIDEwMDguODEwMiw2NTcuMTE5MTUgTCAxMDI4LjgxMDIsNjU3LjExOTE1IEwgMTAxOC44MTAyLDY3Ny4xMTkxNSB6IiBpZD0icGF0aDI4MDg1Ii8+JiN4YTsgICAgICA8cGF0aCBzdHlsZT0iZmlsbDojNmM1ZDUzO2ZpbGwtb3BhY2l0eToxO2ZpbGwtcnVsZTpldmVub2RkO3N0cm9rZTpub25lO3N0cm9rZS13aWR0aDoxcHg7c3Ryb2tlLWxpbmVjYXA6YnV0dDtzdHJva2UtbGluZWpvaW46bWl0ZXI7c3Ryb2tlLW9wYWNpdHk6MSIgZD0iTSAxNzM1LjI3MjUsNjU4LjEwNjA1IEwgMTcyNS4yNzI1LDY3OC4xMDYwNSBMIDE3NDUuMjcyNSw2NzguMTA2MDUgTCAxNzM1LjI3MjUsNjU4LjEwNjA1IHoiIGlkPSJwYXRoMjgwODciLz4mI3hhOyAgICAgIDxwYXRoIHN0eWxlPSJmaWxsOiM2YzVkNTM7ZmlsbC1vcGFjaXR5OjE7ZmlsbC1ydWxlOmV2ZW5vZGQ7c3Ryb2tlOm5vbmU7c3Ryb2tlLXdpZHRoOjFweDtzdHJva2UtbGluZWNhcDpidXR0O3N0cm9rZS1saW5lam9pbjptaXRlcjtzdHJva2Utb3BhY2l0eToxIiBkPSJNIDEyMjIuMTAzOCwzNzcuMTkxNzMgTCAxMjEyLjEwMzgsMzU3LjE5MTc2IEwgMTIzMi4xMDM4LDM1Ny4xOTE3NiBMIDEyMjIuMTAzOCwzNzcuMTkxNzMgeiIgaWQ9InBhdGgyODA4OSIvPiYjeGE7ICAgICAgPHBhdGggc3R5bGU9ImZpbGw6IzZjNWQ1MztmaWxsLW9wYWNpdHk6MTtmaWxsLXJ1bGU6ZXZlbm9kZDtzdHJva2U6bm9uZTtzdHJva2Utd2lkdGg6MXB4O3N0cm9rZS1saW5lY2FwOmJ1dHQ7c3Ryb2tlLWxpbmVqb2luOm1pdGVyO3N0cm9rZS1vcGFjaXR5OjEiIGQ9Ik0gMTIzOC4yMDksNTE1LjU0MTk3IEwgMTIxOC4yMDksNTA1LjU0MTk3IEwgMTIxOC4yMDksNTI1LjU0MTk2IEwgMTIzOC4yMDksNTE1LjU0MTk3IHoiIGlkPSJwYXRoMjgwOTEiLz4mI3hhOyAgICAgIDxwYXRoIHN0eWxlPSJmaWxsOiM2YzVkNTM7ZmlsbC1vcGFjaXR5OjE7ZmlsbC1ydWxlOmV2ZW5vZGQ7c3Ryb2tlOm5vbmU7c3Ryb2tlLXdpZHRoOjFweDtzdHJva2UtbGluZWNhcDpidXR0O3N0cm9rZS1saW5lam9pbjptaXRlcjtzdHJva2Utb3BhY2l0eToxIiBkPSJNIDEwNDEuNjM5NCw1MTguMTAyOTIgTCAxMDIxLjYzOTQsNTA4LjEwMjkyIEwgMTAyMS42Mzk0LDUyOC4xMDI5MiBMIDEwNDEuNjM5NCw1MTguMTAyOTIgeiIgaWQ9InBhdGgyODA5MyIvPiYjeGE7ICAgICAgPHBhdGggc3R5bGU9ImZpbGw6IzZjNWQ1MztmaWxsLW9wYWNpdHk6MTtmaWxsLXJ1bGU6ZXZlbm9kZDtzdHJva2U6bm9uZTtzdHJva2Utd2lkdGg6MXB4O3N0cm9rZS1saW5lY2FwOmJ1dHQ7c3Ryb2tlLWxpbmVqb2luOm1pdGVyO3N0cm9rZS1vcGFjaXR5OjEiIGQ9Ik0gMTc1MS4xOTM2LDUxOS4wODk3OSBMIDE3MzEuMTkzNiw1MDkuMDg5NzkgTCAxNzMxLjE5MzYsNTI5LjA4OTc5IEwgMTc1MS4xOTM2LDUxOS4wODk3OSB6IiBpZD0icGF0aDI4MDk1Ii8+JiN4YTsgICAgICA8ZyBpZD0iZzM0MTE5IiB0cmFuc2Zvcm09InRyYW5zbGF0ZSgxNTMuNTY3OSwtMzIxLjM1MjU0KSI+JiN4YTsgICAgICAgIDxwYXRoIGlkPSJwYXRoMzMxNDQiIGQ9Ik0gMTg5OS40NTg3LDgwOC41MTQ5IEwgMTkzOS45MzIxLDc2OC4wNDE1IEwgMTkzOC41MzY1LDkwOS4wMDA1OSBMIDE4OTkuNDU4Nyw4NjguNTI3MTkgTCAxODk5LjQ1ODcsODA4LjUxNDkgeiIgc3R5bGU9ImZpbGw6I2NjY2NjYztmaWxsLXJ1bGU6ZXZlbm9kZDtzdHJva2U6IzAwMDAwMDtzdHJva2Utd2lkdGg6MXB4O3N0cm9rZS1saW5lY2FwOmJ1dHQ7c3Ryb2tlLWxpbmVqb2luOm1pdGVyO3N0cm9rZS1vcGFjaXR5OjEiLz4mI3hhOyAgICAgICAgPHJlY3QgeT0iODA4LjE4ODk2IiB4PSIxODgwIiBoZWlnaHQ9IjYwLjMzODIyNiIgd2lkdGg9IjE4LjA2MzA5MyIgaWQ9InJlY3QzMzE0NiIgc3R5bGU9Im9wYWNpdHk6MTtmaWxsOiNiM2IzYjM7ZmlsbC1vcGFjaXR5OjE7ZmlsbC1ydWxlOm5vbnplcm87c3Ryb2tlOiM2YzVkNTM7c3Ryb2tlLXdpZHRoOjI7c3Ryb2tlLWxpbmVjYXA6c3F1YXJlO3N0cm9rZS1saW5lam9pbjptaXRlcjtzdHJva2UtbWl0ZXJsaW1pdDo0O3N0cm9rZS1kYXNoYXJyYXk6bm9uZTtzdHJva2UtZGFzaG9mZnNldDowO3N0cm9rZS1vcGFjaXR5OjEiLz4mI3hhOyAgICAgIDwvZz4mI3hhOyAgICAgIDxwYXRoIHN0eWxlPSJmaWxsOm5vbmU7ZmlsbC1ydWxlOmV2ZW5vZGQ7c3Ryb2tlOiM2YzVkNTM7c3Ryb2tlLXdpZHRoOjUuMTA2NjY3NTI7c3Ryb2tlLWxpbmVjYXA6YnV0dDtzdHJva2UtbGluZWpvaW46bWl0ZXI7c3Ryb2tlLW1pdGVybGltaXQ6NDtzdHJva2UtZGFzaGFycmF5Om5vbmU7c3Ryb2tlLW9wYWNpdHk6MSIgZD0iTSAyMDMzLjQ0NjcsNTE3Ljg0MjUzIEMgMTk3NS45MjYsNTE3Ljg0MjUzIDE5NzMuMDUwNyw1MTguNDAyNjMgMTk3My4wNTA3LDUxOC40MDI2MyIgaWQ9InBhdGgzNDExNyIvPiYjeGE7ICAgICAgPHJlY3Qgc3R5bGU9Im9wYWNpdHk6MTtmaWxsOiM2YzVkNTM7ZmlsbC1vcGFjaXR5OjE7ZmlsbC1ydWxlOm5vbnplcm87c3Ryb2tlOiM2YzVkNTM7c3Ryb2tlLXdpZHRoOjEuNTc0ODMzMTU7c3Ryb2tlLWxpbmVjYXA6c3F1YXJlO3N0cm9rZS1saW5lam9pbjptaXRlcjtzdHJva2UtbWl0ZXJsaW1pdDo0O3N0cm9rZS1kYXNoYXJyYXk6bm9uZTtzdHJva2UtZGFzaG9mZnNldDowO3N0cm9rZS1vcGFjaXR5OjEiIGlkPSJyZWN0MzQxMjMiIHdpZHRoPSIzLjQ5ODk4MjciIGhlaWdodD0iMjAuNDI1MTY3IiB4PSI1MTQuOTc2MzgiIHk9Ii03NS4yMTI1ODUiIHRyYW5zZm9ybT0ibWF0cml4KDAsMSwtMSwwLDAsMCkiLz4mI3hhOyAgICAgIDxyZWN0IHN0eWxlPSJvcGFjaXR5OjE7ZmlsbDojNmM1ZDUzO2ZpbGwtb3BhY2l0eToxO2ZpbGwtcnVsZTpub256ZXJvO3N0cm9rZTojNmM1ZDUzO3N0cm9rZS13aWR0aDozLjExNTg0NTkyO3N0cm9rZS1saW5lY2FwOnNxdWFyZTtzdHJva2UtbGluZWpvaW46bWl0ZXI7c3Ryb2tlLW1pdGVybGltaXQ6NDtzdHJva2UtZGFzaGFycmF5Om5vbmU7c3Ryb2tlLWRhc2hvZmZzZXQ6MDtzdHJva2Utb3BhY2l0eToxIiBpZD0icmVjdDM0MTI1IiB3aWR0aD0iMS45NTc5NyIgaGVpZ2h0PSIxNDIuODg0MTYiIHg9IjU1LjU1NzkyMiIgeT0iMzY5Ljc0Njg5Ii8+JiN4YTsgICAgICA8cGF0aCBzdHlsZT0iZmlsbDpub25lO2ZpbGwtcnVsZTpldmVub2RkO3N0cm9rZTojNmM1ZDUzO3N0cm9rZS13aWR0aDo1LjA5OTk5OTk7c3Ryb2tlLWxpbmVjYXA6YnV0dDtzdHJva2UtbGluZWpvaW46bWl0ZXI7c3Ryb2tlLW1pdGVybGltaXQ6NDtzdHJva2UtZGFzaGFycmF5Om5vbmU7c3Ryb2tlLW9wYWNpdHk6MSIgZD0iTSA5Ni41NSwzNjUuNjM4OTYgTCA5Ni41NSwzNjUuNjM4OTYgTCA1Ni41NSw0MjUuNjM4OTYgTCAxNi41NSwzNjUuNjM4OTYiIGlkPSJwYXRoMzQxMjciLz4mI3hhOyAgICAgIDxnIGlkPSJnMzUxMDYiIHRyYW5zZm9ybT0idHJhbnNsYXRlKDUxNi42MjkzNiwtMTE2KSI+JiN4YTsgICAgICAgIDx0ZXh0IGlkPSJ0ZXh0MzUwOTgiIHk9IjYwNC4wMTM0MyIgeD0iLTI3MC44NTIwMiIgc3R5bGU9ImZvbnQtc2l6ZToyNHB4O2ZvbnQtc3R5bGU6bm9ybWFsO2ZvbnQtd2VpZ2h0Om5vcm1hbDtmaWxsOiMwMDAwMDA7ZmlsbC1vcGFjaXR5OjE7c3Ryb2tlOm5vbmU7c3Ryb2tlLXdpZHRoOjFweDtzdHJva2UtbGluZWNhcDpidXR0O3N0cm9rZS1saW5lam9pbjptaXRlcjtzdHJva2Utb3BhY2l0eToxO2ZvbnQtZmFtaWx5OkFyaWFsIiB4bWw6c3BhY2U9InByZXNlcnZlIj48dHNwYW4geT0iNjA0LjAxMzQzIiB4PSItMjcwLjg1MjAyIiBpZD0idHNwYW4zNTEwMCI+ZjwvdHNwYW4+PC90ZXh0PiYjeGE7ICAgICAgICA8dGV4dCBpZD0idGV4dDM1MTAyIiB5PSI2MTUuOTA3NzEiIHg9Ii0yNjIuODc4OTEiIHN0eWxlPSJmb250LXNpemU6MjRweDtmb250LXN0eWxlOm5vcm1hbDtmb250LXdlaWdodDpub3JtYWw7ZmlsbDojMDAwMDAwO2ZpbGwtb3BhY2l0eToxO3N0cm9rZTpub25lO3N0cm9rZS13aWR0aDoxcHg7c3Ryb2tlLWxpbmVjYXA6YnV0dDtzdHJva2UtbGluZWpvaW46bWl0ZXI7c3Ryb2tlLW9wYWNpdHk6MTtmb250LWZhbWlseTpBcmlhbCIgeG1sOnNwYWNlPSJwcmVzZXJ2ZSI+PHRzcGFuIHk9IjYxNS45MDc3MSIgeD0iLTI2Mi44Nzg5MSIgaWQ9InRzcGFuMzUxMDQiPmU8L3RzcGFuPjwvdGV4dD4mI3hhOyAgICAgIDwvZz4mI3hhOyAgICAgIDxnIGlkPSJnMzUxMjAiIHRyYW5zZm9ybT0idHJhbnNsYXRlKDc5NC4xMTE5NCwtODMuMTc5Njg3KSI+JiN4YTsgICAgICAgIDx0ZXh0IGlkPSJ0ZXh0MzUxMTIiIHk9IjU2Ni4yNTAzNyIgeD0iLTMyMC4zMzQ1OSIgc3R5bGU9ImZvbnQtc2l6ZToyNHB4O2ZvbnQtc3R5bGU6bm9ybWFsO2ZvbnQtd2VpZ2h0Om5vcm1hbDtmaWxsOiMwMDAwMDA7ZmlsbC1vcGFjaXR5OjE7c3Ryb2tlOm5vbmU7c3Ryb2tlLXdpZHRoOjFweDtzdHJva2UtbGluZWNhcDpidXR0O3N0cm9rZS1saW5lam9pbjptaXRlcjtzdHJva2Utb3BhY2l0eToxO2ZvbnQtZmFtaWx5OkFyaWFsIiB4bWw6c3BhY2U9InByZXNlcnZlIj48dHNwYW4geT0iNTY2LjI1MDM3IiB4PSItMzIwLjMzNDU5IiBpZD0idHNwYW4zNTExNCI+ZjwvdHNwYW4+PC90ZXh0PiYjeGE7ICAgICAgICA8dGV4dCBpZD0idGV4dDM1MTE2IiB5PSI1ODMuMzY4NjUiIHg9Ii0zMTIuMjMwNDciIHN0eWxlPSJmb250LXNpemU6MjBweDtmb250LXN0eWxlOm5vcm1hbDtmb250LXdlaWdodDpub3JtYWw7ZmlsbDojMDAwMDAwO2ZpbGwtb3BhY2l0eToxO3N0cm9rZTpub25lO3N0cm9rZS13aWR0aDoxcHg7c3Ryb2tlLWxpbmVjYXA6YnV0dDtzdHJva2UtbGluZWpvaW46bWl0ZXI7c3Ryb2tlLW9wYWNpdHk6MTtmb250LWZhbWlseTpBcmlhbCIgeG1sOnNwYWNlPSJwcmVzZXJ2ZSI+PHRzcGFuIHk9IjU4My4zNjg2NSIgeD0iLTMxMi4yMzA0NyIgaWQ9InRzcGFuMzUxMTgiPlpGPC90c3Bhbj48L3RleHQ+JiN4YTsgICAgICA8L2c+JiN4YTsgICAgICA8ZyBpZD0iZzM1MTI2IiB0cmFuc2Zvcm09InRyYW5zbGF0ZSgxODEyLjcwNTEsMTY3LjQxMTI1KSI+JiN4YTsgICAgICAgIDx0ZXh0IGlkPSJ0ZXh0MzUxMjgiIHk9IjU2Ni4yNTAzNyIgeD0iLTMyMC4zMzQ1OSIgc3R5bGU9ImZvbnQtc2l6ZToyNHB4O2ZvbnQtc3R5bGU6bm9ybWFsO2ZvbnQtd2VpZ2h0Om5vcm1hbDtmaWxsOiMwMDAwMDA7ZmlsbC1vcGFjaXR5OjE7c3Ryb2tlOm5vbmU7c3Ryb2tlLXdpZHRoOjFweDtzdHJva2UtbGluZWNhcDpidXR0O3N0cm9rZS1saW5lam9pbjptaXRlcjtzdHJva2Utb3BhY2l0eToxO2ZvbnQtZmFtaWx5OkFyaWFsIiB4bWw6c3BhY2U9InByZXNlcnZlIj48dHNwYW4geT0iNTY2LjI1MDM3IiB4PSItMzIwLjMzNDU5IiBpZD0idHNwYW4zNTEzMCI+ZjwvdHNwYW4+PC90ZXh0PiYjeGE7ICAgICAgICA8dGV4dCBpZD0idGV4dDM1MTMyIiB5PSI1ODMuMzY4NjUiIHg9Ii0zMTIuMjMwNDciIHN0eWxlPSJmb250LXNpemU6MjBweDtmb250LXN0eWxlOm5vcm1hbDtmb250LXdlaWdodDpub3JtYWw7ZmlsbDojMDAwMDAwO2ZpbGwtb3BhY2l0eToxO3N0cm9rZTpub25lO3N0cm9rZS13aWR0aDoxcHg7c3Ryb2tlLWxpbmVjYXA6YnV0dDtzdHJva2UtbGluZWpvaW46bWl0ZXI7c3Ryb2tlLW9wYWNpdHk6MTtmb250LWZhbWlseTpBcmlhbCIgeG1sOnNwYWNlPSJwcmVzZXJ2ZSI+PHRzcGFuIHk9IjU4My4zNjg2NSIgeD0iLTMxMi4yMzA0NyIgaWQ9InRzcGFuMzUxMzQiPlpGPC90c3Bhbj48L3RleHQ+JiN4YTsgICAgICA8L2c+JiN4YTsgICAgICA8ZyBpZD0iZzM1MTM2IiB0cmFuc2Zvcm09InRyYW5zbGF0ZSgxNTU2LjExMTksMTY2LjgyMDMxKSI+JiN4YTsgICAgICAgIDx0ZXh0IGlkPSJ0ZXh0MzUxMzgiIHk9IjU2Ni4yNTAzNyIgeD0iLTMyMC4zMzQ1OSIgc3R5bGU9ImZvbnQtc2l6ZToyNHB4O2ZvbnQtc3R5bGU6bm9ybWFsO2ZvbnQtd2VpZ2h0Om5vcm1hbDtmaWxsOiMwMDAwMDA7ZmlsbC1vcGFjaXR5OjE7c3Ryb2tlOm5vbmU7c3Ryb2tlLXdpZHRoOjFweDtzdHJva2UtbGluZWNhcDpidXR0O3N0cm9rZS1saW5lam9pbjptaXRlcjtzdHJva2Utb3BhY2l0eToxO2ZvbnQtZmFtaWx5OkFyaWFsIiB4bWw6c3BhY2U9InByZXNlcnZlIj48dHNwYW4geT0iNTY2LjI1MDM3IiB4PSItMzIwLjMzNDU5IiBpZD0idHNwYW4zNTE0MCI+ZjwvdHNwYW4+PC90ZXh0PiYjeGE7ICAgICAgICA8dGV4dCBpZD0idGV4dDM1MTQyIiB5PSI1ODMuMzY4NjUiIHg9Ii0zMTIuMjMwNDciIHN0eWxlPSJmb250LXNpemU6MjBweDtmb250LXN0eWxlOm5vcm1hbDtmb250LXdlaWdodDpub3JtYWw7ZmlsbDojMDAwMDAwO2ZpbGwtb3BhY2l0eToxO3N0cm9rZTpub25lO3N0cm9rZS13aWR0aDoxcHg7c3Ryb2tlLWxpbmVjYXA6YnV0dDtzdHJva2UtbGluZWpvaW46bWl0ZXI7c3Ryb2tlLW9wYWNpdHk6MTtmb250LWZhbWlseTpBcmlhbCIgeG1sOnNwYWNlPSJwcmVzZXJ2ZSI+PHRzcGFuIHk9IjU4My4zNjg2NSIgeD0iLTMxMi4yMzA0NyIgaWQ9InRzcGFuMzUxNDQiPlpGPC90c3Bhbj48L3RleHQ+JiN4YTsgICAgICA8L2c+JiN4YTsgICAgICA8ZyBpZD0iZzM1MTQ2IiB0cmFuc2Zvcm09InRyYW5zbGF0ZSgxMDI4LjcwNTEsLTg0LjU4ODc0NSkiPiYjeGE7ICAgICAgICA8dGV4dCBpZD0idGV4dDM1MTQ4IiB5PSI1NjYuMjUwMzciIHg9Ii0zMjAuMzM0NTkiIHN0eWxlPSJmb250LXNpemU6MjRweDtmb250LXN0eWxlOm5vcm1hbDtmb250LXdlaWdodDpub3JtYWw7ZmlsbDojMDAwMDAwO2ZpbGwtb3BhY2l0eToxO3N0cm9rZTpub25lO3N0cm9rZS13aWR0aDoxcHg7c3Ryb2tlLWxpbmVjYXA6YnV0dDtzdHJva2UtbGluZWpvaW46bWl0ZXI7c3Ryb2tlLW9wYWNpdHk6MTtmb250LWZhbWlseTpBcmlhbCIgeG1sOnNwYWNlPSJwcmVzZXJ2ZSI+PHRzcGFuIHk9IjU2Ni4yNTAzNyIgeD0iLTMyMC4zMzQ1OSIgaWQ9InRzcGFuMzUxNTAiPmY8L3RzcGFuPjwvdGV4dD4mI3hhOyAgICAgICAgPHRleHQgaWQ9InRleHQzNTE1MiIgeT0iNTgzLjM2ODY1IiB4PSItMzEyLjIzMDQ3IiBzdHlsZT0iZm9udC1zaXplOjIwcHg7Zm9udC1zdHlsZTpub3JtYWw7Zm9udC13ZWlnaHQ6bm9ybWFsO2ZpbGw6IzAwMDAwMDtmaWxsLW9wYWNpdHk6MTtzdHJva2U6bm9uZTtzdHJva2Utd2lkdGg6MXB4O3N0cm9rZS1saW5lY2FwOmJ1dHQ7c3Ryb2tlLWxpbmVqb2luOm1pdGVyO3N0cm9rZS1vcGFjaXR5OjE7Zm9udC1mYW1pbHk6QXJpYWwiIHhtbDpzcGFjZT0icHJlc2VydmUiPjx0c3BhbiB5PSI1ODMuMzY4NjUiIHg9Ii0zMTIuMjMwNDciIGlkPSJ0c3BhbjM1MTU0Ij5aRjwvdHNwYW4+PC90ZXh0PiYjeGE7ICAgICAgPC9nPiYjeGE7ICAgICAgPGcgaWQ9ImczNTE1NiIgdHJhbnNmb3JtPSJ0cmFuc2xhdGUoMTgxMi43MDUxLC04Ni41ODg3NDUpIj4mI3hhOyAgICAgICAgPHRleHQgaWQ9InRleHQzNTE1OCIgeT0iNTY2LjI1MDM3IiB4PSItMzIwLjMzNDU5IiBzdHlsZT0iZm9udC1zaXplOjI0cHg7Zm9udC1zdHlsZTpub3JtYWw7Zm9udC13ZWlnaHQ6bm9ybWFsO2ZpbGw6IzAwMDAwMDtmaWxsLW9wYWNpdHk6MTtzdHJva2U6bm9uZTtzdHJva2Utd2lkdGg6MXB4O3N0cm9rZS1saW5lY2FwOmJ1dHQ7c3Ryb2tlLWxpbmVqb2luOm1pdGVyO3N0cm9rZS1vcGFjaXR5OjE7Zm9udC1mYW1pbHk6QXJpYWwiIHhtbDpzcGFjZT0icHJlc2VydmUiPjx0c3BhbiB5PSI1NjYuMjUwMzciIHg9Ii0zMjAuMzM0NTkiIGlkPSJ0c3BhbjM1MTYwIj5mPC90c3Bhbj48L3RleHQ+JiN4YTsgICAgICAgIDx0ZXh0IGlkPSJ0ZXh0MzUxNjIiIHk9IjU4My4zNjg2NSIgeD0iLTMxMi4yMzA0NyIgc3R5bGU9ImZvbnQtc2l6ZToyMHB4O2ZvbnQtc3R5bGU6bm9ybWFsO2ZvbnQtd2VpZ2h0Om5vcm1hbDtmaWxsOiMwMDAwMDA7ZmlsbC1vcGFjaXR5OjE7c3Ryb2tlOm5vbmU7c3Ryb2tlLXdpZHRoOjFweDtzdHJva2UtbGluZWNhcDpidXR0O3N0cm9rZS1saW5lam9pbjptaXRlcjtzdHJva2Utb3BhY2l0eToxO2ZvbnQtZmFtaWx5OkFyaWFsIiB4bWw6c3BhY2U9InByZXNlcnZlIj48dHNwYW4geT0iNTgzLjM2ODY1IiB4PSItMzEyLjIzMDQ3IiBpZD0idHNwYW4zNTE2NCI+WkY8L3RzcGFuPjwvdGV4dD4mI3hhOyAgICAgIDwvZz4mI3hhOyAgICAgIDxnIGlkPSJnMzUxNjYiIHRyYW5zZm9ybT0idHJhbnNsYXRlKDE2MDguNzA1MSwtODguNTg4NzQ1KSI+JiN4YTsgICAgICAgIDx0ZXh0IGlkPSJ0ZXh0MzUxNjgiIHk9IjU2Ni4yNTAzNyIgeD0iLTMyMC4zMzQ1OSIgc3R5bGU9ImZvbnQtc2l6ZToyNHB4O2ZvbnQtc3R5bGU6bm9ybWFsO2ZvbnQtd2VpZ2h0Om5vcm1hbDtmaWxsOiMwMDAwMDA7ZmlsbC1vcGFjaXR5OjE7c3Ryb2tlOm5vbmU7c3Ryb2tlLXdpZHRoOjFweDtzdHJva2UtbGluZWNhcDpidXR0O3N0cm9rZS1saW5lam9pbjptaXRlcjtzdHJva2Utb3BhY2l0eToxO2ZvbnQtZmFtaWx5OkFyaWFsIiB4bWw6c3BhY2U9InByZXNlcnZlIj48dHNwYW4geT0iNTY2LjI1MDM3IiB4PSItMzIwLjMzNDU5IiBpZD0idHNwYW4zNTE3MCI+ZjwvdHNwYW4+PC90ZXh0PiYjeGE7ICAgICAgICA8dGV4dCBpZD0idGV4dDM1MTcyIiB5PSI1ODMuMzY4NjUiIHg9Ii0zMTIuMjMwNDciIHN0eWxlPSJmb250LXNpemU6MjBweDtmb250LXN0eWxlOm5vcm1hbDtmb250LXdlaWdodDpub3JtYWw7ZmlsbDojMDAwMDAwO2ZpbGwtb3BhY2l0eToxO3N0cm9rZTpub25lO3N0cm9rZS13aWR0aDoxcHg7c3Ryb2tlLWxpbmVjYXA6YnV0dDtzdHJva2UtbGluZWpvaW46bWl0ZXI7c3Ryb2tlLW9wYWNpdHk6MTtmb250LWZhbWlseTpBcmlhbCIgeG1sOnNwYWNlPSJwcmVzZXJ2ZSI+PHRzcGFuIHk9IjU4My4zNjg2NSIgeD0iLTMxMi4yMzA0NyIgaWQ9InRzcGFuMzUxNzQiPlpGPC90c3Bhbj48L3RleHQ+JiN4YTsgICAgICA8L2c+JiN4YTsgICAgICA8dGV4dCB4bWw6c3BhY2U9InByZXNlcnZlIiBzdHlsZT0iZm9udC1zaXplOjI0cHg7Zm9udC1zdHlsZTpub3JtYWw7Zm9udC13ZWlnaHQ6bm9ybWFsO2ZpbGw6IzAwMDAwMDtmaWxsLW9wYWNpdHk6MTtzdHJva2U6bm9uZTtzdHJva2Utd2lkdGg6MXB4O3N0cm9rZS1saW5lY2FwOmJ1dHQ7c3Ryb2tlLWxpbmVqb2luOm1pdGVyO3N0cm9rZS1vcGFjaXR5OjE7Zm9udC1mYW1pbHk6QXJpYWwiIHg9IjE3MTkuMDk3NyIgeT0iNTAxLjM2ODY1IiBpZD0idGV4dDM1MTg2Ij48dHNwYW4gaWQ9InRzcGFuMzUxODgiIHg9IjE3MTkuMDk3NyIgeT0iNTAxLjM2ODY1Ij5ORjwvdHNwYW4+PC90ZXh0PiYjeGE7ICAgICAgPHRleHQgeG1sOnNwYWNlPSJwcmVzZXJ2ZSIgc3R5bGU9ImZvbnQtc2l6ZToyNHB4O2ZvbnQtc3R5bGU6bm9ybWFsO2ZvbnQtd2VpZ2h0Om5vcm1hbDtmaWxsOiMwMDAwMDA7ZmlsbC1vcGFjaXR5OjE7c3Ryb2tlOm5vbmU7c3Ryb2tlLXdpZHRoOjFweDtzdHJva2UtbGluZWNhcDpidXR0O3N0cm9rZS1saW5lam9pbjptaXRlcjtzdHJva2Utb3BhY2l0eToxO2ZvbnQtZmFtaWx5OkFyaWFsIiB4PSIxNzUyLjE3MTkiIHk9IjY4Mi4xODg5NiIgaWQ9InRleHQzNTE5MCI+PHRzcGFuIGlkPSJ0c3BhbjM1MTkyIiB4PSIxNzUyLjE3MTkiIHk9IjY4Mi4xODg5NiI+TkY8L3RzcGFuPjwvdGV4dD4mI3hhOyAgICAgIDxnIGlkPSJnMzUyMDIiIHRyYW5zZm9ybT0idHJhbnNsYXRlKC00NTUuMTQ2MDYsLTMxMy4wMDc4MSkiPiYjeGE7ICAgICAgICA8dGV4dCBpZD0idGV4dDM1MTk0IiB5PSI5NjguNjIxODkiIHg9Ijg1Mi45MjM0IiBzdHlsZT0iZm9udC1zaXplOjI0cHg7Zm9udC1zdHlsZTpub3JtYWw7Zm9udC13ZWlnaHQ6bm9ybWFsO2ZpbGw6IzAwMDAwMDtmaWxsLW9wYWNpdHk6MTtzdHJva2U6bm9uZTtzdHJva2Utd2lkdGg6MXB4O3N0cm9rZS1saW5lY2FwOmJ1dHQ7c3Ryb2tlLWxpbmVqb2luOm1pdGVyO3N0cm9rZS1vcGFjaXR5OjE7Zm9udC1mYW1pbHk6QXJpYWwiIHhtbDpzcGFjZT0icHJlc2VydmUiPjx0c3BhbiB5PSI5NjguNjIxODkiIHg9Ijg1Mi45MjM0IiBpZD0idHNwYW4zNTE5NiI+ZjwvdHNwYW4+PC90ZXh0PiYjeGE7ICAgICAgICA8dGV4dCBpZD0idGV4dDM1MTk4IiB5PSI5NzguOTE1NTMiIHg9Ijg2MS41NDI5NyIgc3R5bGU9ImZvbnQtc2l6ZToyNHB4O2ZvbnQtc3R5bGU6bm9ybWFsO2ZvbnQtd2VpZ2h0Om5vcm1hbDtmaWxsOiMwMDAwMDA7ZmlsbC1vcGFjaXR5OjE7c3Ryb2tlOm5vbmU7c3Ryb2tlLXdpZHRoOjFweDtzdHJva2UtbGluZWNhcDpidXR0O3N0cm9rZS1saW5lam9pbjptaXRlcjtzdHJva2Utb3BhY2l0eToxO2ZvbnQtZmFtaWx5OkFyaWFsIiB4bWw6c3BhY2U9InByZXNlcnZlIj48dHNwYW4geT0iOTc4LjkxNTUzIiB4PSI4NjEuNTQyOTciIGlkPSJ0c3BhbjM1MjAwIj5vPC90c3Bhbj48L3RleHQ+JiN4YTsgICAgICA8L2c+JiN4YTsgICAgICA8ZyBpZD0iZzM1MjA4IiB0cmFuc2Zvcm09InRyYW5zbGF0ZSgxNCwtMzEyLjk2MDI3KSI+JiN4YTsgICAgICAgIDx0ZXh0IGlkPSJ0ZXh0MzUyMTAiIHk9Ijk2OC42MjE4OSIgeD0iODUyLjkyMzQiIHN0eWxlPSJmb250LXNpemU6MjRweDtmb250LXN0eWxlOm5vcm1hbDtmb250LXdlaWdodDpub3JtYWw7ZmlsbDojMDAwMDAwO2ZpbGwtb3BhY2l0eToxO3N0cm9rZTpub25lO3N0cm9rZS13aWR0aDoxcHg7c3Ryb2tlLWxpbmVjYXA6YnV0dDtzdHJva2UtbGluZWpvaW46bWl0ZXI7c3Ryb2tlLW9wYWNpdHk6MTtmb250LWZhbWlseTpBcmlhbCIgeG1sOnNwYWNlPSJwcmVzZXJ2ZSI+PHRzcGFuIHk9Ijk2OC42MjE4OSIgeD0iODUyLjkyMzQiIGlkPSJ0c3BhbjM1MjEyIj5mPC90c3Bhbj48L3RleHQ+JiN4YTsgICAgICAgIDx0ZXh0IGlkPSJ0ZXh0MzUyMTQiIHk9Ijk3OC45MTU1MyIgeD0iODYxLjU0Mjk3IiBzdHlsZT0iZm9udC1zaXplOjI0cHg7Zm9udC1zdHlsZTpub3JtYWw7Zm9udC13ZWlnaHQ6bm9ybWFsO2ZpbGw6IzAwMDAwMDtmaWxsLW9wYWNpdHk6MTtzdHJva2U6bm9uZTtzdHJva2Utd2lkdGg6MXB4O3N0cm9rZS1saW5lY2FwOmJ1dHQ7c3Ryb2tlLWxpbmVqb2luOm1pdGVyO3N0cm9rZS1vcGFjaXR5OjE7Zm9udC1mYW1pbHk6QXJpYWwiIHhtbDpzcGFjZT0icHJlc2VydmUiPjx0c3BhbiB5PSI5NzguOTE1NTMiIHg9Ijg2MS41NDI5NyIgaWQ9InRzcGFuMzUyMTYiPm88L3RzcGFuPjwvdGV4dD4mI3hhOyAgICAgIDwvZz4mI3hhOyAgICAgIDxnIGlkPSJnMzUyMTgiIHRyYW5zZm9ybT0idHJhbnNsYXRlKDgwMC44NTM5NCwtNTc5LjAwNzgxKSI+JiN4YTsgICAgICAgIDx0ZXh0IGlkPSJ0ZXh0MzUyMjAiIHk9Ijk2OC42MjE4OSIgeD0iODUyLjkyMzQiIHN0eWxlPSJmb250LXNpemU6MjRweDtmb250LXN0eWxlOm5vcm1hbDtmb250LXdlaWdodDpub3JtYWw7ZmlsbDojMDAwMDAwO2ZpbGwtb3BhY2l0eToxO3N0cm9rZTpub25lO3N0cm9rZS13aWR0aDoxcHg7c3Ryb2tlLWxpbmVjYXA6YnV0dDtzdHJva2UtbGluZWpvaW46bWl0ZXI7c3Ryb2tlLW9wYWNpdHk6MTtmb250LWZhbWlseTpBcmlhbCIgeG1sOnNwYWNlPSJwcmVzZXJ2ZSI+PHRzcGFuIHk9Ijk2OC42MjE4OSIgeD0iODUyLjkyMzQiIGlkPSJ0c3BhbjM1MjIyIj5mPC90c3Bhbj48L3RleHQ+JiN4YTsgICAgICAgIDx0ZXh0IGlkPSJ0ZXh0MzUyMjQiIHk9Ijk3OC45MTU1MyIgeD0iODYxLjU0Mjk3IiBzdHlsZT0iZm9udC1zaXplOjI0cHg7Zm9udC1zdHlsZTpub3JtYWw7Zm9udC13ZWlnaHQ6bm9ybWFsO2ZpbGw6IzAwMDAwMDtmaWxsLW9wYWNpdHk6MTtzdHJva2U6bm9uZTtzdHJva2Utd2lkdGg6MXB4O3N0cm9rZS1saW5lY2FwOmJ1dHQ7c3Ryb2tlLWxpbmVqb2luOm1pdGVyO3N0cm9rZS1vcGFjaXR5OjE7Zm9udC1mYW1pbHk6QXJpYWwiIHhtbDpzcGFjZT0icHJlc2VydmUiPjx0c3BhbiB5PSI5NzguOTE1NTMiIHg9Ijg2MS41NDI5NyIgaWQ9InRzcGFuMzUyMjYiPm88L3RzcGFuPjwvdGV4dD4mI3hhOyAgICAgIDwvZz4mI3hhOyAgICAgIDx0ZXh0IHhtbDpzcGFjZT0icHJlc2VydmUiIHN0eWxlPSJmb250LXNpemU6MjRweDtmb250LXN0eWxlOm5vcm1hbDtmb250LXdlaWdodDpub3JtYWw7ZmlsbDojMDAwMDAwO2ZpbGwtb3BhY2l0eToxO3N0cm9rZTpub25lO3N0cm9rZS13aWR0aDoxcHg7c3Ryb2tlLWxpbmVjYXA6YnV0dDtzdHJva2UtbGluZWpvaW46bWl0ZXI7c3Ryb2tlLW9wYWNpdHk6MTtmb250LWZhbWlseTpBcmlhbCIgeD0iNzIuMDc4MTI1IiB5PSI0MzcuOTA3NzEiIGlkPSJ0ZXh0MzUyNDYiPjx0c3BhbiBpZD0idHNwYW4zNTI0OCIgeD0iNzIuMDc4MTI1IiB5PSI0MzcuOTA3NzEiPkhGLVZlcnN0w6Rya2VyPC90c3Bhbj48L3RleHQ+JiN4YTsgICAgICA8dGV4dCB4bWw6c3BhY2U9InByZXNlcnZlIiBzdHlsZT0iZm9udC1zaXplOjI0cHg7Zm9udC1zdHlsZTpub3JtYWw7Zm9udC13ZWlnaHQ6bm9ybWFsO2ZpbGw6IzAwMDAwMDtmaWxsLW9wYWNpdHk6MTtzdHJva2U6bm9uZTtzdHJva2Utd2lkdGg6MXB4O3N0cm9rZS1saW5lY2FwOmJ1dHQ7c3Ryb2tlLWxpbmVqb2luOm1pdGVyO3N0cm9rZS1vcGFjaXR5OjE7Zm9udC1mYW1pbHk6QXJpYWwiIHg9IjE4MjYuMTY0MSIgeT0iNjE1LjQ3NDEyIiBpZD0idGV4dDM1MjUwIj48dHNwYW4gaWQ9InRzcGFuMzUyNTIiIHg9IjE4MjYuMTY0MSIgeT0iNjE1LjQ3NDEyIj5ORi1WZXJzdMOkcmtlcjwvdHNwYW4+PC90ZXh0PiYjeGE7ICAgIDwvZz4mI3hhOyAgPC9nPiYjeGE7PC9zdmc+;movable=1;resizable=1;rotatable=1;deletable=1;editable=1;locked=0;connectable=1;" vertex="1" parent="WIyWlLk6GJQsqaUBKTNV-1">
          <mxGeometry x="-10" y="450" width="1200" height="583" as="geometry" />
        </mxCell>
        <mxCell id="pzX8ORRPkJJLvDyIY_AX-1" value="" style="verticalLabelPosition=bottom;shadow=0;dashed=0;align=center;html=1;verticalAlign=top;shape=mxgraph.electrical.radio.aerial_-_antenna_1;" vertex="1" parent="WIyWlLk6GJQsqaUBKTNV-1">
          <mxGeometry x="50" y="110" width="80" height="100" as="geometry" />
        </mxCell>
        <mxCell id="pzX8ORRPkJJLvDyIY_AX-2" value="" style="verticalLabelPosition=bottom;shadow=0;dashed=0;align=center;html=1;verticalAlign=top;shape=mxgraph.electrical.abstract.amplifier;" vertex="1" parent="WIyWlLk6GJQsqaUBKTNV-1">
          <mxGeometry x="270" y="110" width="90" height="100" as="geometry" />
        </mxCell>
        <mxCell id="pzX8ORRPkJJLvDyIY_AX-3" value="" style="verticalLabelPosition=bottom;shadow=0;dashed=0;align=center;html=1;verticalAlign=top;shape=mxgraph.electrical.abstract.sum;" vertex="1" parent="WIyWlLk6GJQsqaUBKTNV-1">
          <mxGeometry x="50" y="280" width="50" height="50" as="geometry" />
        </mxCell>
        <mxCell id="pzX8ORRPkJJLvDyIY_AX-4" value="" style="verticalLabelPosition=bottom;shadow=0;dashed=0;align=center;html=1;verticalAlign=top;shape=mxgraph.electrical.abstract.filter;" vertex="1" parent="WIyWlLk6GJQsqaUBKTNV-1">
          <mxGeometry x="50" y="370" width="52" height="46" as="geometry" />
        </mxCell>
        <mxCell id="pzX8ORRPkJJLvDyIY_AX-5" value="" style="verticalLabelPosition=bottom;shadow=0;dashed=0;align=center;html=1;verticalAlign=top;shape=mxgraph.electrical.radio.microphone_1;" vertex="1" parent="WIyWlLk6GJQsqaUBKTNV-1">
          <mxGeometry x="500" y="70" width="70" height="70" as="geometry" />
        </mxCell>
        <mxCell id="pzX8ORRPkJJLvDyIY_AX-6" value="" style="verticalLabelPosition=bottom;shadow=0;dashed=0;align=center;html=1;verticalAlign=top;shape=mxgraph.electrical.radio.microphone_2;" vertex="1" parent="WIyWlLk6GJQsqaUBKTNV-1">
          <mxGeometry x="390" y="340" width="42" height="70" as="geometry" />
        </mxCell>
        <mxCell id="pzX8ORRPkJJLvDyIY_AX-7" value="" style="pointerEvents=1;verticalLabelPosition=bottom;shadow=0;dashed=0;align=center;html=1;verticalAlign=top;shape=mxgraph.electrical.electro-mechanical.loudspeaker;" vertex="1" parent="WIyWlLk6GJQsqaUBKTNV-1">
          <mxGeometry x="500" y="180" width="25" height="50" as="geometry" />
        </mxCell>
        <mxCell id="pzX8ORRPkJJLvDyIY_AX-9" value="" style="verticalLabelPosition=bottom;shadow=0;dashed=0;align=center;html=1;verticalAlign=top;shape=mxgraph.electrical.radio.electret_microphone;" vertex="1" parent="WIyWlLk6GJQsqaUBKTNV-1">
          <mxGeometry x="370" y="340" width="70" height="70" as="geometry" />
        </mxCell>
        <mxCell id="pzX8ORRPkJJLvDyIY_AX-10" value="" style="verticalLabelPosition=bottom;shadow=0;dashed=0;align=center;html=1;verticalAlign=top;shape=mxgraph.electrical.radio.electret_microphone;" vertex="1" parent="WIyWlLk6GJQsqaUBKTNV-1">
          <mxGeometry x="400" y="70" width="70" height="70" as="geometry" />
        </mxCell>
        <mxCell id="pzX8ORRPkJJLvDyIY_AX-11" value="" style="pointerEvents=1;verticalLabelPosition=bottom;shadow=0;dashed=0;align=center;html=1;verticalAlign=top;shape=mxgraph.electrical.waveforms.sine_wave;" vertex="1" parent="WIyWlLk6GJQsqaUBKTNV-1">
          <mxGeometry x="190" y="274" width="90" height="66.18" as="geometry" />
        </mxCell>
        <mxCell id="pzX8ORRPkJJLvDyIY_AX-12" value="TEST" style="verticalLabelPosition=bottom;shadow=0;dashed=0;align=center;html=1;verticalAlign=top;strokeWidth=1;shape=rect;" vertex="1" parent="WIyWlLk6GJQsqaUBKTNV-1">
          <mxGeometry x="390" y="240" width="130" height="50" as="geometry" />
        </mxCell>
        <mxCell id="pzX8ORRPkJJLvDyIY_AX-14" value="" style="verticalLabelPosition=bottom;shadow=0;dashed=0;align=center;html=1;verticalAlign=top;shape=mxgraph.electrical.radio.loop_antenna;" vertex="1" parent="WIyWlLk6GJQsqaUBKTNV-1">
          <mxGeometry x="380" y="340" width="64.8" height="69.78" as="geometry" />
        </mxCell>
        <mxCell id="pzX8ORRPkJJLvDyIY_AX-15" value="" style="verticalLabelPosition=bottom;shadow=0;dashed=0;align=center;html=1;verticalAlign=top;shape=mxgraph.electrical.logic_gates.bandpass_filter;" vertex="1" parent="WIyWlLk6GJQsqaUBKTNV-1">
          <mxGeometry x="120" y="370" width="52" height="46" as="geometry" />
        </mxCell>
        <mxCell id="pzX8ORRPkJJLvDyIY_AX-16" value="" style="verticalLabelPosition=bottom;shadow=0;dashed=0;align=center;html=1;verticalAlign=top;shape=mxgraph.electrical.logic_gates.highpass_filter;" vertex="1" parent="WIyWlLk6GJQsqaUBKTNV-1">
          <mxGeometry x="190" y="370" width="52" height="46" as="geometry" />
        </mxCell>
        <mxCell id="pzX8ORRPkJJLvDyIY_AX-17" value="" style="verticalLabelPosition=bottom;shadow=0;dashed=0;align=center;html=1;verticalAlign=top;shape=mxgraph.electrical.logic_gates.lowpass_filter;" vertex="1" parent="WIyWlLk6GJQsqaUBKTNV-1">
          <mxGeometry x="260" y="370" width="52" height="46" as="geometry" />
        </mxCell>
        <mxCell id="pzX8ORRPkJJLvDyIY_AX-18" value="" style="verticalLabelPosition=bottom;shadow=0;dashed=0;align=center;html=1;verticalAlign=top;shape=mxgraph.electrical.abstract.summation_point;" vertex="1" parent="WIyWlLk6GJQsqaUBKTNV-1">
          <mxGeometry x="50" y="440" width="50" height="50" as="geometry" />
        </mxCell>
        <mxCell id="pzX8ORRPkJJLvDyIY_AX-19" value="" style="verticalLabelPosition=bottom;shadow=0;dashed=0;align=center;fillColor=strokeColor;html=1;verticalAlign=top;strokeWidth=1;shape=mxgraph.electrical.miscellaneous.monocell_battery;" vertex="1" parent="WIyWlLk6GJQsqaUBKTNV-1">
          <mxGeometry x="-90" y="214" width="100" height="60" as="geometry" />
        </mxCell>
      </root>
    </mxGraphModel>
  </diagram>
</mxfile>
